<svg version="1.1" xmlns="http://www.w3.org/2000/svg" xmlns:xlink="http://www.w3.org/1999/xlink" width="990.2134" height="915.75789" viewBox="0,0,990.2134,915.75789"><defs><linearGradient x1="263" y1="-37" x2="263" y2="372" gradientUnits="userSpaceOnUse" id="color-1"><stop offset="0" stop-color="#184a00"/><stop offset="1" stop-color="#1c3100"/></linearGradient><linearGradient x1="-193.52923" y1="-141.65243" x2="-36.92494" y2="123.70479" gradientUnits="userSpaceOnUse" id="color-2"><stop offset="0" stop-color="#059d00"/><stop offset="1" stop-color="#0e5600"/></linearGradient><linearGradient x1="144.57603" y1="-311.49391" x2="144.57603" y2="31.6423" gradientUnits="userSpaceOnUse" id="color-3"><stop offset="0" stop-color="#059d00"/><stop offset="1" stop-color="#0e5600"/></linearGradient><linearGradient x1="-242.67766" y1="247.3279" x2="29.03017" y2="247.3279" gradientUnits="userSpaceOnUse" id="color-4"><stop offset="0" stop-color="#059d00"/><stop offset="1" stop-color="#0e5600"/></linearGradient><linearGradient x1="-177.19206" y1="478.23027" x2="25.16901" y2="363.76342" gradientUnits="userSpaceOnUse" id="color-5"><stop offset="0" stop-color="#059d00"/><stop offset="1" stop-color="#0e5600"/></linearGradient><linearGradient x1="30.11854" y1="508.2713" x2="207.41463" y2="373.52629" gradientUnits="userSpaceOnUse" id="color-6"><stop offset="0" stop-color="#059d00"/><stop offset="1" stop-color="#0e5600"/></linearGradient><linearGradient x1="581.72527" y1="603.8253" x2="558.94254" y2="303.5689" gradientUnits="userSpaceOnUse" id="color-7"><stop offset="0" stop-color="#059d00"/><stop offset="1" stop-color="#0e5600"/></linearGradient><linearGradient x1="195.24318" y1="504.12553" x2="337.00618" y2="360.67484" gradientUnits="userSpaceOnUse" id="color-8"><stop offset="0" stop-color="#059d00"/><stop offset="1" stop-color="#0e5600"/></linearGradient><linearGradient x1="355.7311" y1="467.41426" x2="397.40832" y2="357.39723" gradientUnits="userSpaceOnUse" id="color-9"><stop offset="0" stop-color="#059d00"/><stop offset="1" stop-color="#0e5600"/></linearGradient><linearGradient x1="629.45172" y1="-50.06362" x2="401.20498" y2="-54.53906" gradientUnits="userSpaceOnUse" id="color-10"><stop offset="0" stop-color="#059d00"/><stop offset="1" stop-color="#0e5600"/></linearGradient><linearGradient x1="304.09157" y1="-176.88797" x2="393.82672" y2="6.85137" gradientUnits="userSpaceOnUse" id="color-11"><stop offset="0" stop-color="#059d00"/><stop offset="1" stop-color="#0e5600"/></linearGradient><linearGradient x1="634.24965" y1="181.30515" x2="470.63094" y2="54.04614" gradientUnits="userSpaceOnUse" id="color-12"><stop offset="0" stop-color="#059d00"/><stop offset="1" stop-color="#0e5600"/></linearGradient><linearGradient x1="602.81987" y1="291.89552" x2="505.24293" y2="187.55583" gradientUnits="userSpaceOnUse" id="color-13"><stop offset="0" stop-color="#059d00"/><stop offset="1" stop-color="#0e5600"/></linearGradient></defs><g transform="translate(269.31257,311.49389)"><g data-paper-data="{&quot;isPaintingLayer&quot;:true}" fill-rule="nonzero" stroke="none" stroke-linecap="butt" stroke-linejoin="miter" stroke-miterlimit="10" stroke-dasharray="" stroke-dashoffset="0" style="mix-blend-mode: normal"><path d="M-20.5,372v-409h567v409z" fill="url(#color-1)" stroke-width="0"/><path d="M251.88439,-67.79719c0,-20.79307 16.85612,-37.64919 37.64918,-37.64919c20.79307,0 37.64918,16.85612 37.64918,37.64919c0,20.79307 -16.85611,37.64918 -37.64918,37.64918c-20.79307,0 -37.64918,-16.85611 -37.64918,-37.64918z" fill="#0e5900" stroke-width="0.5"/><path d="M403.14442,-52.39105c0,-20.79307 16.85611,-37.64918 37.64918,-37.64918c20.79307,0 37.64919,16.85611 37.64919,37.64918c0,20.79307 -16.85612,37.64918 -37.64919,37.64918c-20.79307,0 -37.64918,-16.85611 -37.64918,-37.64918z" fill="#0e5900" stroke-width="0.5"/><path d="M467.57,12.03452c0,-20.79307 16.85612,-37.64918 37.64919,-37.64918c20.79307,0 37.64918,16.85611 37.64918,37.64918c0,20.79307 -16.85611,37.64918 -37.64918,37.64918c-20.79307,0 -37.64919,-16.85611 -37.64919,-37.64918z" fill="#0e5900" stroke-width="0.5"/><path d="M471.77167,192.70622c0,-20.79307 16.85611,-37.64918 37.64918,-37.64918c20.79307,0 37.64918,16.85612 37.64918,37.64918c0,20.79307 -16.85611,37.64918 -37.64918,37.64918c-20.79307,0 -37.64918,-16.85611 -37.64918,-37.64918z" fill="#0e5900" stroke-width="0.5"/><path d="M312.10828,392.98573c0,-20.79307 16.85611,-37.64918 37.64918,-37.64918c14.15302,0 26.48207,7.80942 32.91307,19.35422c6.43101,-11.54478 18.76004,-19.35422 32.91306,-19.35422c20.79307,0 37.64918,16.85611 37.64918,37.64918c0,20.79307 -16.85611,37.64918 -37.64918,37.64918c-14.15302,0 -26.48207,-7.80942 -32.91306,-19.35422c-6.43101,11.54478 -18.76005,19.35422 -32.91307,19.35422c-20.79307,0 -37.64918,-16.85611 -37.64918,-37.64918z" fill="#0e5900" stroke-width="0.5"/><path d="M159.4477,381.77851c0,-20.79307 16.85612,-37.64918 37.64918,-37.64918c20.79307,0 37.64918,16.85611 37.64918,37.64918c0,20.79307 -16.85611,37.64918 -37.64918,37.64918c-20.79307,0 -37.64918,-16.85611 -37.64918,-37.64918z" fill="#0e5900" stroke-width="0.5"/><path d="M-21.22402,376.17904c0,-20.79307 16.85611,-37.64918 37.64918,-37.64918c20.79307,0 37.64918,16.85611 37.64918,37.64918c0,20.79307 -16.85611,37.64918 -37.64918,37.64918c-20.79307,0 -37.64918,-16.85611 -37.64918,-37.64918z" fill="#0e5900" stroke-width="0.5"/><path d="M-62.04737,124.88009c0,-20.79307 16.85612,-37.64918 37.64918,-37.64918c20.79307,0 37.64918,16.85611 37.64918,37.64918c0,20.79307 -16.85611,37.64918 -37.64918,37.64918c-20.79307,0 -37.64918,-16.85611 -37.64918,-37.64918z" fill="#0e5900" stroke-width="0.5"/><path d="M-10.01956,-4.77215c0,-20.79307 16.85611,-37.64918 37.64918,-37.64918c20.79307,0 37.64918,16.85612 37.64918,37.64918c0,20.79307 -16.85611,37.64918 -37.64918,37.64918c-20.79307,0 -37.64918,-16.85611 -37.64918,-37.64918z" fill="#0e5900" stroke-width="0.5"/><path d="M-247.90569,69.32831c-43.24508,-73.27637 -18.89988,-167.73566 54.37649,-210.98074c73.27638,-43.24507 167.73567,-18.89988 210.98074,54.37649c43.24508,73.27638 18.89989,167.73567 -54.37648,210.98074c-73.27637,43.24507 -167.73566,18.89989 -210.98074,-54.37648z" fill="url(#color-2)" stroke-width="0"/><path d="M-26.99207,-139.9258c0,-94.75445 76.81367,-171.56809 171.56811,-171.56809c94.75445,0 171.56811,76.81365 171.56811,171.56811c0,94.75445 -76.81366,171.56811 -171.5681,171.56811c-94.75444,0 -171.56809,-76.81366 -171.56809,-171.56809z" fill="url(#color-3)" stroke-width="0"/><path d="M-242.67766,247.3279c0,-75.03004 60.82387,-135.85392 135.85393,-135.85392c75.03004,0 135.85393,60.82387 135.85393,135.85393c0,75.03006 -60.82387,135.85393 -135.85392,135.85393c-75.03004,0 -135.85391,-60.82387 -135.85391,-135.85393z" fill="url(#color-4)" stroke-width="0"/><path d="M-177.19206,478.23027c-31.60915,-55.88046 -11.93336,-126.8048 43.9471,-158.41396c55.88046,-31.60915 126.80481,-11.93336 158.41397,43.9471c31.60915,55.88046 11.93336,126.80481 -43.9471,158.41396c-55.88046,31.60915 -126.80479,11.93336 -158.41396,-43.9471z" fill="url(#color-5)" stroke-width="0"/><path d="M30.11854,508.2713c-37.2088,-48.95896 -27.68342,-118.81174 21.27554,-156.02054c48.95896,-37.2088 118.81174,-27.68344 156.02054,21.27552c37.2088,48.95896 27.68344,118.81174 -21.27553,156.02054c-48.95896,37.2088 -118.81174,27.68344 -156.02054,-21.27552z" fill="url(#color-6)" stroke-width="0"/><path d="M581.72527,603.8253c-82.91352,6.29129 -155.22829,-55.8233 -161.51957,-138.73684c-6.29129,-82.91352 55.82332,-155.22829 138.73685,-161.51955c82.91352,-6.29127 155.2283,55.82332 161.51958,138.73685c6.29127,82.91352 -55.82333,155.22829 -138.73685,161.51955z" fill="url(#color-7)" stroke-width="0"/><path d="M195.24318,504.12553c-39.61281,-39.14677 -39.99062,-102.99403 -0.84385,-142.60684c39.14677,-39.61281 102.99403,-39.9906 142.60684,-0.84382c39.61281,39.14677 39.9906,102.99401 0.84382,142.60682c-39.14677,39.61281 -102.99403,39.99062 -142.60684,0.84385z" fill="url(#color-8)" stroke-width="0"/><path d="M355.7311,467.41426c-30.38037,-11.50884 -45.67877,-45.46675 -34.16993,-75.84715c11.50884,-30.38037 45.46677,-45.67876 75.84714,-34.16992c30.38037,11.50884 45.67877,45.46677 34.16994,75.84713c-11.50884,30.38037 -45.46677,45.67876 -75.84714,34.16994z" fill="url(#color-9)" stroke-width="0"/><path d="M629.45172,-50.06362c-1.23586,63.0286 -53.33249,113.12151 -116.36108,111.88566c-63.02859,-1.23586 -113.12152,-53.33248 -111.88567,-116.36108c1.23586,-63.02859 53.33249,-113.12151 116.36108,-111.88564c63.02859,1.23586 113.12152,53.33249 111.88567,116.36108z" fill="url(#color-10)" stroke-width="0"/><path d="M304.09157,-176.88797c50.73822,-24.77966 111.95758,-3.73611 136.73726,47.00211c24.77966,50.73824 3.73611,111.95758 -47.00211,136.73726c-50.73822,24.77967 -111.95757,3.73611 -136.73724,-47.0021c-24.77966,-50.73821 -3.73612,-111.95758 47.00211,-136.73724z" fill="url(#color-11)" stroke-width="0"/><path d="M634.24965,181.30515c-35.14161,45.18206 -100.2568,53.32146 -145.43887,18.17986c-45.18206,-35.14161 -53.32146,-100.2568 -18.17986,-145.43888c35.14161,-45.18206 100.25679,-53.32145 145.43887,-18.17984c45.18206,35.14161 53.32146,100.2568 18.17986,145.43887z" fill="url(#color-12)" stroke-width="0"/><path d="M602.81987,291.89552c-28.81262,26.94513 -74.01319,25.43124 -100.95834,-3.38138c-26.94513,-28.81262 -25.43124,-74.0132 3.38138,-100.95834c28.81262,-26.94512 74.0132,-25.43124 100.95834,3.38138c26.94513,28.81262 25.43124,74.01319 -3.38138,100.95834z" fill="url(#color-13)" stroke-width="0"/></g></g></svg>