<svg version="1.1" xmlns="http://www.w3.org/2000/svg" xmlns:xlink="http://www.w3.org/1999/xlink" width="83.62988" height="74.00117" viewBox="0,0,83.62988,74.00117"><g transform="translate(-199.46618,-164.01894)"><g stroke="none" stroke-miterlimit="10"><path d="M203.66685,228.98746c-4.45898,-18.99399 -8.92758,-59.97329 6.75241,-61.87272c34.91648,-4.2297 53.88869,-1.79994 65.88713,-1.74256c9.08743,0.04346 5.19902,57.72513 0,63.6153c-9.06862,10.27418 -69.45409,13.56912 -72.63954,0z" fill="#1c1909" stroke-width="0"/><path d="" fill="#000000" stroke-width="0.5"/><path d="" fill="#000000" stroke-width="0.5"/><path d="" fill="#000000" stroke-width="0.5"/><path d="" fill="#000000" stroke-width="0.5"/><path d="" fill="#000000" stroke-width="0.5"/><path d="" fill="#000000" stroke-width="0.5"/><path d="" fill="#000000" stroke-width="0.5"/><path d="" fill="#000000" stroke-width="0.5"/><path d="" fill="#000000" stroke-width="0.5"/><path d="" fill="#000000" stroke-width="0.5"/><path d="" fill="#000000" stroke-width="0.5"/><path d="" fill="#000000" stroke-width="0.5"/><path d="" fill="#000000" stroke-width="0.5"/><path d="" fill="#000000" stroke-width="0.5"/><path d="" fill="#000000" stroke-width="0.5"/><path d="" fill="#000000" stroke-width="0.5"/><path d="" fill="#000000" stroke-width="0.5"/><path d="" fill="#000000" stroke-width="0.5"/><path d="" fill="#000000" stroke-width="0.5"/><path d="" fill="#000000" stroke-width="0.5"/><path d="" fill="#000000" stroke-width="0.5"/><path d="M224.64875,167.33536c1.76777,-1.76777 3.53553,0 3.53553,0l0.92464,1.06067c1.07832,2.05911 1.53479,4.46737 1.58214,6.79126c0,2.03529 -0.64916,6.0038 -0.06688,8.04485c0.9398,3.29425 3.74465,5.84 3.35618,9.62434c-0.59795,5.82492 -5.04043,11.71744 -7.30031,17.04651c-3.35743,7.91723 -4.93486,16.61887 -6.42081,25.03936c0,0 -0.43446,2.46196 -2.89642,2.0275c-2.46196,-0.43446 -2.0275,-2.89642 -2.0275,-2.89642c1.55649,-8.82002 3.25968,-17.87374 6.76154,-26.16902c1.36825,-3.24115 2.93658,-6.51855 4.46454,-9.68123c0.69842,-1.44564 2.21065,-4.10541 2.43153,-5.72114c0.36609,-2.67792 -2.61418,-5.77059 -3.235,-8.12113c-0.66064,-2.50131 -0.06688,-6.64153 -0.06688,-9.19361c0.04457,-1.48796 -0.17816,-3.09192 -0.95293,-4.36304l-0.08939,0.04665c0,0 -1.76777,-1.76777 0,-3.53553z" fill="#141206" stroke-width="0.5"/><path d="M202.37886,223.96461c-1.11803,-2.23607 1.11803,-3.3541 1.11803,-3.3541l1.25232,-0.60458c4.43618,-2.64018 3.44987,-10.02621 3.44987,-14.65132c0,-12.9403 2.52441,-26.23122 5.38581,-38.83358c0,0 0.55405,-2.43783 2.99188,-1.88378c2.43783,0.55405 1.88378,2.99188 1.88378,2.99188c-2.35263,10.34125 -4.379,21.22006 -5.26665,31.80213c-0.70569,8.4129 2.25941,19.09639 -5.67119,24.73493l-1.78976,0.91646c0,0 -2.23607,1.11803 -3.3541,-1.11803z" fill="#141206" stroke-width="0.5"/><path d="M245.01266,236.31248c-0.79057,2.37171 -3.16228,1.58114 -3.16228,1.58114l-1.63086,-0.75669c-1.38241,-1.23063 -2.80782,-2.41615 -4.28671,-3.52898c-0.93806,-1.10184 -2.48022,-1.89751 -2.81419,-3.30552c-0.86784,-3.65876 3.63046,-7.32247 4.5672,-10.61802c0.54568,-1.91978 -0.13448,-3.99181 -0.32201,-5.97881c-0.39739,-4.21065 -0.87332,-8.02108 -0.76733,-12.29325c0.27792,-11.20239 1.26291,-22.37545 1.26291,-33.57675c0,0 0,-2.5 2.5,-2.5c2.5,0 2.5,2.5 2.5,2.5c0,11.24333 -0.97385,22.45989 -1.26452,33.70332c-0.14161,5.47766 0.87913,10.71257 1.00993,16.16409c0.07038,2.9331 -0.91187,6.04966 -2.33921,8.63496c-0.57647,1.04415 -2.82356,1.6711 -2.29869,2.74212c0.21286,0.43435 0.82794,0.50039 1.24192,0.75059c1.49878,1.12016 2.93317,2.32706 4.33252,3.56921l-0.10982,-0.24968c0,0 2.37171,0.79057 1.58114,3.16228z" fill="#141206" stroke-width="0.5"/><path d="M252.42371,164.31719c2.23607,-1.06516 3.3541,1.06516 3.3541,1.06516l-0.44771,-0.33186c2.77404,2.11593 3.70999,4.78738 6.6413,6.55911c3.94848,3.76175 7.02999,7.41956 6.99688,13.09077c-0.00974,1.66725 0.1675,3.47712 -0.61789,4.96706c-0.89645,1.70065 -3.81816,1.86119 -4.6634,3.58548c-0.91421,1.865 -0.63784,4.0755 -1.11555,6.08291c-1.00538,4.22475 -1.685,8.5087 -2.71786,12.70126c-1.82125,7.39278 -4.76712,14.4385 -6.95011,21.72361c0,0 -0.6868,2.29013 -3.09061,1.6358c-2.40381,-0.65432 -1.71701,-2.94445 -1.71701,-2.94445c2.15776,-7.18927 5.05495,-14.14572 6.87384,-21.43558c1.0463,-4.19343 1.7134,-8.50043 2.72471,-12.73055c0.55084,-2.30407 0.27903,-4.86058 1.41952,-6.95904c0.69898,-1.28609 1.83428,-2.3366 2.9783,-3.29031c0.54774,-0.45662 1.63009,-0.25094 1.99156,-0.85278c0.39635,-0.65991 -0.02647,-1.52243 -0.11087,-2.27847c-0.49783,-4.45915 -1.90693,-6.50175 -5.17145,-9.61189c-2.91742,-1.92537 -3.76096,-4.50554 -6.54106,-6.48284l-0.95472,-1.29793c0,0 -1.11803,-2.13032 1.11803,-3.19548z" fill="#141206" stroke-width="0.5"/><path d="M268.00836,232.65494c-2.45145,-0.45086 -1.96116,-2.70515 -1.96116,-2.70515l0.20496,-0.71473c0.00426,-2.47756 0.2154,-4.9606 0.60938,-7.41153c1.82789,-3.6419 1.71707,-6.56942 2.77868,-10.45867c0.51507,-1.88697 1.22379,-3.76182 2.28339,-5.44574c1.64727,-2.61787 4.76838,-4.79345 5.87581,-7.74648c0.76922,-2.05117 0.1298,-5.79833 -0.12477,-7.85272c-0.45787,-3.69493 -0.5453,-8.13277 -1.67896,-11.69564c-0.9511,-2.98912 -3.75257,-6.48151 -5.18924,-9.24116c0,0 -1.07864,-2.07395 1.1767,-3.06583c2.25534,-0.99189 3.33397,1.08206 3.33397,1.08206c1.58027,3.04154 4.40023,6.62298 5.45805,9.87452c1.24026,3.81231 1.3872,8.59194 1.87013,12.54864c0.34903,2.85963 0.86731,7.06501 -0.12477,9.86425c-1.71549,4.84038 -6.7005,7.87367 -8.06524,12.91701c-1.02664,3.79392 -0.9944,6.92751 -2.79847,10.52196c-0.29931,2.02156 -0.4085,4.06911 -0.40465,6.10932l-0.30206,1.61645c0,0 -0.49029,2.25429 -2.94174,1.80343z" fill="#141206" stroke-width="0.5"/></g></g></svg>