<svg version="1.1" xmlns="http://www.w3.org/2000/svg" xmlns:xlink="http://www.w3.org/1999/xlink" width="83.67305" height="167.24138" viewBox="0,0,83.67305,167.24138"><defs><linearGradient x1="200.05968" y1="180.00003" x2="279.94032" y2="180.00003" gradientUnits="userSpaceOnUse" id="color-1"><stop offset="0" stop-color="#004cff"/><stop offset="1" stop-color="#e800ff"/></linearGradient><linearGradient x1="256.26077" y1="107.51391" x2="247.99639" y2="134.26006" gradientUnits="userSpaceOnUse" id="color-2"><stop offset="0" stop-color="#c78b15"/><stop offset="1" stop-color="#c78b15" stop-opacity="0"/></linearGradient><linearGradient x1="256.26077" y1="107.51391" x2="247.99639" y2="134.26006" gradientUnits="userSpaceOnUse" id="color-3"><stop offset="0" stop-color="#c78b15"/><stop offset="1" stop-color="#c78b15" stop-opacity="0"/></linearGradient></defs><g transform="translate(-197.55968,-96.42483)"><g data-paper-data="{&quot;isPaintingLayer&quot;:true}" stroke="#000000" stroke-linecap="butt" stroke-linejoin="miter" stroke-miterlimit="10" stroke-dasharray="" stroke-dashoffset="0" style="mix-blend-mode: normal"><path d="M247.81125,98.92484c3.76532,2.37783 7.6656,8.24518 6.9611,13.12954c-0.70391,4.32581 -5.74464,16.32251 -10.2184,21.62048c8.08903,4.75641 -5.49715,39.77165 -2.59529,61.40986c4.14685,29.87504 28.28313,37.58443 36.77407,54.76361c4.5933,9.35796 -5.18,11.57796 -8.25041,11.29462c-44.66129,-2.29361 -60.9564,-28.41638 -67.07598,-44.33639c-8.06714,-20.9473 -0.21707,-46.06049 9.4403,-65.72753c1.95931,-3.90557 6.99432,-11.43583 10.34791,-14.22274c5.31005,-4.45942 6.70606,-4.73673 13.1269,-5.00724c1.25647,-0.13782 8.28234,-35.02241 11.48981,-32.92421z" fill="url(#color-1)" fill-rule="evenodd" stroke-width="5"/><path d="" fill="url(#color-2)" fill-rule="nonzero" stroke-width="0"/><path d="" fill="url(#color-3)" fill-rule="nonzero" stroke-width="0"/><path d="" fill="#c2ff00" fill-rule="nonzero" stroke-width="5"/><path d="" fill="#c2ff00" fill-rule="nonzero" stroke-width="5"/><path d="" fill="#004cff" fill-rule="nonzero" stroke-width="5"/></g></g></svg>