<svg version="1.1" xmlns="http://www.w3.org/2000/svg" xmlns:xlink="http://www.w3.org/1999/xlink" width="72.62501" height="91.37402" viewBox="0,0,72.62501,91.37402"><defs><linearGradient x1="215.10448" y1="137.46676" x2="218.97016" y2="154.851" gradientUnits="userSpaceOnUse" id="color-1"><stop offset="0" stop-color="#34c716"/><stop offset="1" stop-color="#34c716" stop-opacity="0"/></linearGradient></defs><g transform="translate(-203.70237,-134.31336)"><g data-paper-data="{&quot;isPaintingLayer&quot;:true}" stroke="#000000" stroke-linecap="butt" stroke-linejoin="miter" stroke-miterlimit="10" stroke-dasharray="" stroke-dashoffset="0" style="mix-blend-mode: normal"><g><path d="M207.82973,135.56337c2.83021,0.1268 6.83512,2.1392 7.98573,5.06019c0.97484,2.61217 1.97174,10.83021 1.17001,15.16807c5.96919,0.07797 9.50126,23.70915 17.92655,34.75061c11.71003,15.20027 27.47721,11.85073 37.58498,18.66627c5.48833,3.72268 0.78792,8.03056 -0.99798,8.84201c-25.40098,12.81295 -42.64063,3.51598 -51.04112,-3.35141c-11.06157,-9.03125 -14.64136,-25.38258 -15.50552,-39.29439c-0.14867,-2.77576 0.2594,-8.52403 1.23382,-11.12123c1.52819,-4.13817 2.21213,-4.73152 5.67473,-6.90528c0.65082,-0.47228 -6.465,-21.96301 -4.0312,-21.81485z" fill="#bdff3b" fill-rule="evenodd" stroke-width="2.5"/><path d="M212.60416,154.68988l-3.86568,-17.38425l1.68018,0.04253c0.94191,0.92037 2.66711,1.84759 3.21294,2.53222c1.25775,1.57758 1.77884,5.716 2.05145,7.6272c0.24198,1.69646 -0.10175,5.17952 -0.06474,7.03419c-0.02547,0.07226 -0.04349,0.14703 -0.05371,0.22304z" fill="url(#color-1)" fill-rule="nonzero" stroke-width="0"/></g></g></g></svg>