<svg version="1.1" xmlns="http://www.w3.org/2000/svg" xmlns:xlink="http://www.w3.org/1999/xlink" width="57.396" height="113.05224" viewBox="0,0,57.396,113.05224"><defs><linearGradient x1="250.23841" y1="131.5091" x2="244.73436" y2="149.32195" gradientUnits="userSpaceOnUse" id="color-1"><stop offset="0" stop-color="#c78b15"/><stop offset="1" stop-color="#c78b15" stop-opacity="0"/></linearGradient></defs><g transform="translate(-210.30867,-121.62156)"><g data-paper-data="{&quot;isPaintingLayer&quot;:true}" stroke="#000000" stroke-linecap="butt" stroke-linejoin="miter" stroke-miterlimit="10" stroke-dasharray="" stroke-dashoffset="0" style="mix-blend-mode: normal"><g><path d="M244.61106,124.12156c2.50769,1.58363 5.10527,5.49126 4.63607,8.74423c-0.4688,2.88098 -3.82591,10.87074 -6.80542,14.39917c5.38727,3.16775 -3.66108,26.48779 -1.72845,40.89877c2.76179,19.89668 18.83647,25.03111 24.49141,36.47239c3.05912,6.23237 -3.44986,7.71088 -5.49475,7.52218c-29.74428,-1.52754 -40.59677,-18.92522 -44.67239,-29.5279c-5.37269,-13.95084 -0.14457,-30.67614 6.28721,-43.77433c1.30489,-2.6011 4.65819,-7.61623 6.89168,-9.4723c3.53648,-2.96996 4.46621,-3.15465 8.74247,-3.33481c0.83681,-0.09179 5.51601,-23.32481 7.65218,-21.92742z" fill="#fff63b" fill-rule="evenodd" stroke-width="5"/><path d="M239.02942,145.87271l5.50405,-17.81285l1.50571,0.91036c0.37897,1.32555 1.46663,3.06371 1.60776,3.96941c0.3252,2.08701 -1.34802,6.12037 -2.09168,7.99963c-0.66011,1.66812 -2.77969,4.6569 -3.70826,6.36253c-0.06065,0.05249 -0.11582,0.11113 -0.16455,0.17494z" fill="url(#color-1)" fill-rule="nonzero" stroke-width="0"/></g></g></g></svg>