<svg version="1.1" xmlns="http://www.w3.org/2000/svg" xmlns:xlink="http://www.w3.org/1999/xlink" width="101.06485" height="71.64283" viewBox="0,0,101.06485,71.64283"><defs><linearGradient x1="360.26319" y1="163.3632" x2="391.09186" y2="117.65691" gradientUnits="userSpaceOnUse" id="color-1"><stop offset="0" stop-color="#5d0000"/><stop offset="1" stop-color="#ff2121"/></linearGradient><linearGradient x1="327.75" y1="165.44376" x2="327.75" y2="188.51876" gradientTransform="translate(-595.5,-365.50001) scale(2,2)" gradientUnits="userSpaceOnUse" id="color-2"><stop offset="0" stop-color="#ea1d1d"/><stop offset="1" stop-color="#6e0303"/></linearGradient></defs><g transform="translate(-297.5,-116.35718)"><g data-paper-data="{&quot;isPaintingLayer&quot;:true}" fill-rule="nonzero" stroke="#000000" stroke-linecap="butt" stroke-linejoin="miter" stroke-miterlimit="10" stroke-dasharray="" stroke-dashoffset="0" style="mix-blend-mode: normal"><path d="M385.8141,134.42427c0,0 -12.79763,19.02104 -18.61356,27.65728c-1.52349,2.26212 -4.59254,2.8608 -6.85446,1.33756c-2.26225,-1.52347 -2.86066,-4.59185 -1.33719,-6.8541c4.87604,-7.24062 18.59825,-27.63529 18.59825,-27.63529c0,0 -2.30717,0.43589 -12.87418,2.49836c-2.6771,0.52242 -5.27022,-1.22386 -5.79222,-3.90067c-0.52149,-2.67757 1.22408,-5.27055 3.9009,-5.79255c8.56804,-1.67274 24.59111,-4.79856 24.59111,-4.79856c2.67674,-0.52206 5.27027,1.2245 5.79222,3.90067c0,0 2.69857,13.82667 4.76077,24.3941c0.52266,2.67835 -1.22361,5.27147 -3.90095,5.79264c-2.67668,0.52269 -5.27055,-1.22408 -5.7914,-3.90012c-1.67368,-8.56987 -2.47928,-12.69931 -2.47928,-12.69931z" fill="url(#color-1)" stroke-width="1.15823"/><text transform="translate(297.75,182.75001) scale(0.5,0.5)" font-size="40" xml:space="preserve" fill="url(#color-2)" fill-rule="nonzero" stroke="#000000" stroke-width="1" stroke-linecap="butt" stroke-linejoin="miter" stroke-miterlimit="10" stroke-dasharray="" stroke-dashoffset="0" font-family="Pixel" font-weight="normal" text-anchor="start" style="mix-blend-mode: normal"><tspan x="0" dy="0">SHOP</tspan></text></g></g></svg>