<svg version="1.1" xmlns="http://www.w3.org/2000/svg" xmlns:xlink="http://www.w3.org/1999/xlink" width="41.21452" height="81.91547" viewBox="0,0,41.21452,81.91547"><g transform="translate(-219.39274,-131.17956)"><g data-paper-data="{&quot;isPaintingLayer&quot;:true}" fill-rule="nonzero" stroke="#000000" stroke-width="5" stroke-linejoin="miter" stroke-miterlimit="10" stroke-dasharray="" stroke-dashoffset="0" style="mix-blend-mode: normal"><path d="M258.10726,180c0,16.89717 -8.1069,30.59502 -18.10726,30.59502c-10.00036,0 -18.10726,-13.69786 -18.10726,-30.59502c0,-16.89716 8.1069,-30.59502 18.10726,-30.59502c10.00036,0 18.10726,13.69786 18.10726,30.59502z" fill="#ffffff" stroke-linecap="butt"/><path d="M238.58245,149.08114l3.58667,-15.40158" fill="none" stroke-linecap="round"/><path d="M235.66164,157.70545v12.6959" fill="none" stroke-linecap="round"/><path d="M244.71527,158.32984l0.20813,11.86338" fill="none" stroke-linecap="round"/><path d="M228.89743,183.09724c0,0 3.3501,3.85262 4.83022,5.55475c0.19172,0.22048 1.65487,4.21334 1.88056,4.47288c1.25636,1.44482 3.6957,0.7951 3.6957,0.7951c0,0 2.59161,-0.42581 4.09478,-1.00769c2.38049,-0.92148 6.72795,-5.2362 6.72795,-5.2362" fill="none" stroke-linecap="round"/></g></g></svg>