<svg version="1.1" xmlns="http://www.w3.org/2000/svg" xmlns:xlink="http://www.w3.org/1999/xlink" width="48.03224" height="51.83655" viewBox="0,0,48.03224,51.83655"><g transform="translate(-215.98388,-154.08175)"><g data-paper-data="{&quot;isPaintingLayer&quot;:true}" fill-rule="nonzero" stroke-linejoin="miter" stroke-miterlimit="10" stroke-dasharray="" stroke-dashoffset="0" style="mix-blend-mode: normal"><path d="M216.98388,204.9183v-49.83655h46.03224v49.83655z" fill="#ffa2a2" stroke="#000000" stroke-width="2" stroke-linecap="butt"/><path d="M224.42451,168.83996c0,-1.54823 1.25508,-2.8033 2.80331,-2.8033c1.54823,0 2.80331,1.25508 2.80331,2.8033c0,1.54823 -1.25508,2.80331 -2.80331,2.80331c-1.54823,0 -2.80331,-1.25509 -2.80331,-2.80331z" fill="#000000" stroke="#000000" stroke-width="2" stroke-linecap="butt"/><path d="M236.8421,168.8708c0,-2.25196 1.82558,-4.07753 4.07754,-4.07753c2.25196,0 4.07754,1.82557 4.07754,4.07753c0,2.25196 -1.82558,4.07754 -4.07754,4.07754c-2.25196,0 -4.07754,-1.82558 -4.07754,-4.07754z" fill="#000000" stroke="#000000" stroke-width="2" stroke-linecap="butt"/><path d="M251.98505,169.68407c0,-1.54823 1.25508,-2.8033 2.80331,-2.8033c1.54823,0 2.80331,1.25508 2.80331,2.8033c0,1.54823 -1.25508,2.80331 -2.80331,2.80331c-1.54823,0 -2.80331,-1.25509 -2.80331,-2.80331z" fill="#000000" stroke="#000000" stroke-width="2" stroke-linecap="butt"/><path d="M226.68843,187.85842l25.74239,10.76815" fill="none" stroke="#000000" stroke-width="2" stroke-linecap="round"/><path d="M243.12812,176.92978c3.06839,-0.405 5.92225,0.29721 1.06882,6.40159c-5.86032,7.37079 -7.38299,-5.13001 -7.16016,-5.60434c0.66848,-1.42296 3.0672,-0.69215 4.6008,-1.03822h0.3958c0,0 0.52556,0 1.09475,0.24097z" fill="#000000" stroke="none" stroke-width="0.5" stroke-linecap="butt"/></g></g></svg>