<svg version="1.1" xmlns="http://www.w3.org/2000/svg" xmlns:xlink="http://www.w3.org/1999/xlink" width="45.0158" height="90.17707" viewBox="0,0,45.0158,90.17707"><defs><linearGradient x1="256.26078" y1="107.51389" x2="247.9964" y2="134.26003" gradientUnits="userSpaceOnUse" id="color-1"><stop offset="0" stop-color="#c78b15"/><stop offset="1" stop-color="#c78b15" stop-opacity="0"/></linearGradient><linearGradient x1="256.26078" y1="107.51389" x2="247.9964" y2="134.26003" gradientUnits="userSpaceOnUse" id="color-2"><stop offset="0" stop-color="#c78b15"/><stop offset="1" stop-color="#c78b15" stop-opacity="0"/></linearGradient><linearGradient x1="256.26077" y1="107.51389" x2="247.99639" y2="134.26003" gradientUnits="userSpaceOnUse" id="color-3"><stop offset="0" stop-color="#c78b15"/><stop offset="1" stop-color="#c78b15" stop-opacity="0"/></linearGradient><linearGradient x1="256.26077" y1="107.51389" x2="247.99639" y2="134.26003" gradientUnits="userSpaceOnUse" id="color-4"><stop offset="0" stop-color="#c78b15"/><stop offset="1" stop-color="#c78b15" stop-opacity="0"/></linearGradient><linearGradient x1="248.7875" y1="140.65292" x2="244.32134" y2="155.10684" gradientUnits="userSpaceOnUse" id="color-5"><stop offset="0" stop-color="#34c716"/><stop offset="1" stop-color="#34c716" stop-opacity="0"/></linearGradient></defs><g transform="translate(-217.1658,-134.93605)"><g data-paper-data="{&quot;isPaintingLayer&quot;:true}" stroke="#000000" stroke-linecap="butt" stroke-linejoin="miter" stroke-miterlimit="10" stroke-dasharray="" stroke-dashoffset="0" style="mix-blend-mode: normal"><path d="" fill="url(#color-1)" fill-rule="nonzero" stroke-width="0"/><path d="" fill="url(#color-2)" fill-rule="nonzero" stroke-width="0"/><path d="" fill="url(#color-3)" fill-rule="nonzero" stroke-width="0"/><path d="" fill="url(#color-4)" fill-rule="nonzero" stroke-width="0"/><g><path d="M244.22129,136.18605c2.03482,1.28501 4.14258,4.45579 3.76186,7.09535c-0.3804,2.33772 -3.10447,8.82087 -5.52214,11.68395c4.3714,2.57042 -2.97072,21.49305 -1.40252,33.18658c2.241,16.14481 15.28452,20.31105 19.87312,29.59487c2.48227,5.05715 -2.79933,6.25686 -4.45861,6.10374c-24.13547,-1.23949 -32.94153,-15.35653 -36.24862,-23.95989c-4.35957,-11.32016 -0.11731,-24.89161 5.10164,-35.5199c1.05883,-2.11061 3.77981,-6.18005 5.59213,-7.68613c2.86961,-2.40992 3.62403,-2.55978 7.09392,-2.70597c0.67901,-0.07448 4.47587,-18.92651 6.20922,-17.79261z" fill="#bdff3b" fill-rule="evenodd" stroke-width="2.5"/><path d="M239.69216,152.30802l4.46616,-14.45392l1.22178,0.73869c0.30751,1.0756 1.19007,2.48599 1.30459,3.22091c0.26388,1.69347 -1.09382,4.96627 -1.69726,6.49116c-0.53563,1.35356 -2.25553,3.77876 -3.009,5.16276c-0.04921,0.04259 -0.09398,0.09017 -0.13352,0.14196z" fill="url(#color-5)" fill-rule="nonzero" stroke-width="0"/></g></g></g></svg>