<svg version="1.1" xmlns="http://www.w3.org/2000/svg" xmlns:xlink="http://www.w3.org/1999/xlink" width="69.9357" height="69.70659" viewBox="0,0,69.9357,69.70659"><defs><radialGradient cx="240" cy="180" r="33.12929" gradientUnits="userSpaceOnUse" id="color-1"><stop offset="0" stop-color="#cc1f1f"/><stop offset="1" stop-color="#82d716"/></radialGradient><radialGradient cx="221.40947" cy="163.19702" r="6.31601" gradientUnits="userSpaceOnUse" id="color-2"><stop offset="0" stop-color="#a00000"/><stop offset="1" stop-color="#ff4e4e"/></radialGradient><radialGradient cx="254.29527" cy="161.28515" r="6.31602" gradientUnits="userSpaceOnUse" id="color-3"><stop offset="0" stop-color="#a00000"/><stop offset="1" stop-color="#ff4e4e"/></radialGradient></defs><g transform="translate(-204.65604,-145.4366)"><g data-paper-data="{&quot;isPaintingLayer&quot;:true}" fill-rule="nonzero" stroke-linejoin="miter" stroke-miterlimit="10" stroke-dasharray="" stroke-dashoffset="0" style="mix-blend-mode: normal"><path d="M206.87071,180c0,-9.17857 -3.41759,-22.72882 2.61252,-28.72867c5.99047,-5.96041 21.39854,-4.40062 30.51677,-4.40062c9.7781,0 23.3336,-1.24567 29.39776,5.49155c5.28312,5.86947 3.73153,19.11905 3.73153,27.63774c0,10.10548 1.67226,24.87437 -5.46159,30.95101c-5.78257,4.92561 -19.47639,2.17828 -27.6677,2.17828c-9.53845,0 -22.42553,2.8808 -28.47034,-3.57069c-5.55042,-5.92384 -4.65895,-20.80026 -4.65895,-29.5586z" fill="url(#color-1)" stroke="#000000" stroke-width="2.5" stroke-linecap="butt"/><path d="M227.2488,163.19702c0,3.48824 -2.61436,6.31601 -5.83933,6.31601c-3.22498,0 -5.83934,-2.82778 -5.83934,-6.31601c0,-3.48824 2.61436,-6.31602 5.83934,-6.31602c3.22498,0 5.83933,2.82778 5.83933,6.31602z" fill="url(#color-2)" stroke="#000000" stroke-width="1.5" stroke-linecap="butt"/><path d="M260.13461,161.28515c0,3.48824 -2.61436,6.31602 -5.83934,6.31602c-3.22498,0 -5.83933,-2.82778 -5.83933,-6.31602c0,-3.48824 2.61436,-6.31602 5.83933,-6.31602c3.22498,0 5.83934,2.82778 5.83934,6.31602z" fill="url(#color-3)" stroke="#000000" stroke-width="1.5" stroke-linecap="butt"/><path d="M221.05196,185.95851c0,0 21.88077,23.14725 30.26921,15.9688c9.36747,-8.01626 6.07768,-14.89626 6.07768,-14.89626" fill="none" stroke="#000000" stroke-width="1.5" stroke-linecap="round"/><path d="M225.22073,189.57407l6.99417,-6.32971l-2.43625,9.92636z" fill="#000000" stroke="none" stroke-width="0" stroke-linecap="butt"/><path d="M230.48346,195.11436l5.89504,-7.36425l-0.8218,10.18787z" fill="#000000" stroke="none" stroke-width="0" stroke-linecap="butt"/><path d="M236.5449,199.81006l4.63085,-8.21821l0.83119,10.18711z" fill="#000000" stroke="none" stroke-width="0" stroke-linecap="butt"/><path d="M243.70889,202.76779l1.43015,-9.32407l4.37527,9.23716z" fill="#000000" stroke="none" stroke-width="0" stroke-linecap="butt"/><path d="M251.73171,200.85615l-4.63236,-8.21736l9.14521,4.56433z" fill="#000000" stroke="none" stroke-width="0" stroke-linecap="butt"/><path d="M256.70997,194.78793l-8.61243,-3.84834l10.06604,-1.77284z" fill="#000000" stroke="#000000" stroke-width="0.5" stroke-linecap="butt"/></g></g></svg>