<svg version="1.1" xmlns="http://www.w3.org/2000/svg" xmlns:xlink="http://www.w3.org/1999/xlink" width="64.48172" height="53.75" viewBox="0,0,64.48172,53.75"><g transform="translate(-207.75914,-288.26014)"><g data-paper-data="{&quot;isPaintingLayer&quot;:true}" fill-rule="nonzero" stroke-linejoin="miter" stroke-miterlimit="10" stroke-dasharray="" stroke-dashoffset="0" style="mix-blend-mode: normal"><g><path d="M226.17806,327.70258v-36.94245h27.00839v36.94245z" fill="#875600" stroke="#382000" stroke-width="5" stroke-linecap="butt"/><g><path d="M222.26701,321.65685c9.31541,0.00461 18.63089,-0.02469 27.94624,0c0.43994,0.00117 0.94912,0.13944 1.37601,0.20041c2.72072,0.38857 7.86566,-0.93411 9.50733,1.17993c0.70976,0.91398 0.33978,2.58421 -1.02187,3.18527c-2.01103,0.8877 -4.27633,0.87772 -6.05971,2.19002c-3.14576,2.3148 -5.29723,5.78829 -9.36052,7.48733c-1.93943,0.81096 -1.23891,2.33785 -3.91581,2.71518c-0.48104,0.06781 -1.32452,0.25948 -1.87218,0.09157c-1.27938,-0.39226 -2.80322,-1.87555 -3.87522,-2.52224c-2.40841,-1.45288 -4.5782,-3.0151 -6.80235,-4.56037c-0.91815,-0.6379 -1.36824,-1.70801 -2.38966,-2.25646c-0.86972,-0.46699 -1.93747,-0.6093 -2.76177,-1.21585c-0.65789,-0.4841 -0.98463,-1.80829 -1.3565,-1.99071c-1.57034,-0.07844 -2.8111,-1.04063 -2.8111,-2.21606c0,-0.9131 0.74873,-1.69751 1.81907,-2.03893c0.42338,-0.16125 0.93898,-0.24941 1.57804,-0.24909z" fill="#875600" stroke="none" stroke-width="0.5" stroke-linecap="butt"/><g fill="none" stroke-width="5" stroke-linecap="round"><path d="M238.57014,322.09107h26.05516l-23.67206,17.41906" stroke="#382000"/><path d="M239.04676,339.51014l-23.67206,-17.41906h26.05516" data-paper-data="{&quot;index&quot;:null}" stroke="#382000"/></g></g><path d="M238.17517,294.35497c-0.17008,1.29869 -0.88107,4.12845 1.98887,3.71489c0.49195,-0.07089 0.40517,-0.72568 0.23709,-0.92862c-0.24268,-0.29301 -0.78976,-0.47716 -0.85041,-0.81738c-0.05367,-0.30108 0.4502,-0.51976 0.55985,-0.81251c0.34494,-0.92096 -1.07766,-1.12049 -1.9354,-1.15638zM236.24202,294.54178c-0.27958,-0.02752 -0.62392,-0.14255 -0.75279,-0.52185c-0.23119,-0.6805 0.69358,-0.85062 0.69358,-0.85062l0.42381,-0.07643c0.36118,-0.04736 0.72236,-0.09472 1.08354,-0.14209c2.18187,-0.00409 4.68654,0.79817 4.28731,2.84487c-0.03548,0.1819 -0.55029,0.20683 -0.52957,0.38996c0.01915,0.16924 0.49067,0.10277 0.60214,0.25148c0.50693,0.67626 0.56875,1.52091 -0.01638,2.19382c-1.09485,1.25909 -4.03513,1.06198 -5.20112,-0.01709c-0.56759,-0.52528 -0.60505,-1.23821 -0.64468,-1.86231c-0.04667,-0.73499 -0.02039,-1.47564 0.05415,-2.20974z" fill="#382000" stroke="none" stroke-width="0.5" stroke-linecap="butt"/><path d="M239.86382,303.70335h-0.09078c-0.76966,0 -1.52259,-0.00132 -2.28328,0.0301c-0.11074,0.15301 -0.2151,0.30457 -0.31393,0.4506c0,0 -0.4263,0.62739 -1.2789,0.31369c-0.8526,-0.31369 -0.4263,-0.94108 -0.4263,-0.94108c0.10621,-0.15575 0.2234,-0.3251 0.35175,-0.50082c-0.00555,-0.32883 0.23368,-0.50135 0.46242,-0.59108c0.89543,-1.05885 2.18021,-2.06433 3.89256,-1.56776c0.99478,0.28848 1.63111,1.42055 2.25459,2.00827l0.2008,0.89827c0,0 0,0.70144 -0.95324,0.70144c-0.95324,0 -0.95324,-0.70144 -0.95324,-0.70144l0.2008,-0.03698c-0.02872,-0.02726 -0.13873,-0.15369 -0.29177,-0.3256c-0.27661,0.26237 -0.77148,0.26237 -0.77148,0.26237zM239.12856,302.11666c-0.09759,0.05766 -0.1921,0.11988 -0.2837,0.18593c0.22274,-0.00145 0.44605,-0.00191 0.67044,-0.00205c-0.17655,-0.14368 -0.31897,-0.22393 -0.38674,-0.18388z" fill="#382000" stroke="none" stroke-width="0.5" stroke-linecap="butt"/><path d="M241.71505,309.32794c-0.4263,0.62739 -1.2789,0.31369 -1.2789,0.31369l0.06316,-0.05955c-2.20551,-0.00835 -5.4475,-0.52762 -5.49007,-2.65583c-0.00873,-0.4366 0.03077,-0.95451 0.44273,-1.26878c1.62966,-1.2432 5.1342,-0.21028 6.25369,0.78841c0,0 0.58523,0.55368 -0.16721,0.98432c-0.75244,0.43064 -1.33767,-0.12304 -1.33767,-0.12304c-0.56691,-0.59335 -2.37175,-1.04396 -3.36946,-0.68127c-0.62699,0.22793 1.40793,1.33943 1.6217,1.39207c0.65054,0.16017 1.3603,0.16436 2.04628,0.16123l0.78944,0.20766c0,0 0.8526,0.31369 0.4263,0.94108z" fill="#382000" stroke="none" stroke-width="0.5" stroke-linecap="butt"/><path d="M244.12158,316.41269c-0.88506,0.26051 -1.23908,-0.39076 -1.23908,-0.39076l0.07019,-0.07026c-0.92957,-0.61571 -1.97118,-1.0971 -2.95556,-1.66469c0.12259,0.5654 0.19753,1.14775 0.27131,1.74496l0.00391,0.19711c0,0 0,0.70144 -0.95324,0.70144c-0.95324,0 -0.95324,-0.70144 -0.95324,-0.70144l0.00391,-0.0701c-0.1017,-0.82319 -0.1817,-1.63527 -0.44141,-2.40242c-0.00537,-0.01356 -0.00998,-0.02707 -0.0139,-0.04051c-0.22174,-0.63792 -0.57073,-1.24423 -1.1635,-1.79938c0,0 -0.58523,-0.55368 0.16721,-0.98432c0.75244,-0.43064 1.33767,0.12304 1.33767,0.12304c0.38134,0.36386 0.68322,0.73957 0.925,1.12626c1.00288,-0.7979 2.09698,-1.42971 3.46077,-2.03194l0.7115,-0.32736c0,0 0.80834,-0.37176 1.31356,0.22306c0.50521,0.59482 -0.30313,0.96658 -0.30313,0.96658l-0.74105,0.34068c-1.10928,0.48967 -2.00424,0.98814 -2.82386,1.60842c1.11358,0.70031 2.32201,1.23088 3.42064,1.9421l0.43333,0.59777c0,0 0.35402,0.65127 -0.53104,0.91178z" fill="#382000" stroke="none" stroke-width="0.5" stroke-linecap="butt"/></g></g></g></svg>