<svg version="1.1" xmlns="http://www.w3.org/2000/svg" xmlns:xlink="http://www.w3.org/1999/xlink" width="46.19575" height="42.90891" viewBox="0,0,46.19575,42.90891"><g transform="translate(-216.69193,-159.94277)"><g data-paper-data="{&quot;isPaintingLayer&quot;:true}" fill-rule="nonzero" stroke="#000000" stroke-linecap="butt" stroke-linejoin="miter" stroke-miterlimit="10" stroke-dasharray="" stroke-dashoffset="0" style="mix-blend-mode: normal"><path d="M218.40132,180c0,-6.72611 -2.10917,-14.846 2.71116,-18.80723c2.52821,-2.07762 23.7992,0.43187 37.53062,1.36088c3.56107,0.24093 2.95558,13.60641 2.95558,17.44635c0,5.29636 1.74142,13.41128 -1.42256,17.1684c-3.96202,4.70477 -13.54387,4.43028 -20.17612,4.43028c-5.63472,0 -14.98923,0.53012 -18.83485,-3.00412c-4.29549,-3.9477 -2.76383,-12.30066 -2.76383,-18.59456z" fill="#c8acff" stroke-width="2.5"/><path d="M231.84585,172.74886l1.78463,1.26047c-1.05103,1.74876 -1.21608,4.60535 -3.1531,5.24629c-5.51665,1.8254 -6.02925,-5.28951 -5.08476,-7.66431c0.45814,-1.15193 1.97413,-1.50003 2.9612,-2.25005c0,0 2.10915,-1.34219 3.45134,0.76696c0.71891,1.12971 0.44765,2.03939 0.04069,2.64063z" fill="#ffabab" stroke-width="0.5"/><path d="M248.35425,169.50805l0.73232,-0.74226c3.46526,0.53438 6.25023,0.00476 6.53195,5.54902c0.19668,3.87059 -4.53567,6.52415 -7.81813,4.71928c-0.41446,-0.22789 -1.0731,-2.80438 -1.51647,-4.69418c-0.51067,-0.64289 -0.5064,-1.41826 -0.42897,-1.91587c-0.07478,-0.55646 -0.15049,-2.36004 1.90176,-2.83363c0.21325,-0.04921 0.41213,-0.07545 0.59754,-0.08235z" fill="#ffabab" stroke-width="0.5"/><path d="M246.42665,187.37512c0.55921,-0.20959 2.24503,-0.65048 3.16834,1.19615c1.11803,2.23607 -1.11803,3.3541 -1.11803,3.3541l-1.53121,0.45575c-7.02833,-0.08237 -13.57266,-0.15412 -20.13977,-2.88358c0,0 -2.30409,-0.97014 -1.33395,-3.27423c0.97014,-2.30409 3.27423,-1.33395 3.27423,-1.33395c5.70038,2.43658 11.57016,2.42189 17.68039,2.48575z" fill="#ffabab" stroke-width="0.5"/></g></g></svg>