<svg version="1.1" xmlns="http://www.w3.org/2000/svg" xmlns:xlink="http://www.w3.org/1999/xlink" width="272.5" height="189.41666" viewBox="0,0,272.5,189.41666"><defs><linearGradient x1="222.02572" y1="-769.0555" x2="201.34683" y2="-762.27942" gradientUnits="userSpaceOnUse" id="color-1"><stop offset="0" stop-color="#c78b15"/><stop offset="1" stop-color="#c78b15" stop-opacity="0"/></linearGradient><linearGradient x1="222.02572" y1="-769.0555" x2="201.34683" y2="-762.27942" gradientUnits="userSpaceOnUse" id="color-2"><stop offset="0" stop-color="#c78b15"/><stop offset="1" stop-color="#c78b15" stop-opacity="0"/></linearGradient><linearGradient x1="303.99944" y1="51.15096" x2="293.12927" y2="54.71291" gradientUnits="userSpaceOnUse" id="color-3"><stop offset="0" stop-color="#c78b15"/><stop offset="1" stop-color="#c78b15" stop-opacity="0"/></linearGradient><linearGradient x1="-382.04215" y1="580.76822" x2="-364.90901" y2="594.18415" gradientUnits="userSpaceOnUse" id="color-4"><stop offset="0" stop-color="#c78b15"/><stop offset="1" stop-color="#c78b15" stop-opacity="0"/></linearGradient><linearGradient x1="-382.04215" y1="580.76822" x2="-364.90901" y2="594.18415" gradientUnits="userSpaceOnUse" id="color-5"><stop offset="0" stop-color="#c78b15"/><stop offset="1" stop-color="#c78b15" stop-opacity="0"/></linearGradient><linearGradient x1="253.98391" y1="56.43131" x2="262.99019" y2="63.48359" gradientUnits="userSpaceOnUse" id="color-6"><stop offset="0" stop-color="#c78b15"/><stop offset="1" stop-color="#c78b15" stop-opacity="0"/></linearGradient><linearGradient x1="927.21734" y1="-473.16771" x2="909.38769" y2="-485.64309" gradientUnits="userSpaceOnUse" id="color-7"><stop offset="0" stop-color="#c78b15"/><stop offset="1" stop-color="#c78b15" stop-opacity="0"/></linearGradient><linearGradient x1="927.21734" y1="-473.16771" x2="909.38769" y2="-485.64309" gradientUnits="userSpaceOnUse" id="color-8"><stop offset="0" stop-color="#c78b15"/><stop offset="1" stop-color="#c78b15" stop-opacity="0"/></linearGradient><linearGradient x1="320.30151" y1="84.60601" x2="310.9291" y2="78.04814" gradientUnits="userSpaceOnUse" id="color-9"><stop offset="0" stop-color="#c78b15"/><stop offset="1" stop-color="#c78b15" stop-opacity="0"/></linearGradient><linearGradient x1="358.69239" y1="-768.0555" x2="338.01349" y2="-761.27943" gradientUnits="userSpaceOnUse" id="color-10"><stop offset="0" stop-color="#c78b15"/><stop offset="1" stop-color="#c78b15" stop-opacity="0"/></linearGradient><linearGradient x1="358.69239" y1="-768.0555" x2="338.01349" y2="-761.27943" gradientUnits="userSpaceOnUse" id="color-11"><stop offset="0" stop-color="#c78b15"/><stop offset="1" stop-color="#c78b15" stop-opacity="0"/></linearGradient><linearGradient x1="440.6661" y1="52.15097" x2="429.79594" y2="55.71291" gradientUnits="userSpaceOnUse" id="color-12"><stop offset="0" stop-color="#c78b15"/><stop offset="1" stop-color="#c78b15" stop-opacity="0"/></linearGradient><linearGradient x1="1218.08345" y1="-146.34892" x2="1207.39722" y2="-165.30509" gradientUnits="userSpaceOnUse" id="color-13"><stop offset="0" stop-color="#c78b15"/><stop offset="1" stop-color="#c78b15" stop-opacity="0"/></linearGradient><linearGradient x1="1218.08345" y1="-146.34892" x2="1207.39722" y2="-165.30509" gradientUnits="userSpaceOnUse" id="color-14"><stop offset="0" stop-color="#c78b15"/><stop offset="1" stop-color="#c78b15" stop-opacity="0"/></linearGradient><linearGradient x1="429.70666" y1="94.31762" x2="424.08929" y2="84.35304" gradientUnits="userSpaceOnUse" id="color-15"><stop offset="0" stop-color="#c78b15"/><stop offset="1" stop-color="#c78b15" stop-opacity="0"/></linearGradient><linearGradient x1="-467.98987" y1="126.6117" x2="-461.07597" y2="147.24492" gradientUnits="userSpaceOnUse" id="color-16"><stop offset="0" stop-color="#c78b15"/><stop offset="1" stop-color="#c78b15" stop-opacity="0"/></linearGradient><linearGradient x1="-467.98987" y1="126.6117" x2="-461.07597" y2="147.24492" gradientUnits="userSpaceOnUse" id="color-17"><stop offset="0" stop-color="#c78b15"/><stop offset="1" stop-color="#c78b15" stop-opacity="0"/></linearGradient><linearGradient x1="351.6514" y1="39.16726" x2="355.28579" y2="50.01342" gradientUnits="userSpaceOnUse" id="color-18"><stop offset="0" stop-color="#c78b15"/><stop offset="1" stop-color="#c78b15" stop-opacity="0"/></linearGradient><linearGradient x1="276.35905" y1="-770.0555" x2="255.68016" y2="-763.27942" gradientUnits="userSpaceOnUse" id="color-19"><stop offset="0" stop-color="#c78b15"/><stop offset="1" stop-color="#c78b15" stop-opacity="0"/></linearGradient><linearGradient x1="276.35905" y1="-770.0555" x2="255.68016" y2="-763.27942" gradientUnits="userSpaceOnUse" id="color-20"><stop offset="0" stop-color="#c78b15"/><stop offset="1" stop-color="#c78b15" stop-opacity="0"/></linearGradient><linearGradient x1="358.33277" y1="50.15097" x2="347.46261" y2="53.71291" gradientUnits="userSpaceOnUse" id="color-21"><stop offset="0" stop-color="#c78b15"/><stop offset="1" stop-color="#c78b15" stop-opacity="0"/></linearGradient><linearGradient x1="214.69239" y1="-769.38883" x2="194.01349" y2="-762.61276" gradientUnits="userSpaceOnUse" id="color-22"><stop offset="0" stop-color="#c78b15"/><stop offset="1" stop-color="#c78b15" stop-opacity="0"/></linearGradient><linearGradient x1="214.69239" y1="-769.38883" x2="194.01349" y2="-762.61276" gradientUnits="userSpaceOnUse" id="color-23"><stop offset="0" stop-color="#c78b15"/><stop offset="1" stop-color="#c78b15" stop-opacity="0"/></linearGradient><linearGradient x1="296.6661" y1="50.81763" x2="285.79594" y2="54.37958" gradientUnits="userSpaceOnUse" id="color-24"><stop offset="0" stop-color="#c78b15"/><stop offset="1" stop-color="#c78b15" stop-opacity="0"/></linearGradient><linearGradient x1="-507.11563" y1="209.90991" x2="-498.18776" y2="229.75493" gradientUnits="userSpaceOnUse" id="color-25"><stop offset="0" stop-color="#c78b15"/><stop offset="1" stop-color="#c78b15" stop-opacity="0"/></linearGradient><linearGradient x1="-507.11563" y1="209.90991" x2="-498.18776" y2="229.75493" gradientUnits="userSpaceOnUse" id="color-26"><stop offset="0" stop-color="#c78b15"/><stop offset="1" stop-color="#c78b15" stop-opacity="0"/></linearGradient><linearGradient x1="299.79761" y1="41.53722" x2="304.49067" y2="51.96904" gradientUnits="userSpaceOnUse" id="color-27"><stop offset="0" stop-color="#c78b15"/><stop offset="1" stop-color="#c78b15" stop-opacity="0"/></linearGradient><linearGradient x1="1123.33349" y1="-363.43629" x2="1107.83376" y2="-378.71013" gradientUnits="userSpaceOnUse" id="color-28"><stop offset="0" stop-color="#c78b15"/><stop offset="1" stop-color="#c78b15" stop-opacity="0"/></linearGradient><linearGradient x1="1123.33349" y1="-363.43629" x2="1107.83376" y2="-378.71013" gradientUnits="userSpaceOnUse" id="color-29"><stop offset="0" stop-color="#c78b15"/><stop offset="1" stop-color="#c78b15" stop-opacity="0"/></linearGradient><linearGradient x1="431.90542" y1="85.32374" x2="423.75776" y2="77.29483" gradientUnits="userSpaceOnUse" id="color-30"><stop offset="0" stop-color="#c78b15"/><stop offset="1" stop-color="#c78b15" stop-opacity="0"/></linearGradient><linearGradient x1="-399.97879" y1="431.12668" x2="-385.86692" y2="447.69131" gradientUnits="userSpaceOnUse" id="color-31"><stop offset="0" stop-color="#c78b15"/><stop offset="1" stop-color="#c78b15" stop-opacity="0"/></linearGradient><linearGradient x1="-399.97879" y1="431.12668" x2="-385.86692" y2="447.69131" gradientUnits="userSpaceOnUse" id="color-32"><stop offset="0" stop-color="#c78b15"/><stop offset="1" stop-color="#c78b15" stop-opacity="0"/></linearGradient><linearGradient x1="327.87585" y1="44.23398" x2="335.29396" y2="52.94142" gradientUnits="userSpaceOnUse" id="color-33"><stop offset="0" stop-color="#c78b15"/><stop offset="1" stop-color="#c78b15" stop-opacity="0"/></linearGradient><linearGradient x1="403.35905" y1="-769.38883" x2="382.68016" y2="-762.61276" gradientUnits="userSpaceOnUse" id="color-34"><stop offset="0" stop-color="#c78b15"/><stop offset="1" stop-color="#c78b15" stop-opacity="0"/></linearGradient><linearGradient x1="403.35905" y1="-769.38883" x2="382.68016" y2="-762.61276" gradientUnits="userSpaceOnUse" id="color-35"><stop offset="0" stop-color="#c78b15"/><stop offset="1" stop-color="#c78b15" stop-opacity="0"/></linearGradient><linearGradient x1="485.33277" y1="50.81763" x2="474.46261" y2="54.37958" gradientUnits="userSpaceOnUse" id="color-36"><stop offset="0" stop-color="#c78b15"/><stop offset="1" stop-color="#c78b15" stop-opacity="0"/></linearGradient><linearGradient x1="494.9548" y1="910.45491" x2="515.7007" y2="903.88685" gradientUnits="userSpaceOnUse" id="color-37"><stop offset="0" stop-color="#c78b15"/><stop offset="1" stop-color="#c78b15" stop-opacity="0"/></linearGradient><linearGradient x1="494.9548" y1="910.45491" x2="515.7007" y2="903.88685" gradientUnits="userSpaceOnUse" id="color-38"><stop offset="0" stop-color="#c78b15"/><stop offset="1" stop-color="#c78b15" stop-opacity="0"/></linearGradient><linearGradient x1="421.22242" y1="89.46656" x2="432.12781" y2="86.01396" gradientUnits="userSpaceOnUse" id="color-39"><stop offset="0" stop-color="#c78b15"/><stop offset="1" stop-color="#c78b15" stop-opacity="0"/></linearGradient><linearGradient x1="1112.54828" y1="-433.23417" x2="1095.55073" y2="-446.8215" gradientUnits="userSpaceOnUse" id="color-40"><stop offset="0" stop-color="#c78b15"/><stop offset="1" stop-color="#c78b15" stop-opacity="0"/></linearGradient><linearGradient x1="1112.54828" y1="-433.23417" x2="1095.55073" y2="-446.8215" gradientUnits="userSpaceOnUse" id="color-41"><stop offset="0" stop-color="#c78b15"/><stop offset="1" stop-color="#c78b15" stop-opacity="0"/></linearGradient><linearGradient x1="471.28846" y1="84.68877" x2="462.35345" y2="77.5464" gradientUnits="userSpaceOnUse" id="color-42"><stop offset="0" stop-color="#c78b15"/><stop offset="1" stop-color="#c78b15" stop-opacity="0"/></linearGradient><linearGradient x1="-207.22971" y1="607.4999" x2="-189.52624" y2="620.15372" gradientUnits="userSpaceOnUse" id="color-43"><stop offset="0" stop-color="#c78b15"/><stop offset="1" stop-color="#c78b15" stop-opacity="0"/></linearGradient><linearGradient x1="-207.22971" y1="607.4999" x2="-189.52624" y2="620.15372" gradientUnits="userSpaceOnUse" id="color-44"><stop offset="0" stop-color="#c78b15"/><stop offset="1" stop-color="#c78b15" stop-opacity="0"/></linearGradient><linearGradient x1="405.25715" y1="55.84948" x2="414.56324" y2="62.50114" gradientUnits="userSpaceOnUse" id="color-45"><stop offset="0" stop-color="#c78b15"/><stop offset="1" stop-color="#c78b15" stop-opacity="0"/></linearGradient><linearGradient x1="358.30507" y1="908.08244" x2="379.05097" y2="901.51438" gradientUnits="userSpaceOnUse" id="color-46"><stop offset="0" stop-color="#c78b15"/><stop offset="1" stop-color="#c78b15" stop-opacity="0"/></linearGradient><linearGradient x1="358.30507" y1="908.08244" x2="379.05097" y2="901.51438" gradientUnits="userSpaceOnUse" id="color-47"><stop offset="0" stop-color="#c78b15"/><stop offset="1" stop-color="#c78b15" stop-opacity="0"/></linearGradient><linearGradient x1="284.57269" y1="87.09408" x2="295.47808" y2="83.64149" gradientUnits="userSpaceOnUse" id="color-48"><stop offset="0" stop-color="#c78b15"/><stop offset="1" stop-color="#c78b15" stop-opacity="0"/></linearGradient><linearGradient x1="-494.79895" y1="277.77648" x2="-484.30364" y2="296.83901" gradientUnits="userSpaceOnUse" id="color-49"><stop offset="0" stop-color="#c78b15"/><stop offset="1" stop-color="#c78b15" stop-opacity="0"/></linearGradient><linearGradient x1="-494.79895" y1="277.77648" x2="-484.30364" y2="296.83901" gradientUnits="userSpaceOnUse" id="color-50"><stop offset="0" stop-color="#c78b15"/><stop offset="1" stop-color="#c78b15" stop-opacity="0"/></linearGradient><linearGradient x1="295.95505" y1="45.03962" x2="301.47206" y2="55.06012" gradientUnits="userSpaceOnUse" id="color-51"><stop offset="0" stop-color="#c78b15"/><stop offset="1" stop-color="#c78b15" stop-opacity="0"/></linearGradient><linearGradient x1="1193.93064" y1="21.7626" x2="1187.2243" y2="1.06098" gradientUnits="userSpaceOnUse" id="color-52"><stop offset="0" stop-color="#c78b15"/><stop offset="1" stop-color="#c78b15" stop-opacity="0"/></linearGradient><linearGradient x1="1193.93064" y1="21.7626" x2="1187.2243" y2="1.06098" gradientUnits="userSpaceOnUse" id="color-53"><stop offset="0" stop-color="#c78b15"/><stop offset="1" stop-color="#c78b15" stop-opacity="0"/></linearGradient><linearGradient x1="373.45251" y1="100.97109" x2="369.92723" y2="90.08899" gradientUnits="userSpaceOnUse" id="color-54"><stop offset="0" stop-color="#c78b15"/><stop offset="1" stop-color="#c78b15" stop-opacity="0"/></linearGradient><linearGradient x1="440.61416" y1="910.9092" x2="461.36006" y2="904.34114" gradientUnits="userSpaceOnUse" id="color-55"><stop offset="0" stop-color="#c78b15"/><stop offset="1" stop-color="#c78b15" stop-opacity="0"/></linearGradient><linearGradient x1="440.61416" y1="910.9092" x2="461.36006" y2="904.34114" gradientUnits="userSpaceOnUse" id="color-56"><stop offset="0" stop-color="#c78b15"/><stop offset="1" stop-color="#c78b15" stop-opacity="0"/></linearGradient><linearGradient x1="366.88178" y1="89.92084" x2="377.78717" y2="86.46825" gradientUnits="userSpaceOnUse" id="color-57"><stop offset="0" stop-color="#c78b15"/><stop offset="1" stop-color="#c78b15" stop-opacity="0"/></linearGradient><linearGradient x1="502.28441" y1="910.86187" x2="523.03032" y2="904.29382" gradientUnits="userSpaceOnUse" id="color-58"><stop offset="0" stop-color="#c78b15"/><stop offset="1" stop-color="#c78b15" stop-opacity="0"/></linearGradient><linearGradient x1="502.28441" y1="910.86187" x2="523.03032" y2="904.29382" gradientUnits="userSpaceOnUse" id="color-59"><stop offset="0" stop-color="#c78b15"/><stop offset="1" stop-color="#c78b15" stop-opacity="0"/></linearGradient><linearGradient x1="428.55204" y1="89.87352" x2="439.45742" y2="86.42092" gradientUnits="userSpaceOnUse" id="color-60"><stop offset="0" stop-color="#c78b15"/><stop offset="1" stop-color="#c78b15" stop-opacity="0"/></linearGradient><linearGradient x1="1233.89097" y1="-61.13847" x2="1225.16286" y2="-81.07216" gradientUnits="userSpaceOnUse" id="color-61"><stop offset="0" stop-color="#c78b15"/><stop offset="1" stop-color="#c78b15" stop-opacity="0"/></linearGradient><linearGradient x1="1233.89097" y1="-61.13847" x2="1225.16286" y2="-81.07216" gradientUnits="userSpaceOnUse" id="color-62"><stop offset="0" stop-color="#c78b15"/><stop offset="1" stop-color="#c78b15" stop-opacity="0"/></linearGradient><linearGradient x1="425.32749" y1="99.12202" x2="420.73943" y2="88.64359" gradientUnits="userSpaceOnUse" id="color-63"><stop offset="0" stop-color="#c78b15"/><stop offset="1" stop-color="#c78b15" stop-opacity="0"/></linearGradient><linearGradient x1="-402.23394" y1="495.80445" x2="-386.88839" y2="511.23319" gradientUnits="userSpaceOnUse" id="color-64"><stop offset="0" stop-color="#c78b15"/><stop offset="1" stop-color="#c78b15" stop-opacity="0"/></linearGradient><linearGradient x1="-402.23394" y1="495.80445" x2="-386.88839" y2="511.23319" gradientUnits="userSpaceOnUse" id="color-65"><stop offset="0" stop-color="#c78b15"/><stop offset="1" stop-color="#c78b15" stop-opacity="0"/></linearGradient><linearGradient x1="293.66608" y1="54.01096" x2="301.73269" y2="62.1213" gradientUnits="userSpaceOnUse" id="color-66"><stop offset="0" stop-color="#c78b15"/><stop offset="1" stop-color="#c78b15" stop-opacity="0"/></linearGradient><linearGradient x1="1128.98119" y1="-283.42005" x2="1115.03639" y2="-300.12557" gradientUnits="userSpaceOnUse" id="color-67"><stop offset="0" stop-color="#c78b15"/><stop offset="1" stop-color="#c78b15" stop-opacity="0"/></linearGradient><linearGradient x1="1128.98119" y1="-283.42005" x2="1115.03639" y2="-300.12557" gradientUnits="userSpaceOnUse" id="color-68"><stop offset="0" stop-color="#c78b15"/><stop offset="1" stop-color="#c78b15" stop-opacity="0"/></linearGradient><linearGradient x1="397.27775" y1="96.1434" x2="389.94746" y2="87.36191" gradientUnits="userSpaceOnUse" id="color-69"><stop offset="0" stop-color="#c78b15"/><stop offset="1" stop-color="#c78b15" stop-opacity="0"/></linearGradient><linearGradient x1="313.62726" y1="908.96712" x2="334.37316" y2="902.39906" gradientUnits="userSpaceOnUse" id="color-70"><stop offset="0" stop-color="#c78b15"/><stop offset="1" stop-color="#c78b15" stop-opacity="0"/></linearGradient><linearGradient x1="313.62726" y1="908.96712" x2="334.37316" y2="902.39906" gradientUnits="userSpaceOnUse" id="color-71"><stop offset="0" stop-color="#c78b15"/><stop offset="1" stop-color="#c78b15" stop-opacity="0"/></linearGradient><linearGradient x1="239.89488" y1="87.97877" x2="250.80027" y2="84.52617" gradientUnits="userSpaceOnUse" id="color-72"><stop offset="0" stop-color="#c78b15"/><stop offset="1" stop-color="#c78b15" stop-opacity="0"/></linearGradient><linearGradient x1="220.02572" y1="1032.57263" x2="199.34683" y2="1025.79655" gradientUnits="userSpaceOnUse" id="color-73"><stop offset="0" stop-color="#c78b15"/><stop offset="1" stop-color="#c78b15" stop-opacity="0"/></linearGradient><linearGradient x1="220.02572" y1="1032.57263" x2="199.34683" y2="1025.79655" gradientUnits="userSpaceOnUse" id="color-74"><stop offset="0" stop-color="#c78b15"/><stop offset="1" stop-color="#c78b15" stop-opacity="0"/></linearGradient><linearGradient x1="301.99944" y1="212.36616" x2="291.12928" y2="208.80422" gradientUnits="userSpaceOnUse" id="color-75"><stop offset="0" stop-color="#c78b15"/><stop offset="1" stop-color="#c78b15" stop-opacity="0"/></linearGradient><linearGradient x1="-384.04215" y1="-317.25109" x2="-366.90901" y2="-330.66702" gradientUnits="userSpaceOnUse" id="color-76"><stop offset="0" stop-color="#c78b15"/><stop offset="1" stop-color="#c78b15" stop-opacity="0"/></linearGradient><linearGradient x1="-384.04215" y1="-317.25109" x2="-366.90901" y2="-330.66702" gradientUnits="userSpaceOnUse" id="color-77"><stop offset="0" stop-color="#c78b15"/><stop offset="1" stop-color="#c78b15" stop-opacity="0"/></linearGradient><linearGradient x1="251.98391" y1="207.08581" x2="260.99019" y2="200.03353" gradientUnits="userSpaceOnUse" id="color-78"><stop offset="0" stop-color="#c78b15"/><stop offset="1" stop-color="#c78b15" stop-opacity="0"/></linearGradient><linearGradient x1="925.21734" y1="736.68483" x2="907.38769" y2="749.16022" gradientUnits="userSpaceOnUse" id="color-79"><stop offset="0" stop-color="#c78b15"/><stop offset="1" stop-color="#c78b15" stop-opacity="0"/></linearGradient><linearGradient x1="925.21734" y1="736.68483" x2="907.38769" y2="749.16022" gradientUnits="userSpaceOnUse" id="color-80"><stop offset="0" stop-color="#c78b15"/><stop offset="1" stop-color="#c78b15" stop-opacity="0"/></linearGradient><linearGradient x1="318.30152" y1="178.91112" x2="308.9291" y2="185.46899" gradientUnits="userSpaceOnUse" id="color-81"><stop offset="0" stop-color="#c78b15"/><stop offset="1" stop-color="#c78b15" stop-opacity="0"/></linearGradient><linearGradient x1="356.69239" y1="1031.57263" x2="336.01349" y2="1024.79655" gradientUnits="userSpaceOnUse" id="color-82"><stop offset="0" stop-color="#c78b15"/><stop offset="1" stop-color="#c78b15" stop-opacity="0"/></linearGradient><linearGradient x1="356.69239" y1="1031.57263" x2="336.01349" y2="1024.79655" gradientUnits="userSpaceOnUse" id="color-83"><stop offset="0" stop-color="#c78b15"/><stop offset="1" stop-color="#c78b15" stop-opacity="0"/></linearGradient><linearGradient x1="438.6661" y1="211.36616" x2="427.79594" y2="207.80422" gradientUnits="userSpaceOnUse" id="color-84"><stop offset="0" stop-color="#c78b15"/><stop offset="1" stop-color="#c78b15" stop-opacity="0"/></linearGradient><linearGradient x1="1216.08345" y1="409.86605" x2="1205.39723" y2="428.82222" gradientUnits="userSpaceOnUse" id="color-85"><stop offset="0" stop-color="#c78b15"/><stop offset="1" stop-color="#c78b15" stop-opacity="0"/></linearGradient><linearGradient x1="1216.08345" y1="409.86605" x2="1205.39723" y2="428.82222" gradientUnits="userSpaceOnUse" id="color-86"><stop offset="0" stop-color="#c78b15"/><stop offset="1" stop-color="#c78b15" stop-opacity="0"/></linearGradient><linearGradient x1="427.70667" y1="169.1995" x2="422.0893" y2="179.16409" gradientUnits="userSpaceOnUse" id="color-87"><stop offset="0" stop-color="#c78b15"/><stop offset="1" stop-color="#c78b15" stop-opacity="0"/></linearGradient><linearGradient x1="-469.98987" y1="136.90543" x2="-463.07597" y2="116.2722" gradientUnits="userSpaceOnUse" id="color-88"><stop offset="0" stop-color="#c78b15"/><stop offset="1" stop-color="#c78b15" stop-opacity="0"/></linearGradient><linearGradient x1="-469.98987" y1="136.90543" x2="-463.07597" y2="116.2722" gradientUnits="userSpaceOnUse" id="color-89"><stop offset="0" stop-color="#c78b15"/><stop offset="1" stop-color="#c78b15" stop-opacity="0"/></linearGradient><linearGradient x1="349.6514" y1="224.34986" x2="353.28579" y2="213.50371" gradientUnits="userSpaceOnUse" id="color-90"><stop offset="0" stop-color="#c78b15"/><stop offset="1" stop-color="#c78b15" stop-opacity="0"/></linearGradient><linearGradient x1="274.35906" y1="1033.57263" x2="253.68016" y2="1026.79655" gradientUnits="userSpaceOnUse" id="color-91"><stop offset="0" stop-color="#c78b15"/><stop offset="1" stop-color="#c78b15" stop-opacity="0"/></linearGradient><linearGradient x1="274.35906" y1="1033.57263" x2="253.68016" y2="1026.79655" gradientUnits="userSpaceOnUse" id="color-92"><stop offset="0" stop-color="#c78b15"/><stop offset="1" stop-color="#c78b15" stop-opacity="0"/></linearGradient><linearGradient x1="356.33277" y1="213.36616" x2="345.46261" y2="209.80422" gradientUnits="userSpaceOnUse" id="color-93"><stop offset="0" stop-color="#c78b15"/><stop offset="1" stop-color="#c78b15" stop-opacity="0"/></linearGradient><linearGradient x1="212.69239" y1="1032.90596" x2="192.01349" y2="1026.12989" gradientUnits="userSpaceOnUse" id="color-94"><stop offset="0" stop-color="#c78b15"/><stop offset="1" stop-color="#c78b15" stop-opacity="0"/></linearGradient><linearGradient x1="212.69239" y1="1032.90596" x2="192.01349" y2="1026.12989" gradientUnits="userSpaceOnUse" id="color-95"><stop offset="0" stop-color="#c78b15"/><stop offset="1" stop-color="#c78b15" stop-opacity="0"/></linearGradient><linearGradient x1="294.6661" y1="212.6995" x2="283.79594" y2="209.13755" gradientUnits="userSpaceOnUse" id="color-96"><stop offset="0" stop-color="#c78b15"/><stop offset="1" stop-color="#c78b15" stop-opacity="0"/></linearGradient><linearGradient x1="-509.11563" y1="53.60722" x2="-500.18776" y2="33.7622" gradientUnits="userSpaceOnUse" id="color-97"><stop offset="0" stop-color="#c78b15"/><stop offset="1" stop-color="#c78b15" stop-opacity="0"/></linearGradient><linearGradient x1="-509.11563" y1="53.60722" x2="-500.18776" y2="33.7622" gradientUnits="userSpaceOnUse" id="color-98"><stop offset="0" stop-color="#c78b15"/><stop offset="1" stop-color="#c78b15" stop-opacity="0"/></linearGradient><linearGradient x1="297.79761" y1="221.97991" x2="302.49067" y2="211.54809" gradientUnits="userSpaceOnUse" id="color-99"><stop offset="0" stop-color="#c78b15"/><stop offset="1" stop-color="#c78b15" stop-opacity="0"/></linearGradient><linearGradient x1="1121.33349" y1="626.95341" x2="1105.83376" y2="642.22726" gradientUnits="userSpaceOnUse" id="color-100"><stop offset="0" stop-color="#c78b15"/><stop offset="1" stop-color="#c78b15" stop-opacity="0"/></linearGradient><linearGradient x1="1121.33349" y1="626.95341" x2="1105.83376" y2="642.22726" gradientUnits="userSpaceOnUse" id="color-101"><stop offset="0" stop-color="#c78b15"/><stop offset="1" stop-color="#c78b15" stop-opacity="0"/></linearGradient><linearGradient x1="429.90542" y1="178.19338" x2="421.75777" y2="186.2223" gradientUnits="userSpaceOnUse" id="color-102"><stop offset="0" stop-color="#c78b15"/><stop offset="1" stop-color="#c78b15" stop-opacity="0"/></linearGradient><linearGradient x1="-401.97879" y1="-167.60955" x2="-387.86692" y2="-184.17419" gradientUnits="userSpaceOnUse" id="color-103"><stop offset="0" stop-color="#c78b15"/><stop offset="1" stop-color="#c78b15" stop-opacity="0"/></linearGradient><linearGradient x1="-401.97879" y1="-167.60955" x2="-387.86692" y2="-184.17419" gradientUnits="userSpaceOnUse" id="color-104"><stop offset="0" stop-color="#c78b15"/><stop offset="1" stop-color="#c78b15" stop-opacity="0"/></linearGradient><linearGradient x1="325.87585" y1="219.28314" x2="333.29396" y2="210.57571" gradientUnits="userSpaceOnUse" id="color-105"><stop offset="0" stop-color="#c78b15"/><stop offset="1" stop-color="#c78b15" stop-opacity="0"/></linearGradient><linearGradient x1="401.35906" y1="1032.90596" x2="380.68016" y2="1026.12989" gradientUnits="userSpaceOnUse" id="color-106"><stop offset="0" stop-color="#c78b15"/><stop offset="1" stop-color="#c78b15" stop-opacity="0"/></linearGradient><linearGradient x1="401.35906" y1="1032.90596" x2="380.68016" y2="1026.12989" gradientUnits="userSpaceOnUse" id="color-107"><stop offset="0" stop-color="#c78b15"/><stop offset="1" stop-color="#c78b15" stop-opacity="0"/></linearGradient><linearGradient x1="483.33277" y1="212.6995" x2="472.46261" y2="209.13755" gradientUnits="userSpaceOnUse" id="color-108"><stop offset="0" stop-color="#c78b15"/><stop offset="1" stop-color="#c78b15" stop-opacity="0"/></linearGradient><linearGradient x1="492.9548" y1="-646.93778" x2="513.7007" y2="-640.36972" gradientUnits="userSpaceOnUse" id="color-109"><stop offset="0" stop-color="#c78b15"/><stop offset="1" stop-color="#c78b15" stop-opacity="0"/></linearGradient><linearGradient x1="492.9548" y1="-646.93778" x2="513.7007" y2="-640.36972" gradientUnits="userSpaceOnUse" id="color-110"><stop offset="0" stop-color="#c78b15"/><stop offset="1" stop-color="#c78b15" stop-opacity="0"/></linearGradient><linearGradient x1="419.22242" y1="174.05057" x2="430.12781" y2="177.50317" gradientUnits="userSpaceOnUse" id="color-111"><stop offset="0" stop-color="#c78b15"/><stop offset="1" stop-color="#c78b15" stop-opacity="0"/></linearGradient><linearGradient x1="1110.54828" y1="696.7513" x2="1093.55073" y2="710.33863" gradientUnits="userSpaceOnUse" id="color-112"><stop offset="0" stop-color="#c78b15"/><stop offset="1" stop-color="#c78b15" stop-opacity="0"/></linearGradient><linearGradient x1="1110.54828" y1="696.7513" x2="1093.55073" y2="710.33863" gradientUnits="userSpaceOnUse" id="color-113"><stop offset="0" stop-color="#c78b15"/><stop offset="1" stop-color="#c78b15" stop-opacity="0"/></linearGradient><linearGradient x1="469.28846" y1="178.82836" x2="460.35346" y2="185.97073" gradientUnits="userSpaceOnUse" id="color-114"><stop offset="0" stop-color="#c78b15"/><stop offset="1" stop-color="#c78b15" stop-opacity="0"/></linearGradient><linearGradient x1="-209.2297" y1="-343.98278" x2="-191.52624" y2="-356.6366" gradientUnits="userSpaceOnUse" id="color-115"><stop offset="0" stop-color="#c78b15"/><stop offset="1" stop-color="#c78b15" stop-opacity="0"/></linearGradient><linearGradient x1="-209.2297" y1="-343.98278" x2="-191.52624" y2="-356.6366" gradientUnits="userSpaceOnUse" id="color-116"><stop offset="0" stop-color="#c78b15"/><stop offset="1" stop-color="#c78b15" stop-opacity="0"/></linearGradient><linearGradient x1="403.25715" y1="207.66765" x2="412.56324" y2="201.01598" gradientUnits="userSpaceOnUse" id="color-117"><stop offset="0" stop-color="#c78b15"/><stop offset="1" stop-color="#c78b15" stop-opacity="0"/></linearGradient><linearGradient x1="356.30507" y1="-644.56531" x2="377.05097" y2="-637.99725" gradientUnits="userSpaceOnUse" id="color-118"><stop offset="0" stop-color="#c78b15"/><stop offset="1" stop-color="#c78b15" stop-opacity="0"/></linearGradient><linearGradient x1="356.30507" y1="-644.56531" x2="377.05097" y2="-637.99725" gradientUnits="userSpaceOnUse" id="color-119"><stop offset="0" stop-color="#c78b15"/><stop offset="1" stop-color="#c78b15" stop-opacity="0"/></linearGradient><linearGradient x1="282.57269" y1="176.42304" x2="293.47808" y2="179.87564" gradientUnits="userSpaceOnUse" id="color-120"><stop offset="0" stop-color="#c78b15"/><stop offset="1" stop-color="#c78b15" stop-opacity="0"/></linearGradient><linearGradient x1="-496.79895" y1="-14.25935" x2="-486.30364" y2="-33.32188" gradientUnits="userSpaceOnUse" id="color-121"><stop offset="0" stop-color="#c78b15"/><stop offset="1" stop-color="#c78b15" stop-opacity="0"/></linearGradient><linearGradient x1="-496.79895" y1="-14.25935" x2="-486.30364" y2="-33.32188" gradientUnits="userSpaceOnUse" id="color-122"><stop offset="0" stop-color="#c78b15"/><stop offset="1" stop-color="#c78b15" stop-opacity="0"/></linearGradient><linearGradient x1="293.95505" y1="218.47751" x2="299.47206" y2="208.45701" gradientUnits="userSpaceOnUse" id="color-123"><stop offset="0" stop-color="#c78b15"/><stop offset="1" stop-color="#c78b15" stop-opacity="0"/></linearGradient><linearGradient x1="1191.93064" y1="241.75453" x2="1185.2243" y2="262.45615" gradientUnits="userSpaceOnUse" id="color-124"><stop offset="0" stop-color="#c78b15"/><stop offset="1" stop-color="#c78b15" stop-opacity="0"/></linearGradient><linearGradient x1="1191.93064" y1="241.75453" x2="1185.2243" y2="262.45615" gradientUnits="userSpaceOnUse" id="color-125"><stop offset="0" stop-color="#c78b15"/><stop offset="1" stop-color="#c78b15" stop-opacity="0"/></linearGradient><linearGradient x1="371.45251" y1="162.54604" x2="367.92723" y2="173.42814" gradientUnits="userSpaceOnUse" id="color-126"><stop offset="0" stop-color="#c78b15"/><stop offset="1" stop-color="#c78b15" stop-opacity="0"/></linearGradient><linearGradient x1="438.61416" y1="-647.39207" x2="459.36006" y2="-640.82401" gradientUnits="userSpaceOnUse" id="color-127"><stop offset="0" stop-color="#c78b15"/><stop offset="1" stop-color="#c78b15" stop-opacity="0"/></linearGradient><linearGradient x1="438.61416" y1="-647.39207" x2="459.36006" y2="-640.82401" gradientUnits="userSpaceOnUse" id="color-128"><stop offset="0" stop-color="#c78b15"/><stop offset="1" stop-color="#c78b15" stop-opacity="0"/></linearGradient><linearGradient x1="364.88179" y1="173.59628" x2="375.78717" y2="177.04888" gradientUnits="userSpaceOnUse" id="color-129"><stop offset="0" stop-color="#c78b15"/><stop offset="1" stop-color="#c78b15" stop-opacity="0"/></linearGradient><linearGradient x1="500.28442" y1="-647.34475" x2="521.03032" y2="-640.77669" gradientUnits="userSpaceOnUse" id="color-130"><stop offset="0" stop-color="#c78b15"/><stop offset="1" stop-color="#c78b15" stop-opacity="0"/></linearGradient><linearGradient x1="500.28442" y1="-647.34475" x2="521.03032" y2="-640.77669" gradientUnits="userSpaceOnUse" id="color-131"><stop offset="0" stop-color="#c78b15"/><stop offset="1" stop-color="#c78b15" stop-opacity="0"/></linearGradient><linearGradient x1="426.55204" y1="173.64361" x2="437.45743" y2="177.0962" gradientUnits="userSpaceOnUse" id="color-132"><stop offset="0" stop-color="#c78b15"/><stop offset="1" stop-color="#c78b15" stop-opacity="0"/></linearGradient><linearGradient x1="1231.89098" y1="324.6556" x2="1223.16286" y2="344.58929" gradientUnits="userSpaceOnUse" id="color-133"><stop offset="0" stop-color="#c78b15"/><stop offset="1" stop-color="#c78b15" stop-opacity="0"/></linearGradient><linearGradient x1="1231.89098" y1="324.6556" x2="1223.16286" y2="344.58929" gradientUnits="userSpaceOnUse" id="color-134"><stop offset="0" stop-color="#c78b15"/><stop offset="1" stop-color="#c78b15" stop-opacity="0"/></linearGradient><linearGradient x1="423.32749" y1="164.39511" x2="418.73943" y2="174.87354" gradientUnits="userSpaceOnUse" id="color-135"><stop offset="0" stop-color="#c78b15"/><stop offset="1" stop-color="#c78b15" stop-opacity="0"/></linearGradient><linearGradient x1="-404.23394" y1="-232.28732" x2="-388.88839" y2="-247.71607" gradientUnits="userSpaceOnUse" id="color-136"><stop offset="0" stop-color="#c78b15"/><stop offset="1" stop-color="#c78b15" stop-opacity="0"/></linearGradient><linearGradient x1="-404.23394" y1="-232.28732" x2="-388.88839" y2="-247.71607" gradientUnits="userSpaceOnUse" id="color-137"><stop offset="0" stop-color="#c78b15"/><stop offset="1" stop-color="#c78b15" stop-opacity="0"/></linearGradient><linearGradient x1="291.66608" y1="209.50617" x2="299.73269" y2="201.39583" gradientUnits="userSpaceOnUse" id="color-138"><stop offset="0" stop-color="#c78b15"/><stop offset="1" stop-color="#c78b15" stop-opacity="0"/></linearGradient><linearGradient x1="1126.98119" y1="546.93718" x2="1113.03639" y2="563.6427" gradientUnits="userSpaceOnUse" id="color-139"><stop offset="0" stop-color="#c78b15"/><stop offset="1" stop-color="#c78b15" stop-opacity="0"/></linearGradient><linearGradient x1="1126.98119" y1="546.93718" x2="1113.03639" y2="563.6427" gradientUnits="userSpaceOnUse" id="color-140"><stop offset="0" stop-color="#c78b15"/><stop offset="1" stop-color="#c78b15" stop-opacity="0"/></linearGradient><linearGradient x1="395.27775" y1="167.37373" x2="387.94746" y2="176.15522" gradientUnits="userSpaceOnUse" id="color-141"><stop offset="0" stop-color="#c78b15"/><stop offset="1" stop-color="#c78b15" stop-opacity="0"/></linearGradient><linearGradient x1="311.62726" y1="-645.45" x2="332.37316" y2="-638.88194" gradientUnits="userSpaceOnUse" id="color-142"><stop offset="0" stop-color="#c78b15"/><stop offset="1" stop-color="#c78b15" stop-opacity="0"/></linearGradient><linearGradient x1="311.62726" y1="-645.45" x2="332.37316" y2="-638.88194" gradientUnits="userSpaceOnUse" id="color-143"><stop offset="0" stop-color="#c78b15"/><stop offset="1" stop-color="#c78b15" stop-opacity="0"/></linearGradient><linearGradient x1="237.89489" y1="175.53836" x2="248.80027" y2="178.99095" gradientUnits="userSpaceOnUse" id="color-144"><stop offset="0" stop-color="#c78b15"/><stop offset="1" stop-color="#c78b15" stop-opacity="0"/></linearGradient></defs><g transform="translate(-233.08333,-37.05092)"><g data-paper-data="{&quot;isPaintingLayer&quot;:true}" stroke-linejoin="miter" stroke-miterlimit="10" stroke-dasharray="" stroke-dashoffset="0" style="mix-blend-mode: normal"><g fill-rule="nonzero" stroke="#3d2700" stroke-width="5.5"><path d="M235.83333,221.16667v-178h267v178z" fill="#905e00" stroke-linecap="butt"/><path d="M237.08333,97.91667h264.5" fill="none" stroke-linecap="round"/><path d="M237.08333,163.41667h264.5" fill="none" stroke-linecap="round"/></g><g stroke="#000000" stroke-linecap="butt"><g><g><path d="" fill="url(#color-1)" fill-rule="nonzero" stroke-width="0"/><path d="" fill="url(#color-2)" fill-rule="nonzero" stroke-width="0"/><path d="M304.75968,46.38121c0.09654,1.81714 -0.93857,4.50352 -2.73359,5.42232c-1.60864,0.78707 -6.79939,1.94 -9.62264,1.6997c0.32472,3.82065 -14.55968,7.56132 -21.08915,13.63995c-8.98185,8.43933 -5.85131,18.30818 -9.57384,25.19715c-2.03531,3.74195 -5.08402,1.00758 -5.7148,-0.08313c-9.78444,-15.43335 -4.92321,-27.03702 -1.06041,-32.83787c5.07904,-7.63771 15.30686,-10.95209 24.14563,-12.37744c1.76505,-0.26921 5.46519,-0.36905 7.18657,0.09087c2.74118,0.71721 3.16339,1.11719 4.77022,3.19422c0.34274,0.38639 13.63399,-5.51085 13.692,-3.94576z" fill="#fff63b" fill-rule="evenodd" stroke-width="2.5"/><path d="M292.83281,50.63339l10.87016,-3.56194l0.07824,1.07671c-0.52924,0.65986 -1.0137,1.82086 -1.41709,2.21274c-0.92953,0.903 -3.54228,1.49578 -4.74689,1.78997c-1.06927,0.26113 -3.31735,0.25997 -4.50061,0.4c-0.04779,-0.01175 -0.09671,-0.01858 -0.14595,-0.02034z" fill="url(#color-3)" fill-rule="nonzero" stroke-width="0"/></g><g><path d="" fill="url(#color-4)" fill-rule="nonzero" stroke-width="0"/><path d="" fill="url(#color-5)" fill-rule="nonzero" stroke-width="0"/><path d="M249.5972,58.45255c1.45642,-1.09096 4.26464,-1.72495 6.02662,-0.74428c1.54884,0.89905 5.39415,4.57148 6.7648,7.05135c2.99448,-2.39497 14.38209,7.89387 23.06547,9.93906c12.00925,2.77014 18.46937,-5.32069 26.26489,-6.0589c4.24177,-0.38993 3.66516,3.66457 3.10959,4.79544c-7.38339,16.71554 -19.73036,19.12985 -26.69964,19.14626c-9.17227,0.02737 -17.61554,-6.6288 -23.71634,-13.18133c-1.20548,-1.31708 -3.34653,-4.3365 -3.92178,-6.02284c-0.92867,-2.67695 -0.83111,-3.25029 0.00123,-5.74091c0.13047,-0.49975 -12.16319,-8.26511 -10.89481,-9.18385z" fill="#fff63b" fill-rule="evenodd" stroke-width="2.5"/><path d="M259.76486,65.99907l-9.00628,-7.05228l0.85127,-0.66391c0.84274,0.07279 2.07704,-0.17038 2.62708,-0.05311c1.26745,0.27021 3.21333,2.11179 4.12784,2.94922c0.81176,0.74335 2.06121,2.61223 2.83574,3.51768c0.01682,0.04625 0.03836,0.09071 0.06428,0.1326z" fill="url(#color-6)" fill-rule="nonzero" stroke-width="0"/></g><g><path d="" fill="url(#color-7)" fill-rule="nonzero" stroke-width="0"/><path d="" fill="url(#color-8)" fill-rule="nonzero" stroke-width="0"/><path d="M324.5732,82.35185c-1.39566,1.16768 -4.16573,1.95174 -5.97789,1.06722c-1.59493,-0.81448 -5.63213,-4.27485 -7.13412,-6.67746c-2.86139,2.5525 -14.78569,-7.10922 -23.56647,-8.6846c-12.14082,-2.12047 -18.15659,6.30597 -25.90115,7.46224c-4.21467,0.61742 -3.85688,-3.46222 -3.36292,-4.62132c6.47402,-17.08832 18.67333,-20.16296 25.63165,-20.55404c9.15753,-0.52046 17.94645,5.67213 24.39072,11.88719c1.27455,1.25036 3.57483,4.1503 4.23992,5.80328c1.07125,2.62314 1.00466,3.20091 0.30743,5.73268c-0.10341,0.50604 12.58996,7.59921 11.37281,8.58482z" fill="#fff63b" fill-rule="evenodd" stroke-width="2.5"/><path d="M314.01452,75.36289l9.37241,6.55787l-0.81434,0.70871c-0.84544,-0.02738 -2.06488,0.2818 -2.62042,0.19428c-1.28014,-0.20167 -3.32222,-1.93597 -4.28043,-2.72303c-0.85055,-0.69864 -2.19867,-2.49764 -3.02076,-3.36013c-0.01928,-0.04528 -0.04318,-0.08852 -0.07131,-0.12896z" fill="url(#color-9)" fill-rule="nonzero" stroke-width="0"/></g><g><path d="" fill="url(#color-10)" fill-rule="nonzero" stroke-width="0"/><path d="" fill="url(#color-11)" fill-rule="nonzero" stroke-width="0"/><path d="M441.42635,47.38121c0.09654,1.81715 -0.93858,4.50352 -2.73359,5.42232c-1.60863,0.78707 -6.79939,1.94 -9.62264,1.6997c0.32472,3.82065 -14.55968,7.56132 -21.08916,13.63995c-8.98185,8.43932 -5.85131,18.30818 -9.57384,25.19715c-2.0353,3.74196 -5.08402,1.00758 -5.71479,-0.08313c-9.78445,-15.43336 -4.92321,-27.03701 -1.06041,-32.83787c5.07904,-7.63771 15.30685,-10.95209 24.14563,-12.37745c1.76505,-0.26922 5.46519,-0.36904 7.18657,0.09087c2.74118,0.71721 3.16339,1.11719 4.77022,3.19422c0.34274,0.38639 13.63399,-5.51085 13.692,-3.94576z" fill="#fff63b" fill-rule="evenodd" stroke-width="2.5"/><path d="M429.49948,51.63339l10.87016,-3.56194l0.07824,1.07671c-0.52924,0.65986 -1.0137,1.82086 -1.41709,2.21274c-0.92953,0.903 -3.54228,1.49578 -4.74689,1.78997c-1.06927,0.26113 -3.31734,0.25997 -4.50061,0.4c-0.04779,-0.01175 -0.09672,-0.01858 -0.14595,-0.02034z" fill="url(#color-12)" fill-rule="nonzero" stroke-width="0"/></g><g><path d="" fill="url(#color-13)" fill-rule="nonzero" stroke-width="0"/><path d="" fill="url(#color-14)" fill-rule="nonzero" stroke-width="0"/><path d="M434.53303,94.13117c-1.76325,0.44976 -4.6001,-0.04047 -5.85195,-1.62134c-1.08623,-1.42383 -3.23124,-6.28922 -3.54725,-9.105c-3.68355,1.06504 -10.2606,-12.80148 -17.49795,-18.01728c-10.03174,-7.15961 -19.09862,-2.16099 -26.58219,-4.46561c-4.06753,-1.26487 -1.9816,-4.78913 -1.03518,-5.62087c13.2239,-12.61159 25.55378,-10.11149 31.99763,-7.45667c8.48295,3.48868 13.73201,12.87167 16.85703,21.26154c0.60893,1.67842 1.42986,5.28772 1.31518,7.06579c-0.16774,2.82848 -0.47751,3.32071 -2.20051,5.30244c-0.31197,0.41164 8.06877,12.29431 6.54519,12.65703z" fill="#fff63b" fill-rule="evenodd" stroke-width="2.5"/><path d="M428.03224,83.26512l5.61737,9.96459l-1.04067,0.28713c-0.75056,-0.3901 -1.98385,-0.63835 -2.44699,-0.95739c-1.06723,-0.73516 -2.15913,-3.18171 -2.68303,-4.30561c-0.46504,-0.99763 -0.90319,-3.2026 -1.27174,-4.33568c0.00219,-0.04916 -0.00068,-0.09849 -0.00857,-0.14711z" fill="url(#color-15)" fill-rule="nonzero" stroke-width="0"/></g><g><path d="" fill="url(#color-16)" fill-rule="nonzero" stroke-width="0"/><path d="" fill="url(#color-17)" fill-rule="nonzero" stroke-width="0"/><path d="M346.87668,38.43886c1.81646,-0.10866 4.50968,0.90851 5.44044,2.69735c0.79779,1.60335 1.98532,6.78629 1.76387,9.61108c3.8184,-0.3502 7.6583,14.5089 13.78036,20.99768c8.49907,8.92534 18.34681,5.72903 25.26046,9.40551c3.75545,2.01029 1.04148,5.07718 -0.04499,5.71522c-15.36773,9.8872 -27.00356,5.1035 -32.83006,1.27948c-7.67143,-5.02797 -11.05398,-15.23344 -12.53827,-24.06251c-0.28099,-1.76321 -0.4055,-5.4626 0.04292,-7.18702c0.6989,-2.7459 1.09606,-3.17077 3.16232,-4.79143c0.3841,-0.34531 -5.6017,-13.59692 -4.03703,-13.66537z" fill="#fff63b" fill-rule="evenodd" stroke-width="2.5"/><path d="M351.20834,50.33709l-3.63439,-10.84615l1.07616,-0.08542c0.66338,0.52483 1.82759,1.00153 2.22215,1.40229c0.90918,0.92348 1.51938,3.53223 1.8216,4.73484c0.26826,1.0675 0.2821,3.31554 0.43002,4.49784c-0.01143,0.04787 -0.01793,0.09684 -0.01937,0.14608z" fill="url(#color-18)" fill-rule="nonzero" stroke-width="0"/></g><g><path d="" fill="url(#color-19)" fill-rule="nonzero" stroke-width="0"/><path d="" fill="url(#color-20)" fill-rule="nonzero" stroke-width="0"/><path d="M359.09301,45.38121c0.09654,1.81714 -0.93858,4.50351 -2.73359,5.42232c-1.60863,0.78707 -6.79939,1.94 -9.62264,1.6997c0.32472,3.82065 -14.55968,7.56132 -21.08916,13.63995c-8.98185,8.43933 -5.85131,18.30818 -9.57384,25.19715c-2.0353,3.74195 -5.08402,1.00758 -5.71479,-0.08313c-9.78445,-15.43335 -4.92321,-27.03701 -1.06041,-32.83787c5.07904,-7.63771 15.30685,-10.95209 24.14563,-12.37744c1.76505,-0.26922 5.46519,-0.36904 7.18657,0.09087c2.74118,0.71721 3.16339,1.11719 4.77022,3.19422c0.34274,0.38639 13.63399,-5.51085 13.692,-3.94576z" fill="#fff63b" fill-rule="evenodd" stroke-width="2.5"/><path d="M347.16614,49.63339l10.87016,-3.56194l0.07824,1.07671c-0.52924,0.65986 -1.0137,1.82086 -1.41709,2.21274c-0.92953,0.903 -3.54228,1.49578 -4.74689,1.78997c-1.06927,0.26113 -3.31734,0.25997 -4.50061,0.4c-0.04779,-0.01175 -0.09672,-0.01858 -0.14595,-0.02034z" fill="url(#color-21)" fill-rule="nonzero" stroke-width="0"/></g><g><path d="" fill="url(#color-22)" fill-rule="nonzero" stroke-width="0"/><path d="" fill="url(#color-23)" fill-rule="nonzero" stroke-width="0"/><path d="M297.42635,46.04788c0.09654,1.81714 -0.93858,4.50351 -2.73359,5.42232c-1.60863,0.78707 -6.79939,1.94 -9.62264,1.6997c0.32472,3.82065 -14.55968,7.56132 -21.08916,13.63995c-8.98185,8.43932 -5.85131,18.30818 -9.57384,25.19715c-2.0353,3.74195 -5.08402,1.00758 -5.71479,-0.08313c-9.78445,-15.43336 -4.92321,-27.03701 -1.06041,-32.83787c5.07904,-7.63771 15.30685,-10.95209 24.14563,-12.37744c1.76505,-0.26922 5.46519,-0.36904 7.18657,0.09087c2.74118,0.71721 3.16339,1.11719 4.77022,3.19422c0.34274,0.38639 13.63399,-5.51085 13.692,-3.94576z" fill="#fff63b" fill-rule="evenodd" stroke-width="2.5"/><path d="M285.49948,50.30005l10.87016,-3.56194l0.07824,1.07671c-0.52924,0.65986 -1.0137,1.82086 -1.41709,2.21274c-0.92953,0.903 -3.54228,1.49578 -4.74689,1.78997c-1.06927,0.26113 -3.31734,0.25997 -4.50061,0.4c-0.04779,-0.01175 -0.09672,-0.01858 -0.14595,-0.02034z" fill="url(#color-24)" fill-rule="nonzero" stroke-width="0"/></g><g><path d="" fill="url(#color-25)" fill-rule="nonzero" stroke-width="0"/><path d="" fill="url(#color-26)" fill-rule="nonzero" stroke-width="0"/><path d="M294.97416,41.28636c1.7967,-0.28843 4.57759,0.45637 5.68132,2.14399c0.953,1.51624 2.64914,6.5557 2.70918,9.38853c3.76478,-0.7275 9.06067,13.67706 15.79659,19.52609c9.34305,8.03762 18.82488,3.87957 26.06933,6.85162c3.93645,1.62759 1.54031,4.94873 0.52254,5.69146c-14.3104,11.36382 -26.36361,7.75875 -32.54092,4.53198c-8.13263,-4.24165 -12.51151,-14.06095 -14.86487,-22.69908c-0.45462,-1.72661 -0.94573,-5.39537 -0.6707,-7.15578c0.42289,-2.80172 0.7759,-3.26391 2.67109,-5.08167c0.34793,-0.38173 -6.9237,-12.97372 -5.37356,-13.19715z" fill="#fff63b" fill-rule="evenodd" stroke-width="2.5"/><path d="M300.46548,52.69586l-4.69306,-10.43182l1.06237,-0.19182c0.7122,0.45638 1.91798,0.81517 2.35037,1.17479c0.99636,0.82868 1.8625,3.36396 2.2826,4.53064c0.3729,1.0356 0.60982,3.27116 0.87437,4.43294c-0.00662,0.04877 -0.00823,0.09814 -0.00477,0.14728z" fill="url(#color-27)" fill-rule="nonzero" stroke-width="0"/></g><g><path d="" fill="url(#color-28)" fill-rule="nonzero" stroke-width="0"/><path d="" fill="url(#color-29)" fill-rule="nonzero" stroke-width="0"/><path d="M436.49319,83.81346c-1.57083,0.91861 -4.43286,1.22977 -6.07215,0.05545c-1.43679,-1.06903 -4.84043,-5.15417 -5.92076,-7.77359c-3.24696,2.03962 -13.3932,-9.47522 -21.78834,-12.49276c-11.61724,-4.11528 -18.95391,3.19004 -26.78285,3.0387c-4.25862,-0.09403 -3.22555,-4.05688 -2.54522,-5.11739c9.23289,-15.76952 21.77409,-16.76684 28.7002,-15.99214c9.1161,1.01386 16.74934,8.58532 22.06702,15.78795c1.0482,1.44539 2.83271,4.6883 3.21285,6.42905c0.61883,2.76505 0.45683,3.32362 -0.65281,5.70368c-0.18635,0.48171 11.14651,9.59221 9.78205,10.36106z" fill="#fff63b" fill-rule="evenodd" stroke-width="2.5"/><path d="M427.24776,75.16168l8.14765,8.02892l-0.92112,0.563c-0.82903,-0.16797 -2.08296,-0.06647 -2.61613,-0.2454c-1.22859,-0.41232 -2.95288,-2.46285 -3.76643,-3.39867c-0.72214,-0.83068 -1.75141,-2.8293 -2.41816,-3.8168c-0.01146,-0.04786 -0.02781,-0.09448 -0.04881,-0.13904z" fill="url(#color-30)" fill-rule="nonzero" stroke-width="0"/></g><g><path d="" fill="url(#color-31)" fill-rule="nonzero" stroke-width="0"/><path d="" fill="url(#color-32)" fill-rule="nonzero" stroke-width="0"/><path d="M323.17407,45.33933c1.6448,-0.77843 4.52305,-0.83937 6.05394,0.47313c1.33831,1.19 4.37358,5.55581 5.22188,8.2593c3.41212,-1.74935 12.51791,10.6047 20.61863,14.3413c11.21508,5.11055 19.1596,-1.52865 26.94567,-0.69664c4.23429,0.46424 2.8603,4.32217 2.09027,5.31945c-10.57006,14.90629 -23.15048,14.80856 -29.98291,13.43411c-8.9933,-1.80326 -15.93875,-10.01021 -20.60951,-17.64824c-0.91846,-1.53112 -2.41401,-4.91701 -2.64124,-6.68423c-0.37588,-2.80841 -0.16589,-3.35077 1.14664,-5.62524c0.22756,-0.46367 -10.26955,-10.52575 -8.84337,-11.17295z" fill="#fff63b" fill-rule="evenodd" stroke-width="2.5"/><path d="M331.63158,54.7628l-7.41811,-8.70744l0.96661,-0.48071c0.81127,0.23947 2.06927,0.24747 2.58485,0.47212c1.18805,0.51766 2.72737,2.71046 3.4564,3.71352c0.64712,0.89037 1.49857,2.97097 2.07686,4.01274c0.00725,0.04868 0.01949,0.09654 0.03653,0.14276z" fill="url(#color-33)" fill-rule="nonzero" stroke-width="0"/></g><g><path d="" fill="url(#color-34)" fill-rule="nonzero" stroke-width="0"/><path d="" fill="url(#color-35)" fill-rule="nonzero" stroke-width="0"/><path d="M486.09301,46.04788c0.09654,1.81714 -0.93858,4.50351 -2.73359,5.42232c-1.60863,0.78707 -6.79939,1.94 -9.62264,1.6997c0.32472,3.82065 -14.55968,7.56132 -21.08916,13.63995c-8.98185,8.43933 -5.85131,18.30818 -9.57384,25.19714c-2.0353,3.74196 -5.08402,1.00758 -5.71479,-0.08312c-9.78445,-15.43335 -4.92321,-27.03701 -1.06041,-32.83787c5.07904,-7.63771 15.30685,-10.95209 24.14563,-12.37744c1.76505,-0.26922 5.46519,-0.36904 7.18657,0.09087c2.74118,0.71721 3.16339,1.11719 4.77022,3.19422c0.34274,0.38639 13.63399,-5.51085 13.692,-3.94576z" fill="#fff63b" fill-rule="evenodd" stroke-width="2.5"/><path d="M474.16614,50.30005l10.87016,-3.56194l0.07824,1.07671c-0.52924,0.65986 -1.0137,1.82086 -1.41709,2.21274c-0.92953,0.903 -3.54228,1.49578 -4.74689,1.78997c-1.06927,0.26113 -3.31734,0.25997 -4.50061,0.4c-0.04779,-0.01175 -0.09672,-0.01858 -0.14595,-0.02034z" fill="url(#color-36)" fill-rule="nonzero" stroke-width="0"/></g></g><g><g><path d="" fill="url(#color-37)" fill-rule="nonzero" stroke-width="0"/><path d="" fill="url(#color-38)" fill-rule="nonzero" stroke-width="0"/><path d="M420.41431,94.22844c-0.07829,-1.81802 0.98376,-4.49386 2.78791,-5.39459c1.61646,-0.77088 6.81853,-1.87161 9.63922,-1.60298c-0.28633,-3.82372 14.63488,-7.41472 21.22508,-13.42747c9.06615,-8.3487 6.03489,-18.24849 9.82641,-25.09973c2.07278,-3.72133 5.09388,-0.95647 5.71367,0.14051c9.62896,15.53084 4.65143,27.08509 0.73057,32.84686c-5.15549,7.58632 -15.41607,10.79782 -24.26872,12.13433c-1.76766,0.25148 -5.46862,0.31414 -7.18529,-0.16304c-2.73384,-0.7447 -3.15201,-1.1489 -4.73791,-3.24197c-0.33884,-0.38982 -13.68865,5.37365 -13.73094,3.80805z" fill="#fff63b" fill-rule="evenodd" stroke-width="2.5"/><path d="M432.38329,90.09626l-10.90538,3.45259l-0.06742,-1.07744c0.53584,-0.65451 1.03194,-1.81059 1.43924,-2.1984c0.93855,-0.89362 3.55713,-1.46013 4.76463,-1.74221c1.07184,-0.25038 3.31979,-0.22664 4.5044,-0.35479c0.04767,0.01223 0.09653,0.01955 0.14574,0.0218z" fill="url(#color-39)" fill-rule="nonzero" stroke-width="0"/></g><g><path d="" fill="url(#color-40)" fill-rule="nonzero" stroke-width="0"/><path d="" fill="url(#color-41)" fill-rule="nonzero" stroke-width="0"/><path d="M475.69524,82.71169c-1.4673,1.07627 -4.28174,1.68203 -6.03379,0.68372c-1.53973,-0.91456 -5.34797,-4.62542 -6.69364,-7.11894c-3.01839,2.36478 -14.30208,-8.03791 -22.96449,-10.17021c-11.98083,-2.8906 -18.52187,5.13493 -26.32441,5.79482c-4.24548,0.34731 -3.62817,-3.70119 -3.06128,-4.82642c7.55089,-16.64055 19.92148,-18.93074 26.89058,-18.87715c9.17208,0.06475 17.54808,6.80538 23.58277,13.41885c1.19219,1.32912 3.30281,4.36989 3.8611,6.06193c0.90173,2.68614 0.79843,3.25848 -0.05888,5.74061c-0.13548,0.49841 12.07957,8.38684 10.80203,9.2928z" fill="#fff63b" fill-rule="evenodd" stroke-width="2.5"/><path d="M465.60388,75.06344l8.93501,7.14237l-0.85789,0.65532c-0.84197,-0.08125 -2.07865,0.14951 -2.62748,0.02673c-1.26467,-0.28293 -3.19196,-2.14395 -4.09801,-2.99053c-0.80425,-0.75147 -2.03488,-2.6328 -2.80027,-3.54598c-0.01635,-0.04642 -0.03744,-0.0911 -0.06294,-0.13324z" fill="url(#color-42)" fill-rule="nonzero" stroke-width="0"/></g><g><path d="" fill="url(#color-43)" fill-rule="nonzero" stroke-width="0"/><path d="" fill="url(#color-44)" fill-rule="nonzero" stroke-width="0"/><path d="M400.96304,58.06062c1.40731,-1.1536 4.18512,-1.9098 5.9883,-1.00713c1.58667,0.83046 5.58891,4.3312 7.0667,6.74877c2.88688,-2.52363 14.71355,7.25735 23.47806,8.92084c12.11891,2.24229 18.21901,-6.12331 25.97479,-7.20174c4.22066,-0.57506 3.82192,3.50077 3.31634,4.65486c-6.64531,17.02245 -18.87489,19.97441 -25.83678,20.29559c-9.1623,0.42847 -17.88859,-5.85208 -24.27011,-12.13154c-1.26193,-1.2631 -3.53297,-4.18599 -4.18142,-5.84557c-1.04485,-2.63377 -0.97246,-3.21084 -0.24984,-5.73548c0.10849,-0.50498 -12.51301,-7.72527 -11.28602,-8.6986z" fill="#fff63b" fill-rule="evenodd" stroke-width="2.5"/><path d="M411.45099,65.15527l-9.30608,-6.65166l0.82142,-0.7005c0.84512,0.03586 2.06761,-0.26105 2.62224,-0.16795c1.27805,0.21452 3.30261,1.96924 4.25286,2.76588c0.84349,0.70714 2.17348,2.51959 2.98686,3.3903c0.01882,0.04547 0.04229,0.08895 0.07002,0.12966z" fill="url(#color-45)" fill-rule="nonzero" stroke-width="0"/></g><g><path d="" fill="url(#color-46)" fill-rule="nonzero" stroke-width="0"/><path d="" fill="url(#color-47)" fill-rule="nonzero" stroke-width="0"/><path d="M283.76458,91.85596c-0.07829,-1.81802 0.98376,-4.49386 2.78791,-5.39459c1.61646,-0.77088 6.81853,-1.87161 9.63922,-1.60298c-0.28633,-3.82372 14.63488,-7.41472 21.22508,-13.42747c9.06615,-8.3487 6.03489,-18.24849 9.82641,-25.09973c2.07278,-3.72133 5.09388,-0.95647 5.71367,0.14051c9.62896,15.53084 4.65143,27.08509 0.73057,32.84686c-5.15549,7.58632 -15.41607,10.79782 -24.26872,12.13433c-1.76766,0.25148 -5.46862,0.31414 -7.18529,-0.16304c-2.73384,-0.7447 -3.15201,-1.1489 -4.73791,-3.24197c-0.33884,-0.38982 -13.68865,5.37365 -13.73094,3.80805z" fill="#fff63b" fill-rule="evenodd" stroke-width="2.5"/><path d="M295.73356,87.72378l-10.90538,3.45259l-0.06742,-1.07744c0.53584,-0.65451 1.03194,-1.81059 1.43924,-2.1984c0.93855,-0.89362 3.55713,-1.46013 4.76463,-1.74221c1.07184,-0.25038 3.31979,-0.22664 4.5044,-0.35479c0.04767,0.01223 0.09653,0.01955 0.14574,0.0218z" fill="url(#color-48)" fill-rule="nonzero" stroke-width="0"/></g><g><path d="" fill="url(#color-49)" fill-rule="nonzero" stroke-width="0"/><path d="" fill="url(#color-50)" fill-rule="nonzero" stroke-width="0"/><path d="M291.12706,45.17759c1.76768,-0.43203 4.59946,0.08667 5.83537,1.68003c1.07188,1.43466 3.16791,6.32136 3.45563,9.14017c3.69406,-1.02799 10.13152,12.90388 17.31612,18.19211c9.95933,7.26 19.07595,2.35269 26.536,4.73235c4.05462,1.30566 1.9334,4.80878 0.97868,5.63098c-13.34989,12.47815 -25.65404,9.85435 -32.0709,7.13495c-8.44749,-3.57369 -13.60205,-13.00893 -16.64265,-21.42976c-0.59204,-1.68445 -1.37668,-5.30181 -1.24415,-7.07864c0.19614,-2.82666 0.51084,-3.31575 2.25366,-5.28007c0.31609,-0.40848 -7.9449,-12.37472 -6.41775,-12.72212z" fill="#fff63b" fill-rule="evenodd" stroke-width="2.5"/><path d="M297.51838,56.10837l-5.51701,-10.0205l1.0435,-0.27666c0.7466,0.39761 1.97733,0.65824 2.43725,0.98192c1.05979,0.74584 2.12707,3.20324 2.63966,4.33234c0.455,1.00225 0.87098,3.2115 1.22813,4.34823c-0.00268,0.04914 -0.00031,0.09849 0.0071,0.14719z" fill="url(#color-51)" fill-rule="nonzero" stroke-width="0"/></g><g><path d="" fill="url(#color-52)" fill-rule="nonzero" stroke-width="0"/><path d="" fill="url(#color-53)" fill-rule="nonzero" stroke-width="0"/><path d="M378.21968,101.74741c-1.81746,0.09041 -4.50033,-0.95375 -5.41308,-2.75185c-0.78164,-1.61128 -1.91706,-6.80589 -1.66725,-9.62831c-3.82172,0.31184 -7.5122,-14.58508 -13.56878,-21.13502c-8.409,-9.01024 -18.28835,-5.91299 -25.16473,-9.65872c-3.73507,-2.04791 -0.99043,-5.08739 0.10239,-5.71448c15.46625,-9.73237 27.05345,-4.83205 32.84125,-0.94971c7.62055,5.10475 10.90044,15.34369 12.29599,24.18722c0.26326,1.76595 0.35062,5.4664 -0.1151,7.18622c-0.72645,2.73875 -1.12784,3.1596 -3.21028,4.75943c-0.38755,0.34144 5.46487,13.65249 3.89959,13.70522z" fill="#fff63b" fill-rule="evenodd" stroke-width="2.5"/><path d="M374.00773,89.80627l3.52528,10.88211l-1.07697,0.07461c-0.65807,-0.53146 -1.81743,-1.01983 -2.20795,-1.42454c-0.89986,-0.93257 -1.48383,-3.54731 -1.77396,-4.7529c-0.25753,-1.07015 -0.24879,-3.3182 -0.38483,-4.50193c0.01191,-0.04775 0.01891,-0.09666 0.02083,-0.14588z" fill="url(#color-54)" fill-rule="nonzero" stroke-width="0"/></g><g><path d="" fill="url(#color-55)" fill-rule="nonzero" stroke-width="0"/><path d="" fill="url(#color-56)" fill-rule="nonzero" stroke-width="0"/><path d="M366.07368,94.68272c-0.07829,-1.81802 0.98376,-4.49386 2.78791,-5.39459c1.61646,-0.77088 6.81853,-1.87161 9.63922,-1.60298c-0.28633,-3.82372 14.63488,-7.41472 21.22508,-13.42747c9.06615,-8.3487 6.03489,-18.24849 9.82641,-25.09973c2.07278,-3.72133 5.09388,-0.95647 5.71367,0.14051c9.62896,15.53084 4.65143,27.08509 0.73057,32.84686c-5.15549,7.58632 -15.41607,10.79782 -24.26872,12.13433c-1.76766,0.25148 -5.46862,0.31414 -7.18529,-0.16304c-2.73384,-0.7447 -3.15201,-1.1489 -4.73791,-3.24197c-0.33884,-0.38982 -13.68865,5.37365 -13.73094,3.80805z" fill="#fff63b" fill-rule="evenodd" stroke-width="2.5"/><path d="M378.04265,90.55054l-10.90538,3.45259l-0.06742,-1.07744c0.53584,-0.65451 1.03194,-1.81059 1.43924,-2.1984c0.93855,-0.89362 3.55713,-1.46013 4.76463,-1.74221c1.07184,-0.25038 3.31979,-0.22664 4.5044,-0.35479c0.04767,0.01223 0.09653,0.01955 0.14574,0.0218z" fill="url(#color-57)" fill-rule="nonzero" stroke-width="0"/></g><g><path d="" fill="url(#color-58)" fill-rule="nonzero" stroke-width="0"/><path d="" fill="url(#color-59)" fill-rule="nonzero" stroke-width="0"/><path d="M427.74393,94.6354c-0.07829,-1.81802 0.98376,-4.49386 2.78791,-5.39459c1.61646,-0.77088 6.81853,-1.87161 9.63922,-1.60298c-0.28633,-3.82372 14.63488,-7.41472 21.22508,-13.42747c9.06615,-8.3487 6.03489,-18.24849 9.82641,-25.09973c2.07278,-3.72133 5.09388,-0.95647 5.71367,0.14051c9.62896,15.53084 4.65143,27.08509 0.73057,32.84686c-5.15549,7.58632 -15.41607,10.79782 -24.26872,12.13433c-1.76766,0.25148 -5.46862,0.31414 -7.18529,-0.16304c-2.73384,-0.7447 -3.15201,-1.1489 -4.73791,-3.24197c-0.33884,-0.38982 -13.68865,5.37365 -13.73094,3.80805z" fill="#fff63b" fill-rule="evenodd" stroke-width="2.5"/><path d="M439.7129,90.50322l-10.90538,3.45259l-0.06742,-1.07744c0.53584,-0.65451 1.03194,-1.81059 1.43924,-2.1984c0.93855,-0.89362 3.55713,-1.46013 4.76463,-1.74221c1.07184,-0.25038 3.31979,-0.22664 4.5044,-0.35479c0.04767,0.01223 0.09653,0.01955 0.14574,0.0218z" fill="url(#color-60)" fill-rule="nonzero" stroke-width="0"/></g><g><path d="" fill="url(#color-61)" fill-rule="nonzero" stroke-width="0"/><path d="" fill="url(#color-62)" fill-rule="nonzero" stroke-width="0"/><path d="M430.14817,99.4213c-1.79951,0.27038 -4.57278,-0.50232 -5.6595,-2.20094c-0.93772,-1.52573 -2.58317,-6.58198 -2.61476,-9.41526c-3.7719,0.68965 -8.92286,-13.76737 -15.5997,-19.68375c-9.26185,-8.13105 -18.78497,-4.06843 -25.99921,-7.11309c-3.91991,-1.66704 -1.49054,-4.96394 -0.46536,-5.69642c14.4238,-11.21953 26.44021,-7.49359 32.58479,-4.20494c8.08962,4.32311 12.36967,14.18589 14.63616,22.84722c0.43726,1.73109 0.8915,5.4046 0.5988,7.16215c-0.451,2.79733 -0.80865,3.25596 -2.72199,5.05459c-0.35174,0.37822 6.79306,13.0426 5.24075,13.25045z" fill="#fff63b" fill-rule="evenodd" stroke-width="2.5"/><path d="M424.77171,87.95723l4.58806,10.47843l-1.06424,0.18114c-0.70758,-0.46351 -1.9097,-0.83439 -2.33845,-1.19834c-0.98799,-0.83864 -1.82862,-3.3825 -2.23698,-4.55334c-0.36248,-1.0393 -0.57693,-3.27712 -0.82981,-4.44149c0.00711,-0.0487 0.00922,-0.09806 0.00625,-0.14723z" fill="url(#color-63)" fill-rule="nonzero" stroke-width="0"/></g><g><path d="" fill="url(#color-64)" fill-rule="nonzero" stroke-width="0"/><path d="" fill="url(#color-65)" fill-rule="nonzero" stroke-width="0"/><path d="M289.06338,55.47509c1.57998,-0.90278 4.44499,-1.18519 6.0724,0.00553c1.42598,1.08341 4.78842,5.20252 5.84239,7.83266c3.26728,-2.00691 13.29737,9.60925 21.66178,12.71095c11.57533,4.23174 18.98499,-2.99953 26.81201,-2.76957c4.25746,0.13679 3.18464,4.08907 2.4937,5.14269c-9.39079,15.676 -21.94138,16.54733 -28.85936,15.7031c-9.10546,-1.10536 -16.66228,-8.75309 -21.90735,-16.00877c-1.03364,-1.45584 -2.78548,-4.71652 -3.14813,-6.46099c-0.59103,-2.77113 -0.42343,-3.32804 0.71006,-5.69683c0.19118,-0.47981 -11.04961,-9.70367 -9.6775,-10.45877z" fill="#fff63b" fill-rule="evenodd" stroke-width="2.5"/><path d="M298.22145,64.21929l-8.06661,-8.11034l0.92673,-0.55372c0.82731,0.17629 2.08219,0.08739 2.61353,0.27167c1.22439,0.42463 2.92799,2.49238 3.7321,3.43632c0.71377,0.8379 1.7229,2.84675 2.37971,3.84089c0.01098,0.04797 0.02686,0.09476 0.04741,0.13953z" fill="url(#color-66)" fill-rule="nonzero" stroke-width="0"/></g><g><path d="" fill="url(#color-67)" fill-rule="nonzero" stroke-width="0"/><path d="" fill="url(#color-68)" fill-rule="nonzero" stroke-width="0"/><path d="M401.99039,95.08533c-1.65254,0.76188 -4.53125,0.79391 -6.04888,-0.5339c-1.3263,-1.20338 -4.31756,-5.59945 -5.13867,-8.31133c-3.42952,1.71499 -12.41077,-10.72989 -20.47356,-14.54765c-11.16319,-5.22293 -19.17399,1.33615 -26.95131,0.42599c-4.22941,-0.50674 -2.81675,-4.35068 -2.03675,-5.34017c10.71923,-14.79939 23.29803,-14.57532 30.11631,-13.13232c8.97474,1.89348 15.83742,10.16978 20.43124,17.85433c0.90303,1.54026 2.36451,4.94101 2.57398,6.71042c0.34766,2.81204 0.13223,3.35227 -1.20308,5.61344c-0.23221,0.46136 10.16332,10.62835 8.73071,11.26119z" fill="#fff63b" fill-rule="evenodd" stroke-width="2.5"/><path d="M393.62794,85.5774l7.33028,8.7815l-0.97139,0.47098c-0.80882,-0.24761 -2.06669,-0.26824 -2.57998,-0.49806c-1.18279,-0.52957 -2.70002,-2.73771 -3.41894,-3.74804c-0.63815,-0.89682 -1.46866,-2.98587 -2.03646,-4.0334c-0.00676,-0.04875 -0.01851,-0.09673 -0.03509,-0.14312z" fill="url(#color-69)" fill-rule="nonzero" stroke-width="0"/></g><g><path d="" fill="url(#color-70)" fill-rule="nonzero" stroke-width="0"/><path d="" fill="url(#color-71)" fill-rule="nonzero" stroke-width="0"/><path d="M239.08678,92.74065c-0.07829,-1.81802 0.98376,-4.49386 2.78791,-5.39459c1.61646,-0.77088 6.81853,-1.87161 9.63922,-1.60298c-0.28633,-3.82372 14.63488,-7.41472 21.22508,-13.42747c9.06615,-8.3487 6.03489,-18.24849 9.82641,-25.09973c2.07278,-3.72133 5.09388,-0.95647 5.71367,0.14051c9.62896,15.53084 4.65143,27.08509 0.73057,32.84686c-5.15549,7.58632 -15.41607,10.79782 -24.26872,12.13433c-1.76766,0.25148 -5.46862,0.31414 -7.18529,-0.16304c-2.73384,-0.7447 -3.15201,-1.1489 -4.73791,-3.24197c-0.33884,-0.38982 -13.68865,5.37365 -13.73094,3.80805z" fill="#fff63b" fill-rule="evenodd" stroke-width="2.5"/><path d="M251.05575,88.60847l-10.90538,3.45259l-0.06742,-1.07744c0.53584,-0.65451 1.03194,-1.81059 1.43924,-2.1984c0.93855,-0.89362 3.55713,-1.46013 4.76463,-1.74221c1.07184,-0.25038 3.31979,-0.22664 4.5044,-0.35479c0.04767,0.01223 0.09653,0.01955 0.14574,0.0218z" fill="url(#color-72)" fill-rule="nonzero" stroke-width="0"/></g></g></g><g data-paper-data="{&quot;index&quot;:null}" stroke="#000000" stroke-linecap="butt"><g><g><path d="" fill="url(#color-73)" fill-rule="nonzero" stroke-width="0"/><path d="" fill="url(#color-74)" fill-rule="nonzero" stroke-width="0"/><path d="M302.75969,217.13591c-0.05801,1.56509 -13.34926,-4.33215 -13.692,-3.94576c-1.60683,2.07703 -2.02904,2.47701 -4.77022,3.19422c-1.72138,0.45992 -5.42152,0.36009 -7.18657,0.09087c-8.83877,-1.42535 -19.06659,-4.73974 -24.14563,-12.37745c-3.86281,-5.80085 -8.72404,-17.40452 1.06041,-32.83787c0.63078,-1.09071 3.67949,-3.82508 5.71479,-0.08312c3.72253,6.88897 0.59199,16.75782 9.57384,25.19715c6.52948,6.07863 21.41388,9.8193 21.08916,13.63995c2.82325,-0.2403 8.014,0.91263 9.62264,1.6997c1.79501,0.91881 2.83013,3.60518 2.73359,5.42232z" fill="#fff63b" fill-rule="evenodd" stroke-width="2.5"/><path d="M290.97068,210.9866c0.04923,-0.00176 0.09816,-0.00859 0.14595,-0.02034c1.18326,0.14004 3.43133,0.13887 4.50061,0.40001c1.20461,0.29419 3.81736,0.88697 4.74689,1.78997c0.40339,0.39188 0.88785,1.55288 1.41709,2.21274l-0.07824,1.07671l-10.87016,-3.56194z" fill="url(#color-75)" fill-rule="nonzero" stroke-width="0"/></g><g><path d="" fill="url(#color-76)" fill-rule="nonzero" stroke-width="0"/><path d="" fill="url(#color-77)" fill-rule="nonzero" stroke-width="0"/><path d="M247.59721,205.06459c-1.26838,-0.91874 11.02528,-8.6841 10.89481,-9.18385c-0.83234,-2.49062 -0.92989,-3.06397 -0.00122,-5.74092c0.57526,-1.68635 2.7163,-4.70576 3.92179,-6.02284c6.1008,-6.55254 14.54407,-13.2087 23.71634,-13.18134c6.96929,0.01641 19.31626,2.43072 26.69965,19.14626c0.55557,1.13087 1.13218,5.18536 -3.1096,4.79543c-7.79552,-0.73821 -14.25563,-8.82904 -26.26488,-6.0589c-8.68338,2.04519 -20.07098,12.33403 -23.06547,9.93906c-1.37065,2.47988 -5.21596,6.1523 -6.7648,7.05136c-1.76198,0.98067 -4.5702,0.34667 -6.02661,-0.74429z" fill="#fff63b" fill-rule="evenodd" stroke-width="2.5"/><path d="M259.26477,198.68785c-0.02592,0.04189 -0.04746,0.08636 -0.06428,0.13261c-0.77452,0.90544 -2.02398,2.77432 -2.83574,3.51767c-0.91451,0.83743 -2.86039,2.67901 -4.12784,2.94922c-0.55004,0.11727 -1.78434,-0.1259 -2.62708,-0.05311l-0.85126,-0.6639l9.00628,-7.05228z" fill="url(#color-78)" fill-rule="nonzero" stroke-width="0"/></g><g><path d="" fill="url(#color-79)" fill-rule="nonzero" stroke-width="0"/><path d="" fill="url(#color-80)" fill-rule="nonzero" stroke-width="0"/><path d="M322.5732,181.16527c1.21715,0.98561 -11.47622,8.07878 -11.37281,8.58481c0.69723,2.53177 0.76381,3.10954 -0.30743,5.73268c-0.66509,1.65298 -2.96537,4.55292 -4.23992,5.80328c-6.44427,6.21506 -15.23319,12.40765 -24.39072,11.88719c-6.95832,-0.39108 -19.15764,-3.46571 -25.63166,-20.55404c-0.49397,-1.1591 -0.85175,-5.23873 3.36292,-4.62132c7.74455,1.15627 13.76033,9.58271 25.90115,7.46223c8.78078,-1.57538 20.70507,-11.2371 23.56646,-8.6846c1.502,-2.4026 5.53919,-5.86298 7.13412,-6.67746c1.81216,-0.88452 4.58223,-0.10046 5.97788,1.06721z" fill="#fff63b" fill-rule="evenodd" stroke-width="2.5"/><path d="M310.57967,186.90549c0.02814,-0.04044 0.05203,-0.08368 0.07131,-0.12896c0.82209,-0.86249 2.17021,-2.6615 3.02076,-3.36013c0.95821,-0.78706 3.00029,-2.52135 4.28043,-2.72303c0.55554,-0.08752 1.77499,0.22166 2.62042,0.19428l0.81434,0.70871l-9.37241,6.55787z" fill="url(#color-81)" fill-rule="nonzero" stroke-width="0"/></g><g><path d="" fill="url(#color-82)" fill-rule="nonzero" stroke-width="0"/><path d="" fill="url(#color-83)" fill-rule="nonzero" stroke-width="0"/><path d="M439.42635,216.13591c-0.05801,1.56509 -13.34926,-4.33215 -13.692,-3.94576c-1.60683,2.07703 -2.02904,2.47701 -4.77022,3.19422c-1.72138,0.45992 -5.42152,0.36009 -7.18657,0.09087c-8.83877,-1.42535 -19.06659,-4.73974 -24.14563,-12.37745c-3.8628,-5.80085 -8.72404,-17.40451 1.06041,-32.83787c0.63078,-1.09071 3.67949,-3.82508 5.71479,-0.08312c3.72253,6.88897 0.59199,16.75782 9.57384,25.19715c6.52948,6.07863 21.41387,9.8193 21.08915,13.63995c2.82325,-0.2403 8.014,0.91263 9.62264,1.6997c1.79501,0.91881 2.83013,3.60518 2.73359,5.42232z" fill="#fff63b" fill-rule="evenodd" stroke-width="2.5"/><path d="M427.63734,209.9866c0.04923,-0.00176 0.09816,-0.00859 0.14595,-0.02034c1.18326,0.14004 3.43133,0.13887 4.5006,0.40001c1.20461,0.29419 3.81736,0.88697 4.74689,1.78997c0.40339,0.39188 0.88785,1.55288 1.41709,2.21274l-0.07824,1.07671l-10.87016,-3.56194z" fill="url(#color-84)" fill-rule="nonzero" stroke-width="0"/></g><g><path d="" fill="url(#color-85)" fill-rule="nonzero" stroke-width="0"/><path d="" fill="url(#color-86)" fill-rule="nonzero" stroke-width="0"/><path d="M432.53303,169.38595c1.52359,0.36272 -6.85717,12.2454 -6.5452,12.65703c1.72301,1.98173 2.03278,2.47395 2.20052,5.30244c0.11468,1.77807 -0.70626,5.38737 -1.31518,7.06579c-3.12502,8.38986 -8.37408,17.77286 -16.85703,21.26154c-6.44385,2.65482 -18.77373,5.15491 -31.99763,-7.45667c-0.94642,-0.83175 -3.03235,-4.356 1.03518,-5.62087c7.48357,-2.30462 16.55045,2.694 26.58219,-4.46561c7.23735,-5.21581 13.81441,-19.08232 17.49795,-18.01729c0.31601,-2.81578 2.46102,-7.68118 3.54725,-9.10501c1.25185,-1.58087 4.0887,-2.0711 5.85195,-1.62134z" fill="#fff63b" fill-rule="evenodd" stroke-width="2.5"/><path d="M424.19861,179.74608c0.0079,-0.04863 0.01076,-0.09795 0.00858,-0.14711c0.36855,-1.13308 0.8067,-3.33805 1.27174,-4.33568c0.52391,-1.1239 1.6158,-3.57046 2.68303,-4.30562c0.46314,-0.31904 1.69644,-0.5673 2.44699,-0.95739l1.04066,0.28713l-5.61737,9.96459z" fill="url(#color-87)" fill-rule="nonzero" stroke-width="0"/></g><g><path d="" fill="url(#color-88)" fill-rule="nonzero" stroke-width="0"/><path d="" fill="url(#color-89)" fill-rule="nonzero" stroke-width="0"/><path d="M344.87668,225.07827c-1.56467,-0.06845 4.42113,-13.32006 4.03703,-13.66537c-2.06626,-1.62066 -2.46341,-2.04552 -3.16232,-4.79143c-0.44842,-1.72441 -0.32391,-5.4238 -0.04292,-7.18701c1.48429,-8.82907 4.86685,-19.03455 12.53827,-24.06251c5.8265,-3.82402 17.46233,-8.60772 32.83006,1.27948c1.08647,0.63804 3.80045,3.70493 0.045,5.71523c-6.91366,3.67648 -16.7614,0.48016 -25.26047,9.4055c-6.12206,6.48878 -9.96195,21.34789 -13.78035,20.99768c0.22145,2.82479 -0.96608,8.00773 -1.76387,9.61108c-0.93076,1.78884 -3.62398,2.80601 -5.44044,2.69735z" fill="#fff63b" fill-rule="evenodd" stroke-width="2.5"/><path d="M351.10452,213.33055c0.00143,0.04924 0.00793,0.09822 0.01936,0.14608c-0.14792,1.1823 -0.16176,3.43033 -0.43003,4.49784c-0.30222,1.20262 -0.91242,3.81136 -1.8216,4.73484c-0.39456,0.40076 -1.55877,0.87747 -2.22215,1.40229l-1.07617,-0.08542l3.63439,-10.84616z" fill="url(#color-90)" fill-rule="nonzero" stroke-width="0"/></g><g><path d="" fill="url(#color-91)" fill-rule="nonzero" stroke-width="0"/><path d="" fill="url(#color-92)" fill-rule="nonzero" stroke-width="0"/><path d="M357.09302,218.13591c-0.05801,1.56509 -13.34926,-4.33215 -13.692,-3.94576c-1.60683,2.07703 -2.02905,2.47701 -4.77023,3.19422c-1.72138,0.45991 -5.42152,0.36008 -7.18657,0.09087c-8.83877,-1.42535 -19.06659,-4.73974 -24.14563,-12.37744c-3.8628,-5.80086 -8.72404,-17.40451 1.06041,-32.83787c0.63078,-1.09071 3.67949,-3.82508 5.7148,-0.08312c3.72253,6.88897 0.59199,16.75782 9.57384,25.19715c6.52948,6.07863 21.41388,9.8193 21.08916,13.63995c2.82325,-0.2403 8.014,0.91263 9.62264,1.6997c1.79501,0.91881 2.83013,3.60518 2.73359,5.42232z" fill="#fff63b" fill-rule="evenodd" stroke-width="2.5"/><path d="M345.30401,211.9866c0.04923,-0.00176 0.09816,-0.00859 0.14595,-0.02034c1.18326,0.14004 3.43133,0.13887 4.50061,0.40001c1.20461,0.29419 3.81736,0.88697 4.74689,1.78997c0.40339,0.39188 0.88785,1.55288 1.41709,2.21274l-0.07824,1.07671l-10.87016,-3.56194z" fill="url(#color-93)" fill-rule="nonzero" stroke-width="0"/></g><g><path d="" fill="url(#color-94)" fill-rule="nonzero" stroke-width="0"/><path d="" fill="url(#color-95)" fill-rule="nonzero" stroke-width="0"/><path d="M295.42635,217.46925c-0.05801,1.56509 -13.34926,-4.33216 -13.692,-3.94576c-1.60683,2.07703 -2.02904,2.47701 -4.77022,3.19422c-1.72138,0.45991 -5.42152,0.36008 -7.18657,0.09087c-8.83877,-1.42535 -19.06659,-4.73973 -24.14563,-12.37744c-3.86281,-5.80086 -8.72404,-17.40452 1.0604,-32.83787c0.63078,-1.0907 3.67949,-3.82508 5.7148,-0.08312c3.72253,6.88897 0.59199,16.75782 9.57384,25.19715c6.52948,6.07863 21.41387,9.8193 21.08915,13.63995c2.82325,-0.2403 8.014,0.91263 9.62264,1.6997c1.79501,0.9188 2.83013,3.60517 2.73359,5.42232z" fill="#fff63b" fill-rule="evenodd" stroke-width="2.5"/><path d="M283.63734,211.31993c0.04923,-0.00176 0.09816,-0.00859 0.14595,-0.02034c1.18326,0.14003 3.43133,0.13887 4.5006,0.4c1.20461,0.29419 3.81736,0.88697 4.74689,1.78997c0.40339,0.39187 0.88785,1.55288 1.41709,2.21274l-0.07824,1.07671l-10.87016,-3.56194z" fill="url(#color-96)" fill-rule="nonzero" stroke-width="0"/></g><g><path d="" fill="url(#color-97)" fill-rule="nonzero" stroke-width="0"/><path d="" fill="url(#color-98)" fill-rule="nonzero" stroke-width="0"/><path d="M292.97417,222.23077c-1.55014,-0.22343 5.72148,-12.81542 5.37356,-13.19715c-1.89519,-1.81775 -2.24821,-2.27995 -2.6711,-5.08167c-0.27504,-1.76041 0.21608,-5.42917 0.6707,-7.15578c2.35336,-8.63813 6.73224,-18.45743 14.86487,-22.69908c6.1773,-3.22678 18.23053,-6.83185 32.54092,4.53197c1.01777,0.74273 3.41391,4.06387 -0.52254,5.69146c-7.24444,2.97205 -16.72628,-1.186 -26.06933,6.85162c-6.73592,5.84903 -12.03181,20.2536 -15.79659,19.52609c-0.06004,2.83282 -1.75618,7.87229 -2.70918,9.38853c-1.10373,1.68762 -3.88462,2.43243 -5.68132,2.14399z" fill="#fff63b" fill-rule="evenodd" stroke-width="2.5"/><path d="M300.33736,211.15926c-0.00347,0.04914 -0.00185,0.09852 0.00477,0.14729c-0.26455,1.16177 -0.50147,3.39733 -0.87437,4.43293c-0.4201,1.16667 -1.28624,3.70197 -2.2826,4.53064c-0.43239,0.35962 -1.63817,0.7184 -2.35037,1.17479l-1.06237,-0.19182l4.69306,-10.43183z" fill="url(#color-99)" fill-rule="nonzero" stroke-width="0"/></g><g><path d="" fill="url(#color-100)" fill-rule="nonzero" stroke-width="0"/><path d="" fill="url(#color-101)" fill-rule="nonzero" stroke-width="0"/><path d="M434.49319,179.70366c1.36446,0.76884 -9.96839,9.87934 -9.78204,10.36105c1.10964,2.38005 1.27164,2.93863 0.65281,5.70368c-0.38015,1.74074 -2.16465,4.98365 -3.21285,6.42905c-5.31767,7.20264 -12.95091,14.77409 -22.06702,15.78795c-6.92611,0.7747 -19.46732,-0.22262 -28.7002,-15.99214c-0.68033,-1.0605 -1.7134,-5.02336 2.54522,-5.11738c7.82894,-0.15134 15.16561,7.15398 26.78285,3.0387c8.39514,-3.01753 18.54138,-14.53238 21.78834,-12.49276c1.08033,-2.61942 4.48397,-6.70455 5.92076,-7.77359c1.63929,-1.17432 4.50132,-0.86315 6.07215,0.05545z" fill="#fff63b" fill-rule="evenodd" stroke-width="2.5"/><path d="M423.62477,187.36345c0.021,-0.04456 0.03735,-0.09118 0.04881,-0.13905c0.66676,-0.9875 1.69601,-2.98611 2.41816,-3.8168c0.81355,-0.93582 2.53783,-2.98636 3.76642,-3.39867c0.53317,-0.17894 1.7871,-0.07744 2.61613,-0.24541l0.92112,0.563l-8.14765,8.02892z" fill="url(#color-102)" fill-rule="nonzero" stroke-width="0"/></g><g><path d="" fill="url(#color-103)" fill-rule="nonzero" stroke-width="0"/><path d="" fill="url(#color-104)" fill-rule="nonzero" stroke-width="0"/><path d="M321.17407,218.1778c-1.42618,-0.64719 9.07092,-10.70927 8.84337,-11.17294c-1.31254,-2.27447 -1.52253,-2.81683 -1.14664,-5.62524c0.22723,-1.76721 1.72278,-5.15311 2.64124,-6.68423c4.67076,-7.63803 11.61621,-15.84499 20.60952,-17.64824c6.83243,-1.37445 19.41285,-1.47219 29.98291,13.43411c0.77003,0.99728 2.14401,4.85521 -2.09027,5.31945c-7.78607,0.83201 -15.73059,-5.8072 -26.94567,-0.69664c-8.10072,3.73659 -17.2065,16.09064 -20.61863,14.3413c-0.8483,2.7035 -3.88356,7.06931 -5.22188,8.25931c-1.53089,1.3125 -4.40913,1.25157 -6.05394,0.47313z" fill="#fff63b" fill-rule="evenodd" stroke-width="2.5"/><path d="M331.33474,209.60134c-0.01704,0.04622 -0.02928,0.09409 -0.03653,0.14276c-0.5783,1.04177 -1.42975,3.12237 -2.07686,4.01274c-0.72903,1.00306 -2.26835,3.19586 -3.4564,3.71352c-0.51558,0.22465 -1.77359,0.23265 -2.58486,0.47212l-0.96661,-0.48071l7.4181,-8.70744z" fill="url(#color-105)" fill-rule="nonzero" stroke-width="0"/></g><g><path d="" fill="url(#color-106)" fill-rule="nonzero" stroke-width="0"/><path d="" fill="url(#color-107)" fill-rule="nonzero" stroke-width="0"/><path d="M484.09302,217.46925c-0.05801,1.56509 -13.34926,-4.33216 -13.692,-3.94576c-1.60683,2.07703 -2.02905,2.47701 -4.77023,3.19422c-1.72138,0.45991 -5.42152,0.36008 -7.18657,0.09087c-8.83877,-1.42535 -19.06659,-4.73973 -24.14563,-12.37744c-3.8628,-5.80086 -8.72404,-17.40452 1.06041,-32.83787c0.63078,-1.0907 3.67949,-3.82508 5.7148,-0.08312c3.72253,6.88897 0.59199,16.75782 9.57384,25.19715c6.52948,6.07863 21.41388,9.8193 21.08916,13.63995c2.82325,-0.2403 8.014,0.91263 9.62264,1.6997c1.79501,0.9188 2.83013,3.60517 2.73359,5.42232z" fill="#fff63b" fill-rule="evenodd" stroke-width="2.5"/><path d="M472.30401,211.31993c0.04923,-0.00176 0.09816,-0.00859 0.14595,-0.02034c1.18326,0.14003 3.43133,0.13887 4.50061,0.4c1.20461,0.29419 3.81736,0.88697 4.74689,1.78997c0.40339,0.39187 0.88785,1.55288 1.41709,2.21274l-0.07824,1.07671l-10.87016,-3.56194z" fill="url(#color-108)" fill-rule="nonzero" stroke-width="0"/></g></g><g><g><path d="" fill="url(#color-109)" fill-rule="nonzero" stroke-width="0"/><path d="" fill="url(#color-110)" fill-rule="nonzero" stroke-width="0"/><path d="M418.41431,169.2887c0.04229,-1.5656 13.39209,4.19788 13.73093,3.80806c1.58589,-2.09306 2.00407,-2.49726 4.73791,-3.24197c1.71668,-0.47718 5.41763,-0.41451 7.18529,-0.16304c8.85264,1.33651 19.11323,4.54802 24.26871,12.13433c3.92086,5.76177 8.89839,17.31602 -0.73056,32.84686c-0.61979,1.09699 -3.64089,3.86184 -5.71367,0.14052c-3.79152,-6.85124 -0.76026,-16.75103 -9.82641,-25.09973c-6.59019,-6.01275 -21.51141,-9.60374 -21.22508,-13.42746c-2.8207,0.26864 -8.02276,-0.83211 -9.63922,-1.60298c-1.80415,-0.90073 -2.86619,-3.57657 -2.78791,-5.39459z" fill="#fff63b" fill-rule="evenodd" stroke-width="2.5"/><path d="M430.26448,175.31931c-0.04921,0.00225 -0.09807,0.00957 -0.14574,0.0218c-1.1846,-0.12815 -3.43255,-0.1044 -4.50439,-0.35479c-1.2075,-0.28208 -3.82608,-0.84859 -4.76463,-1.74221c-0.40731,-0.38781 -0.9034,-1.54388 -1.43924,-2.1984l0.06742,-1.07745l10.90539,3.4526z" fill="url(#color-111)" fill-rule="nonzero" stroke-width="0"/></g><g><path d="" fill="url(#color-112)" fill-rule="nonzero" stroke-width="0"/><path d="" fill="url(#color-113)" fill-rule="nonzero" stroke-width="0"/><path d="M473.69524,180.80542c1.27754,0.90596 -10.9375,8.79439 -10.80203,9.2928c0.8573,2.48213 0.96061,3.05447 0.05888,5.74061c-0.55829,1.69204 -2.66891,4.73281 -3.8611,6.06193c-6.03469,6.61347 -14.41069,13.3541 -23.58277,13.41885c-6.9691,0.05358 -19.33969,-2.23661 -26.89058,-18.87715c-0.56689,-1.12523 -1.18419,-5.17374 3.06128,-4.82643c7.80254,0.65989 14.34358,8.68543 26.32441,5.79482c8.6624,-2.13229 19.9461,-12.53499 22.96448,-10.17021c1.34568,-2.49352 5.15391,-6.20437 6.69364,-7.11893c1.75204,-0.99831 4.56649,-0.39256 6.03379,0.68372z" fill="#fff63b" fill-rule="evenodd" stroke-width="2.5"/><path d="M462.0923,187.29901c0.0255,-0.04215 0.04659,-0.08683 0.06294,-0.13325c0.7654,-0.91317 1.99602,-2.7945 2.80027,-3.54597c0.90605,-0.84657 2.83335,-2.70761 4.09801,-2.99053c0.54883,-0.12279 1.78551,0.10798 2.62748,0.02673l0.85789,0.65532l-8.935,7.14238z" fill="url(#color-114)" fill-rule="nonzero" stroke-width="0"/></g><g><path d="" fill="url(#color-115)" fill-rule="nonzero" stroke-width="0"/><path d="" fill="url(#color-116)" fill-rule="nonzero" stroke-width="0"/><path d="M398.96304,205.45651c-1.22699,-0.97333 11.39451,-8.19362 11.28602,-8.6986c-0.72262,-2.52464 -0.795,-3.10171 0.24984,-5.73548c0.64846,-1.65958 2.9195,-4.58247 4.18143,-5.84557c6.38153,-6.27946 15.10781,-12.56002 24.27011,-12.13155c6.9619,0.32118 19.19147,3.27314 25.83678,20.29559c0.50558,1.15408 0.90433,5.22991 -3.31634,4.65485c-7.75578,-1.07843 -13.85588,-9.44402 -25.97478,-7.20174c-8.76451,1.66349 -20.59118,11.44447 -23.47806,8.92084c-1.47779,2.41756 -5.48003,5.91831 -7.0667,6.74876c-1.80318,0.90267 -4.58099,0.14648 -5.9883,-1.00713z" fill="#fff63b" fill-rule="evenodd" stroke-width="2.5"/><path d="M410.89832,199.59613c-0.02772,0.04071 -0.05119,0.08419 -0.07002,0.12966c-0.81338,0.8707 -2.14337,2.68315 -2.98686,3.3903c-0.95025,0.79665 -2.97481,2.55136 -4.25286,2.76588c-0.55464,0.09309 -1.77713,-0.20382 -2.62224,-0.16795l-0.82142,-0.7005l9.30608,-6.65166z" fill="url(#color-117)" fill-rule="nonzero" stroke-width="0"/></g><g><path d="" fill="url(#color-118)" fill-rule="nonzero" stroke-width="0"/><path d="" fill="url(#color-119)" fill-rule="nonzero" stroke-width="0"/><path d="M281.76458,171.66117c0.04229,-1.5656 13.39209,4.19788 13.73093,3.80805c1.58589,-2.09306 2.00407,-2.49726 4.73791,-3.24196c1.71668,-0.47718 5.41763,-0.41451 7.18529,-0.16304c8.85264,1.33651 19.11323,4.54802 24.26871,12.13433c3.92086,5.76177 8.89839,17.31602 -0.73057,32.84687c-0.61979,1.09699 -3.64089,3.86184 -5.71367,0.14052c-3.79152,-6.85124 -0.76026,-16.75104 -9.82641,-25.09973c-6.59019,-6.01275 -21.51141,-9.60375 -21.22508,-13.42746c-2.8207,0.26864 -8.02276,-0.8321 -9.63922,-1.60298c-1.80415,-0.90073 -2.86619,-3.57657 -2.7879,-5.3946z" fill="#fff63b" fill-rule="evenodd" stroke-width="2.5"/><path d="M293.61475,177.69178c-0.04921,0.00225 -0.09807,0.00957 -0.14574,0.0218c-1.1846,-0.12815 -3.43256,-0.1044 -4.5044,-0.35478c-1.2075,-0.28208 -3.82607,-0.84859 -4.76462,-1.74221c-0.40731,-0.38781 -0.9034,-1.54388 -1.43924,-2.1984l0.06742,-1.07744l10.90539,3.45259z" fill="url(#color-120)" fill-rule="nonzero" stroke-width="0"/></g><g><path d="" fill="url(#color-121)" fill-rule="nonzero" stroke-width="0"/><path d="" fill="url(#color-122)" fill-rule="nonzero" stroke-width="0"/><path d="M289.12706,218.33955c-1.52715,-0.3474 6.73385,-12.31365 6.41775,-12.72213c-1.74282,-1.96432 -2.05751,-2.45341 -2.25365,-5.28007c-0.13253,-1.77683 0.65211,-5.39418 1.24415,-7.07864c3.04061,-8.42083 8.19516,-17.85607 16.64265,-21.42976c6.41686,-2.7194 18.72102,-5.3432 32.07091,7.13495c0.95472,0.8222 3.07594,4.32533 -0.97868,5.63098c-7.46005,2.37966 -16.57667,-2.52765 -26.536,4.73235c-7.1846,5.28823 -13.62207,19.22009 -17.31612,18.1921c-0.28772,2.81881 -2.38375,7.70551 -3.45563,9.14017c-1.23591,1.59336 -4.06769,2.11206 -5.83537,1.68003z" fill="#fff63b" fill-rule="evenodd" stroke-width="2.5"/><path d="M297.35701,207.89623c-0.00741,0.0487 -0.00978,0.09805 -0.0071,0.14719c-0.35715,1.13673 -0.77313,3.34598 -1.22813,4.34823c-0.51259,1.1291 -1.57986,3.5865 -2.63966,4.33234c-0.45992,0.32368 -1.69065,0.5843 -2.43725,0.98192l-1.0435,-0.27666l5.51701,-10.0205z" fill="url(#color-123)" fill-rule="nonzero" stroke-width="0"/></g><g><path d="" fill="url(#color-124)" fill-rule="nonzero" stroke-width="0"/><path d="" fill="url(#color-125)" fill-rule="nonzero" stroke-width="0"/><path d="M376.21968,161.76971c1.56528,0.05273 -4.28714,13.36379 -3.89959,13.70522c2.08243,1.59983 2.48383,2.02068 3.21028,4.75943c0.46571,1.71983 0.37836,5.42027 0.11509,7.18622c-1.39555,8.84353 -4.67544,19.08246 -12.29599,24.18722c-5.7878,3.88234 -17.375,8.78266 -32.84125,-0.9497c-1.09283,-0.62709 -3.83746,-3.66657 -0.10239,-5.71448c6.87639,-3.74573 16.75574,-0.64848 25.16474,-9.65872c6.05658,-6.54993 9.74706,-21.44685 13.56878,-21.13502c-0.24981,-2.82243 0.8856,-8.01703 1.66725,-9.62831c0.91275,-1.7981 3.59562,-2.84226 5.41308,-2.75185z" fill="#fff63b" fill-rule="evenodd" stroke-width="2.5"/><path d="M370.11013,173.57938c-0.00193,-0.04922 -0.00893,-0.09813 -0.02084,-0.14588c0.13605,-1.18373 0.12731,-3.43179 0.38484,-4.50193c0.29012,-1.20559 0.8741,-3.82033 1.77396,-4.7529c0.39051,-0.4047 1.54988,-0.89308 2.20795,-1.42454l1.07697,0.07461l-3.52528,10.88211z" fill="url(#color-126)" fill-rule="nonzero" stroke-width="0"/></g><g><path d="" fill="url(#color-127)" fill-rule="nonzero" stroke-width="0"/><path d="" fill="url(#color-128)" fill-rule="nonzero" stroke-width="0"/><path d="M364.07367,168.83441c0.04229,-1.56559 13.39209,4.19788 13.73093,3.80806c1.58589,-2.09306 2.00407,-2.49726 4.73791,-3.24196c1.71668,-0.47718 5.41763,-0.41451 7.18529,-0.16304c8.85264,1.33651 19.11323,4.54802 24.26872,12.13433c3.92086,5.76177 8.89839,17.31602 -0.73057,32.84686c-0.61979,1.09698 -3.6409,3.86184 -5.71368,0.14052c-3.79152,-6.85124 -0.76025,-16.75104 -9.8264,-25.09973c-6.59019,-6.01275 -21.51141,-9.60375 -21.22508,-13.42747c-2.8207,0.26864 -8.02276,-0.8321 -9.63922,-1.60297c-1.80415,-0.90073 -2.8662,-3.57657 -2.78791,-5.3946z" fill="#fff63b" fill-rule="evenodd" stroke-width="2.5"/><path d="M375.92385,174.86502c-0.04921,0.00225 -0.09807,0.00957 -0.14574,0.0218c-1.1846,-0.12814 -3.43255,-0.1044 -4.50439,-0.35478c-1.2075,-0.28208 -3.82608,-0.84859 -4.76463,-1.74221c-0.40731,-0.38781 -0.9034,-1.54388 -1.43924,-2.1984l0.06743,-1.07744l10.90538,3.45259z" fill="url(#color-129)" fill-rule="nonzero" stroke-width="0"/></g><g><path d="" fill="url(#color-130)" fill-rule="nonzero" stroke-width="0"/><path d="" fill="url(#color-131)" fill-rule="nonzero" stroke-width="0"/><path d="M425.74393,168.88173c0.04229,-1.56559 13.39209,4.19788 13.73093,3.80806c1.58589,-2.09306 2.00407,-2.49727 4.73791,-3.24197c1.71668,-0.47718 5.41763,-0.41451 7.18529,-0.16303c8.85264,1.33651 19.11323,4.54802 24.26872,12.13433c3.92086,5.76177 8.89839,17.31602 -0.73057,32.84686c-0.61979,1.09698 -3.6409,3.86184 -5.71368,0.14051c-3.79152,-6.85124 -0.76025,-16.75103 -9.8264,-25.09972c-6.59019,-6.01275 -21.51141,-9.60375 -21.22508,-13.42747c-2.8207,0.26864 -8.02276,-0.8321 -9.63922,-1.60298c-1.80415,-0.90073 -2.8662,-3.57657 -2.78791,-5.39459z" fill="#fff63b" fill-rule="evenodd" stroke-width="2.5"/><path d="M437.5941,174.91234c-0.04921,0.00225 -0.09807,0.00957 -0.14574,0.0218c-1.1846,-0.12814 -3.43255,-0.1044 -4.50439,-0.35479c-1.2075,-0.28208 -3.82608,-0.84859 -4.76463,-1.74221c-0.40731,-0.38781 -0.9034,-1.54389 -1.43924,-2.1984l0.06743,-1.07744l10.90538,3.4526z" fill="url(#color-132)" fill-rule="nonzero" stroke-width="0"/></g><g><path d="" fill="url(#color-133)" fill-rule="nonzero" stroke-width="0"/><path d="" fill="url(#color-134)" fill-rule="nonzero" stroke-width="0"/><path d="M428.14817,164.09582c1.55231,0.20785 -5.59249,12.87224 -5.24075,13.25045c1.91334,1.79863 2.27099,2.25726 2.72199,5.05459c0.2927,1.75756 -0.16154,5.43106 -0.5988,7.16215c-2.26649,8.66133 -6.54654,18.52412 -14.63616,22.84722c-6.14459,3.28865 -18.16099,7.01459 -32.58479,-4.20494c-1.02519,-0.73247 -3.45455,-4.02939 0.46535,-5.69642c7.21423,-3.04466 16.73735,1.01795 25.99921,-7.11309c6.67684,-5.91639 11.8278,-20.37341 15.59969,-19.68375c0.03159,-2.83328 1.67703,-7.88952 2.61476,-9.41526c1.08673,-1.69862 3.85999,-2.47132 5.6595,-2.20095z" fill="#fff63b" fill-rule="evenodd" stroke-width="2.5"/><path d="M420.89654,175.24072c0.00297,-0.04917 0.00087,-0.09854 -0.00625,-0.14723c0.25288,-1.16438 0.46733,-3.40219 0.82981,-4.44149c0.40837,-1.17083 1.249,-3.7147 2.23698,-4.55334c0.42876,-0.36395 1.63088,-0.73482 2.33846,-1.19833l1.06424,0.18114l-4.58806,10.47843z" fill="url(#color-135)" fill-rule="nonzero" stroke-width="0"/></g><g><path d="" fill="url(#color-136)" fill-rule="nonzero" stroke-width="0"/><path d="" fill="url(#color-137)" fill-rule="nonzero" stroke-width="0"/><path d="M287.06338,208.04204c-1.37212,-0.75511 9.86867,-9.97895 9.6775,-10.45877c-1.13349,-2.36879 -1.30109,-2.92571 -0.71006,-5.69683c0.36264,-1.74447 2.11449,-5.00514 3.14813,-6.46099c5.24507,-7.25567 12.80188,-14.90341 21.90735,-16.00877c6.91798,-0.84422 19.46857,0.02711 28.85936,15.70311c0.69094,1.05362 1.76376,5.00589 -2.4937,5.14268c-7.82702,0.22996 -15.23668,-7.00131 -26.81201,-2.76957c-8.36441,3.1017 -18.3945,14.71785 -21.66178,12.71095c-1.05397,2.63014 -4.41641,6.74925 -5.84238,7.83266c-1.62741,1.19072 -4.49243,0.90832 -6.0724,0.00553z" fill="#fff63b" fill-rule="evenodd" stroke-width="2.5"/><path d="M297.85432,200.27348c-0.02055,0.04477 -0.03643,0.09155 -0.04741,0.13953c-0.65681,0.99415 -1.66594,3.003 -2.37971,3.8409c-0.80411,0.94395 -2.50772,3.01169 -3.7321,3.43632c-0.53134,0.18428 -1.78623,0.09539 -2.61354,0.27167l-0.92673,-0.55373l8.06662,-8.11034z" fill="url(#color-138)" fill-rule="nonzero" stroke-width="0"/></g><g><path d="" fill="url(#color-139)" fill-rule="nonzero" stroke-width="0"/><path d="" fill="url(#color-140)" fill-rule="nonzero" stroke-width="0"/><path d="M399.99039,168.43179c1.43261,0.63284 -8.96292,10.79984 -8.73071,11.26119c1.33531,2.26117 1.55074,2.8014 1.20308,5.61344c-0.20947,1.76941 -1.67095,5.17016 -2.57398,6.71042c-4.59382,7.68456 -11.4565,15.96085 -20.43124,17.85433c-6.81828,1.443 -19.39709,1.66707 -30.11631,-13.13232c-0.78001,-0.9895 -2.19266,-4.83343 2.03674,-5.34017c7.77732,-0.91016 15.78812,5.64892 26.95131,0.42599c8.06279,-3.81776 17.04403,-16.26264 20.47355,-14.54765c0.8211,-2.71188 3.81237,-7.10795 5.13867,-8.31133c1.51763,-1.32781 4.39634,-1.29578 6.04888,-0.53391z" fill="#fff63b" fill-rule="evenodd" stroke-width="2.5"/><path d="M389.91637,177.10986c0.01657,-0.04639 0.02833,-0.09438 0.03509,-0.14312c0.56781,-1.04753 1.39832,-3.13657 2.03646,-4.03339c0.71892,-1.01033 2.23615,-3.21848 3.41894,-3.74804c0.5133,-0.22982 1.77116,-0.25045 2.57998,-0.49806l0.97139,0.47098l-7.33028,8.7815z" fill="url(#color-141)" fill-rule="nonzero" stroke-width="0"/></g><g><path d="" fill="url(#color-142)" fill-rule="nonzero" stroke-width="0"/><path d="" fill="url(#color-143)" fill-rule="nonzero" stroke-width="0"/><path d="M237.08677,170.77648c0.04229,-1.56559 13.39209,4.19788 13.73093,3.80806c1.58589,-2.09306 2.00407,-2.49727 4.73791,-3.24197c1.71668,-0.47718 5.41763,-0.41451 7.18529,-0.16304c8.85264,1.33651 19.11323,4.54802 24.26872,12.13433c3.92086,5.76177 8.89839,17.31602 -0.73057,32.84686c-0.61979,1.09699 -3.6409,3.86184 -5.71368,0.14052c-3.79152,-6.85124 -0.76025,-16.75103 -9.8264,-25.09973c-6.59019,-6.01275 -21.51141,-9.60375 -21.22508,-13.42746c-2.8207,0.26863 -8.02276,-0.83211 -9.63922,-1.60298c-1.80415,-0.90073 -2.8662,-3.57657 -2.78791,-5.39459z" fill="#fff63b" fill-rule="evenodd" stroke-width="2.5"/><path d="M248.93695,176.80709c-0.04921,0.00226 -0.09807,0.00958 -0.14574,0.02181c-1.18461,-0.12815 -3.43255,-0.1044 -4.50439,-0.35479c-1.2075,-0.28208 -3.82608,-0.84858 -4.76463,-1.7422c-0.40731,-0.38781 -0.9034,-1.54389 -1.43924,-2.1984l0.06742,-1.07744l10.90539,3.45259z" fill="url(#color-144)" fill-rule="nonzero" stroke-width="0"/></g></g></g><text transform="translate(242.66667,127.33333) scale(0.61538,0.68779)" font-size="40" xml:space="preserve" fill="#3d2700" fill-rule="nonzero" stroke="none" stroke-width="1" stroke-linecap="butt" stroke-linejoin="miter" stroke-miterlimit="10" stroke-dasharray="" stroke-dashoffset="0" font-family="Pixel" font-weight="normal" text-anchor="start" style="mix-blend-mode: normal"><tspan x="0" dy="0">Browze Items</tspan></text><path d="M280,146.83333h32l-8.66667,-8.66667" fill="none" fill-rule="nonzero" stroke="#3d2700" stroke-width="2.5" stroke-linecap="round"/><path d="M280,148.83333h32l-8.66667,8.66667" data-paper-data="{&quot;index&quot;:null}" fill="none" fill-rule="nonzero" stroke="#3d2700" stroke-width="2.5" stroke-linecap="round"/></g></g></svg>