<svg version="1.1" xmlns="http://www.w3.org/2000/svg" xmlns:xlink="http://www.w3.org/1999/xlink" width="108.03021" height="97.19635" viewBox="0,0,108.03021,97.19635"><defs><linearGradient x1="411.37656" y1="138.31302" x2="411.37656" y2="175.83346" gradientUnits="userSpaceOnUse" id="color-1"><stop offset="0" stop-color="#b34d00"/><stop offset="1" stop-color="#cacaca"/></linearGradient><linearGradient x1="411.37656" y1="138.31302" x2="411.37656" y2="175.83346" gradientUnits="userSpaceOnUse" id="color-2"><stop offset="0" stop-color="#c99292"/><stop offset="1" stop-color="#b34d00"/></linearGradient><linearGradient x1="343.36678" y1="137.84003" x2="343.36678" y2="175.36046" gradientUnits="userSpaceOnUse" id="color-3"><stop offset="0" stop-color="#b34d00"/><stop offset="1" stop-color="#cacaca"/></linearGradient><linearGradient x1="343.36678" y1="137.84003" x2="343.36678" y2="175.36046" gradientUnits="userSpaceOnUse" id="color-4"><stop offset="0" stop-color="#c99292"/><stop offset="1" stop-color="#b34d00"/></linearGradient><linearGradient x1="409.91743" y1="147.48469" x2="409.91743" y2="169.58005" gradientUnits="userSpaceOnUse" id="color-5"><stop offset="0" stop-color="#cacaca"/><stop offset="1" stop-color="#b34d00"/></linearGradient><linearGradient x1="409.91743" y1="147.48469" x2="409.91743" y2="169.58005" gradientUnits="userSpaceOnUse" id="color-6"><stop offset="0" stop-color="#c99292"/><stop offset="1" stop-color="#b34d00"/></linearGradient><linearGradient x1="344.40901" y1="146.1779" x2="344.40901" y2="168.27327" gradientUnits="userSpaceOnUse" id="color-7"><stop offset="0" stop-color="#cacaca"/><stop offset="1" stop-color="#b34d00"/></linearGradient><linearGradient x1="344.40901" y1="146.1779" x2="344.40901" y2="168.27327" gradientUnits="userSpaceOnUse" id="color-8"><stop offset="0" stop-color="#c99292"/><stop offset="1" stop-color="#b34d00"/></linearGradient><linearGradient x1="379.01119" y1="151.69961" x2="379.01119" y2="229.87145" gradientUnits="userSpaceOnUse" id="color-9"><stop offset="0" stop-color="#cacaca"/><stop offset="1" stop-color="#b34d00"/></linearGradient><linearGradient x1="379.01119" y1="151.69961" x2="379.01119" y2="229.87145" gradientUnits="userSpaceOnUse" id="color-10"><stop offset="0" stop-color="#c99292"/><stop offset="1" stop-color="#b34d00"/></linearGradient><linearGradient x1="363.16923" y1="177.02804" x2="363.16923" y2="208.29507" gradientUnits="userSpaceOnUse" id="color-11"><stop offset="0" stop-color="#ffc500"/><stop offset="1" stop-color="#ff5600"/></linearGradient><linearGradient x1="394.07547" y1="176.25035" x2="394.07547" y2="207.51738" gradientUnits="userSpaceOnUse" id="color-12"><stop offset="0" stop-color="#ffc500"/><stop offset="1" stop-color="#ff5600"/></linearGradient></defs><g transform="translate(-323.35656,-136.46396)"><g data-paper-data="{&quot;isPaintingLayer&quot;:true}" fill-rule="nonzero" stroke-linecap="butt" stroke-linejoin="miter" stroke-miterlimit="10" stroke-dasharray="" stroke-dashoffset="0" style="mix-blend-mode: normal"><path d="M392.61634,157.07324c0,-10.36098 8.39923,-18.76022 18.76022,-18.76022c10.36098,0 18.76022,8.39923 18.76022,18.76022c0,10.36098 -8.39923,18.76022 -18.76022,18.76022c-10.36098,0 -18.76022,-8.39923 -18.76022,-18.76022z" fill="url(#color-1)" stroke="url(#color-2)" stroke-width="2.5"/><path d="M324.60656,156.60025c0,-10.36098 8.39924,-18.76022 18.76022,-18.76022c10.36098,0 18.76022,8.39924 18.76022,18.76022c0,10.36098 -8.39924,18.76022 -18.76022,18.76022c-10.36098,0 -18.76022,-8.39924 -18.76022,-18.76022z" fill="url(#color-3)" stroke="url(#color-4)" stroke-width="2.5"/><path d="M398.86974,158.53237c0,-6.10147 4.94622,-11.04768 11.04769,-11.04768c6.10147,0 11.04768,4.94622 11.04768,11.04768c0,6.10147 -4.94622,11.04768 -11.04768,11.04768c-6.10147,0 -11.04769,-4.94622 -11.04769,-11.04768z" fill="url(#color-5)" stroke="url(#color-6)" stroke-width="2.5"/><path d="M333.36133,157.22559c0,-6.10147 4.94622,-11.04768 11.04768,-11.04768c6.10147,0 11.04768,4.94622 11.04768,11.04768c0,6.10147 -4.94622,11.04768 -11.04768,11.04768c-6.10147,0 -11.04768,-4.94622 -11.04768,-11.04768z" fill="url(#color-7)" stroke="url(#color-8)" stroke-width="2.5"/><path d="M339.92527,190.78553c0,-21.58656 17.49936,-39.08592 39.08592,-39.08592c21.58656,0 39.08592,17.49936 39.08592,39.08592c0,21.58656 -17.49936,39.08592 -39.08592,39.08592c-21.58656,0 -39.08592,-17.49936 -39.08592,-39.08592z" fill="url(#color-9)" stroke="url(#color-10)" stroke-width="2.5"/><path d="M370.04798,192.66155c0,8.63415 -3.07972,15.63351 -6.87875,15.63351c-3.79903,0 -6.87875,-6.99936 -6.87875,-15.63351c0,-8.63415 3.07972,-15.63351 6.87875,-15.63351c3.79903,0 6.87875,6.99936 6.87875,15.63351z" fill="url(#color-11)" stroke="#5f5f5f" stroke-width="2.5"/><path d="M400.95421,191.88387c0,8.63415 -3.07972,15.63351 -6.87875,15.63351c-3.79903,0 -6.87875,-6.99936 -6.87875,-15.63351c0,-8.63415 3.07972,-15.63352 6.87875,-15.63352c3.79903,0 6.87875,6.99937 6.87875,15.63352z" fill="url(#color-12)" stroke="#5f5f5f" stroke-width="2.5"/><path d="M332.23775,145.34412c0,-6.1263 6.1263,-6.1263 6.1263,-6.1263l1.63333,0.45676c1.04711,-1.15513 2.27119,-2.13571 3.67856,-2.69526c5.34766,-2.12615 9.9967,2.77898 12.44819,6.46352c0,0 3.15196,5.25326 -2.10131,8.40522c-2.22952,1.33771 -4.08055,1.16147 -5.47278,0.51538c-1.08522,1.718 -3.00099,2.85902 -5.18326,2.85902c-2.27068,0 -4.25283,-1.23535 -5.31103,-3.07063l-0.44773,-0.74622c-1.63842,-0.23041 -5.37026,-1.28003 -5.37026,-6.0615z" fill="#b34d00" stroke="none" stroke-width="0.5"/><path d="M409.65288,209.41865c-6.1263,0 -6.1263,-6.1263 -6.1263,-6.1263l0.43817,-3.52593c0.48653,-1.21632 1.10586,-2.38491 1.48338,-3.63936c0.15042,-0.49981 -0.05798,-1.14414 0.28189,-1.54026l0.39464,-1.97318c0.51428,-2.86336 3.0182,-5.03612 6.02959,-5.03612c3.38346,0 6.1263,2.74284 6.1263,6.1263v2.50136c0,0 0,2.13717 -1.26229,3.88694c-0.42836,1.11508 -1.48614,3.74707 -1.67724,4.22483l0.43817,-1.02457c0,0 0,6.1263 -6.1263,6.1263z" fill="#b34d00" stroke="none" stroke-width="0.5"/><path d="M367.81326,228.14612c-0.92143,-0.44676 -1.82529,-1.23077 -2.60166,-2.52471c-3.15196,-5.25326 2.10131,-8.40522 2.10131,-8.40522c1.78044,-1.00326 3.00792,-3.23461 5.03439,-3.49905c6.53231,-0.85239 11.68256,2.74716 12.37651,9.26435c0.23209,2.17965 1.15719,4.7916 -0.11744,6.57488c-1.64652,2.30358 -4.71425,3.39658 -7.47121,4.0421c-1.47396,0.34512 -2.90648,-0.84797 -4.35972,-1.27196l1.02457,0.43817c0,0 -5.07463,0 -5.98676,-4.61857z" fill="#b34d00" stroke="none" stroke-width="0.5"/><path d="M392.41825,153.40501c1.1917,0.08736 5.8514,0.77058 5.8514,6.11349c0,6.1263 -6.1263,6.1263 -6.1263,6.1263l-4.40264,-0.87304c-2.25595,-1.56071 -5.9359,-2.55601 -8.69444,-2.96236c0,0 -6.04295,-1.00716 -5.03579,-7.05011c1.00716,-6.04295 7.05011,-5.03579 7.05011,-5.03579c3.81288,0.67909 7.82993,1.93562 11.35766,3.6815z" fill="#b34d00" stroke="none" stroke-width="0.5"/><path d="M418.53475,157.01714c0,-3.38346 2.74284,-6.1263 6.1263,-6.1263c3.38346,0 6.1263,2.74284 6.1263,6.1263c0,3.38346 -2.74284,6.1263 -6.1263,6.1263c-3.38346,0 -6.1263,-2.74284 -6.1263,-6.1263z" fill="#b34d00" stroke="none" stroke-width="0.5"/><path d="M351.62064,146.76124c-1.1935,2.387 -3.39217,1.7585 -4.05634,1.50071c-2.48564,0.63651 -4.77351,1.74835 -7.32811,2.27388c0,0 -3.10724,0.62145 -3.72869,-2.48579c-0.62145,-3.10724 2.48579,-3.72869 2.48579,-3.72869c2.88776,-0.55588 5.44137,-1.90549 8.33787,-2.50136l2.87236,0.68989c0,0 2.83424,1.41712 1.41712,4.25136z" fill="#fa6d00" stroke="none" stroke-width="0.5"/><path d="M391.10851,160.73193c-1.63032,2.7172 -4.34753,1.08688 -4.34753,1.08688l-1.5968,-1.0123c-1.43949,-0.26146 -2.84191,-0.72789 -4.20314,-1.26413c0,0 -2.94214,-1.17685 -1.76528,-4.11899c1.17685,-2.94214 4.11899,-1.76528 4.11899,-1.76528c1.33207,0.54335 2.72813,0.9354 4.13473,1.23723l2.57214,1.48906c0,0 2.7172,1.63032 1.08688,4.34753z" fill="#fa6d00" stroke="none" stroke-width="0.5"/><path d="M421.90917,156.60025c0,-1.75007 1.41871,-3.16878 3.16878,-3.16878c1.75007,0 3.16878,1.41871 3.16878,3.16878c0,1.75007 -1.41871,3.16878 -3.16878,3.16878c-1.75007,0 -3.16878,-1.41871 -3.16878,-3.16878z" fill="#fa6d00" stroke="none" stroke-width="0.5"/><path d="M413.94761,203.72602c-0.24195,0.9386 -0.95319,2.31821 -3.04404,2.31821c-3.16878,0 -3.16878,-3.16878 -3.16878,-3.16878l0.69438,-2.39641c0.55586,-0.69482 1.11172,-1.38965 1.66757,-2.08447c0,0 1.97952,-2.4744 4.45392,-0.49488c2.4744,1.97952 0.49488,4.45392 0.49488,4.45392c-0.36598,0.45747 -0.73195,0.91494 -1.09793,1.37241z" fill="#fa6d00" stroke="none" stroke-width="0.5"/><path d="M375.54176,228.11626c-1.43186,0.96919 -3.15886,0.10569 -3.15886,0.10569l-2.49112,-1.42736c-2.12587,-2.91037 -6.02551,-5.94355 1.05523,-9.06687c2.82691,-1.24695 6.76711,3.75762 8.42882,5.41933c0,0 2.24066,2.24066 0,4.48133c-1.50382,1.50382 -3.00763,0.98907 -3.83407,0.48789z" fill="#fa6d00" stroke="none" stroke-width="0.5"/></g></g></svg>