<svg version="1.1" xmlns="http://www.w3.org/2000/svg" xmlns:xlink="http://www.w3.org/1999/xlink" width="106.49076" height="87.64593" viewBox="0,0,106.49076,87.64593"><g transform="translate(-316.35517,-28.71365)"><g data-paper-data="{&quot;isPaintingLayer&quot;:true}" fill-rule="nonzero" stroke-linecap="butt" stroke-linejoin="miter" stroke-miterlimit="10" stroke-dasharray="" stroke-dashoffset="0" style="mix-blend-mode: normal"><path d="M412.46844,79.69827c-0.27969,0 -0.55526,-0.01767 -0.82565,-0.05194c-1.53471,0.15173 -3.1373,-0.27248 -4.66624,-1.49595c-3.12822,-2.50324 -4.43165,-6.7514 -5.35255,-10.68111c-0.6305,-2.69051 -6.53939,-6.23576 -7.91972,-8.76044c-1.56166,-2.85635 -2.17989,-3.32967 -4.68778,-5.4793c-0.16027,-0.13737 -1.58037,-1.92896 -1.82115,-1.89506c-3.77283,0.5312 -8.25003,1.2395 -12.20939,0.35964c-0.34678,-0.07706 -4.92671,-1.87063 -5.22447,-1.84501c-0.53638,0.04614 -0.66055,0.8557 -1.05108,1.22626c-0.91454,0.86777 -2.37561,0.96688 -3.63361,1.04958c-3.02978,0.19918 -6.07349,-0.07147 -9.10897,0c-2.61918,0.06167 -4.19087,0.59051 -7.26268,0.43083c-0.62065,-0.03226 -1.5946,-0.82222 -1.84704,-0.25431c-1.63118,3.66965 -3.20735,7.57848 -8.07637,7.57848c0.03415,0.26991 0.05175,0.54498 0.05175,0.82416c0,2.69633 -1.64175,5.0092 -3.98015,5.99352c-1.14469,1.8551 -3.1958,3.09148 -5.53568,3.09148c-2.24987,0 -4.23276,-1.14308 -5.39959,-2.88017c-1.87831,-0.06125 -3.61324,-0.68194 -4.78999,-3.00205c-0.48074,-0.94783 -0.11461,-2.12247 -0.17686,-3.18342c-0.06565,-1.11883 -0.74255,-2.38399 -0.1865,-3.35708c1.03726,-1.8152 4.0359,-1.75509 5.21859,-3.47906c0.47708,-0.69542 0.15082,-1.81978 0.7456,-2.41766c2.17112,-2.18245 4.02227,-4.54555 6.3984,-6.53374c1.18438,-0.99101 3.32417,-1.40274 4.7823,-2.04101c0.68886,-0.30153 1.61169,-2.15732 2.26859,-2.72038c0.94769,-0.81231 2.67385,-1.15726 3.66077,-2.0458c2.12794,-1.9158 5.18873,-5.79228 8.15842,-6.57854c8.28311,-2.19305 17.34301,-3.93575 26.18237,-2.00084c4.56557,0.99939 9.50769,4.78095 13.41379,5.26727c3.68331,0.45858 9.57532,-0.24207 12.76904,1.67417c2.88882,1.73329 3.88918,4.9286 5.73146,7.34147c2.04763,2.68181 5.87128,4.37995 8.31142,6.82009c4.06703,4.06703 3.56892,14.3511 3.4246,19.09926c-0.03791,1.2474 -0.34838,2.52318 -0.86759,3.72664c-0.14663,3.45997 -2.99803,6.22003 -6.49408,6.22003z" fill="#088800" stroke="none" stroke-width="0.5"/><path d="M338.40266,65.87411c0,3.58985 -2.91015,6.5 -6.5,6.5c-1.48708,0 -2.85752,-0.49938 -3.95277,-1.33959c-0.25779,0.03109 -0.52022,0.04709 -0.78639,0.04709c-2.11529,0 -3.99458,-1.01042 -5.18155,-2.57493c-0.19373,-0.20011 -0.36429,-0.42323 -0.50595,-0.67507c-0.07195,-0.12791 -0.1397,-0.25821 -0.20326,-0.39064c-2.82507,-0.70666 -4.91757,-3.26198 -4.91757,-6.30602c0,-3.58985 2.91015,-6.5 6.5,-6.5c1.94244,0 3.68588,0.85204 4.87696,2.20276c0.67804,0.11386 1.3637,0.42248 2.0216,0.86899c0.28025,-0.03689 0.56612,-0.05592 0.85643,-0.05592c2.51512,0 4.69659,1.42849 5.77735,3.51841c1.24153,1.18381 2.01515,2.85402 2.01515,4.70492z" fill="#087700" stroke="none" stroke-width="0.5"/><path d="M416.34593,67.55994c3.58985,0 6.5,2.91015 6.5,6.5c0,3.58985 -2.91015,6.5 -6.5,6.5c-0.77406,0 -1.51652,-0.13531 -2.20502,-0.38355c-1.07352,0.7831 -2.39611,1.24522 -3.82664,1.24522c-3.58985,0 -6.5,-2.91015 -6.5,-6.5c0,-3.58985 2.91015,-6.5 6.5,-6.5c0.77406,0 1.51652,0.13531 2.20502,0.38355c1.07352,-0.7831 2.39611,-1.24522 3.82664,-1.24522z" fill="#087700" stroke="none" stroke-width="0.5"/><path d="M328.44444,77.10375c0,-0.29221 0.00882,-0.58276 0.02625,-0.87149c-0.05833,-0.451 -0.10994,-0.89985 -0.16208,-1.34242c-0.23012,-1.95324 1.90067,-10.92646 3.87401,-12.78055c0.49343,-0.77155 1.05545,-1.50986 1.67955,-2.20966c-0.09044,-0.65113 -0.13688,-1.31299 -0.13688,-1.98362c0,-9.72199 9.76082,-17.60321 21.80139,-17.60321c3.87752,0 7.51862,0.81735 10.67343,2.25031c3.39502,-1.76154 7.43482,-2.7833 11.77017,-2.7833c5.20214,0 9.97873,1.47118 13.72641,3.92636c11.76626,1.99766 18.62438,10.18037 16.65634,20.52077c-0.00008,0.00043 -0.00016,0.00084 -0.00024,0.00127c0.00016,0.02789 0.00024,0.05579 0.00024,0.08371c0,2.12143 -0.46476,4.1552 -1.31656,6.03857c4.06963,3.19797 6.59741,7.66872 6.59741,12.61617c0,9.72199 -9.76081,17.60321 -21.80139,17.60321c-0.92829,0 -1.84305,-0.04684 -2.74081,-0.13777c-3.84338,2.73944 -8.89224,4.40171 -14.42194,4.40171c-2.02699,0 -3.98936,-0.22336 -5.85143,-0.64126c-3.14968,1.42672 -6.78278,2.24023 -10.65121,2.24023c-11.23039,0 -20.47751,-6.85629 -21.67109,-15.66755c-4.91303,-3.2277 -8.05157,-8.14866 -8.05157,-13.66149z" fill="#2b4600" stroke="none" stroke-width="0.5"/><path d="M380.15596,96.06993c-1.90154,0 -3.61236,-0.81653 -4.80098,-2.11809c-3.19172,2.74033 -7.52804,4.28989 -10.08151,1.73643c-0.08838,-0.08838 -0.17481,-0.17612 -0.2593,-0.26324c-0.03266,0.0086 -0.06541,0.01696 -0.09827,0.02507c-1.16882,0.70128 -2.6024,1.09117 -4.51078,1.09117c-4.60651,0 -7.30818,-1.61119 -8.89708,-6.21861c-0.27993,-0.81172 -0.76781,-1.6823 -0.81782,-2.5229c-0.09473,-0.10901 -0.18589,-0.22121 -0.27329,-0.33642c-0.19373,-0.20011 -0.36429,-0.42323 -0.50595,-0.67507c-0.96714,-1.71933 -2.32973,-3.69719 -3.4278,-5.688c-2.05927,-0.7157 -3.71799,-2.88452 -4.27803,-6.60949c-0.72949,-4.85206 3.06557,-8.2944 6.75511,-8.41067c0.55628,-1.17801 1.26436,-2.31071 2.13161,-3.37418c0.47641,-1.89269 1.21293,-3.80105 2.79514,-4.73975c0.24689,-0.26152 0.51524,-0.50255 0.80223,-0.72029c0.20011,-0.19373 0.42323,-0.36429 0.67507,-0.50595c2.96634,-1.6686 7.81715,-1.54232 10.73841,0.67962c0.07173,-0.05942 0.14475,-0.11733 0.21902,-0.17368c0.20011,-0.19373 0.42323,-0.36429 0.67507,-0.50595c2.558,-1.4389 6.51736,-1.54307 9.43227,-0.11962c2.57331,-0.86281 5.73708,-0.41313 7.85831,1.2631c0.64695,0.14964 1.41613,0.5945 2.15191,1.07793c0.25484,0.14848 0.49866,0.31379 0.72995,0.49442c0.57823,0.39927 1.09691,0.76512 1.46654,0.94993c1.8692,0.9346 2.90168,2.51592 3.21488,4.28925c1.24007,0.70438 2.23166,1.80194 2.68317,3.26168c0.81816,0.4591 1.5269,1.09009 2.07727,1.84403c1.40123,1.59424 2.23402,3.6819 1.90481,5.67785c0.07327,0.16866 0.13814,0.34757 0.19482,0.53564c0.28373,0.72995 0.4394,1.52384 0.4394,2.3541c0,0.6431 -0.09339,1.26439 -0.26736,1.85104c-0.69418,5.13089 -4.07986,11.3215 -8.56322,10.45314c-0.46742,0.96673 -1.1672,1.80011 -2.02682,2.42762c-1.32985,1.16885 -3.00303,1.94216 -4.67992,1.97543c-1.00127,0.63 -2.1865,0.99443 -3.45684,0.99443z" fill="#144100" stroke="none" stroke-width="0.5"/><path d="M351.73224,86.76888c0,-9.18158 7.44314,-16.62472 16.62473,-16.62472c9.18158,0 16.62473,7.44314 16.62473,16.62472c0,9.18158 -7.44315,16.62473 -16.62473,16.62473c-9.18158,0 -16.62473,-7.44315 -16.62473,-16.62473z" fill="#523404" stroke="none" stroke-width="NaN"/><path d="M347.59794,72.091c0,-3.60014 2.9185,-6.51864 6.51864,-6.51864c3.60014,0 6.51864,2.91849 6.51864,6.51864c0,3.60014 -2.91849,6.51864 -6.51864,6.51864c-3.60014,0 -6.51864,-2.91849 -6.51864,-6.51864z" fill="#523404" stroke="none" stroke-width="0"/><path d="M377.08495,72.70349c0,-3.60014 2.91849,-6.51865 6.51864,-6.51865c3.60015,0 6.51864,2.9185 6.51864,6.51865c0,3.60015 -2.9185,6.51864 -6.51864,6.51864c-3.60014,0 -6.51864,-2.91849 -6.51864,-6.51864z" fill="#523404" stroke="none" stroke-width="0"/><path d="M348.93229,71.89412c0,-2.87529 2.18961,-5.20616 4.89064,-5.20616c2.70103,0 4.89064,2.33088 4.89064,5.20616c0,2.87529 -2.18961,5.20616 -4.89064,5.20616c-2.70103,0 -4.89064,-2.33088 -4.89064,-5.20616z" fill="#a86b08" stroke="none" stroke-width="NaN"/><path d="M378.5943,72.59411c0,-2.87528 2.18962,-5.20616 4.89064,-5.20616c2.70103,0 4.89064,2.33088 4.89064,5.20616c0,2.87529 -2.18961,5.20616 -4.89064,5.20616c-2.70103,0 -4.89064,-2.33088 -4.89064,-5.20616z" fill="#a86b08" stroke="none" stroke-width="NaN"/><path d="M354.7947,87.46712c0,-7.97348 6.07204,-14.43726 13.56227,-14.43726c7.49023,0 13.56228,6.46378 13.56228,14.43726c0,7.97348 -6.07205,14.43726 -13.56227,14.43726c-7.49023,0 -13.56227,-6.46379 -13.56227,-14.43726z" fill="#a86b08" stroke="#523404" stroke-width="4"/><path d="M363.52267,85.47653c0,2.27123 -0.70513,4.11244 -1.57497,4.11244c-0.86983,0 -1.57497,-1.84121 -1.57497,-4.11244c0,-2.27123 0.70513,-4.11243 1.57497,-4.11243c0.86984,0 1.57497,1.84119 1.57497,4.11243z" fill="#000000" stroke="none" stroke-width="0"/><path d="M362.91018,84.07655c0,0.57989 -0.19587,1.04998 -0.4375,1.04998c-0.24162,0 -0.43749,-0.4701 -0.43749,-1.04998c0,-0.57989 0.19587,-1.04998 0.43749,-1.04998c0.24162,0 0.4375,0.4701 0.4375,1.04998z" fill="#ffffff" stroke="none" stroke-width="0"/><path d="M374.63499,85.30153c0,2.27123 -0.70513,4.11243 -1.57497,4.11243c-0.86983,0 -1.57498,-1.8412 -1.57498,-4.11243c0,-2.27123 0.70514,-4.11243 1.57498,-4.11243c0.86984,0 1.57497,1.8412 1.57497,4.11243z" fill="#000000" stroke="none" stroke-width="0"/><path d="M374.0225,83.90156c0,0.57989 -0.19586,1.04998 -0.43749,1.04998c-0.24162,0 -0.4375,-0.47009 -0.4375,-1.04998c0,-0.57989 0.19587,-1.04998 0.4375,-1.04998c0.24162,0 0.43749,0.4701 0.43749,1.04998z" fill="#ffffff" stroke="none" stroke-width="0"/><path d="M388.90778,109.39196c-2.25747,0.77913 -3.4872,2.22845 -6.09935,2.22845c-0.41724,0 -10.78427,-0.59457 -12.27291,0.82117c-2.09122,1.9888 -4.27671,3.918 -7.54541,3.918c-3.08286,0 -4.2454,-1.00104 -6.3712,-2.19466c-2.88863,-1.62195 -7.62001,-0.97937 -10.73293,-2.53583c-3.38023,-1.69012 -2.5741,-2.40216 -3.81312,-4.92416c-0.57097,-1.16219 -5.47991,-2.98171 -6.57312,-4.02306c-1.85954,-1.77134 -1.0621,-6.42108 -2.34208,-8.52193c-0.47115,-0.77329 -2.44259,-0.73462 -3.03789,-1.43158c-2.31809,-2.71394 -2.50094,-5.97827 -3.12255,-9.26748c-0.16001,-0.84668 -2.78785,-2.40754 -3.36705,-3.56595c-0.71702,-1.43404 -1.14175,-6.42951 -0.84018,-10.35024c-1.68384,-1.93459 -2.02115,-4.96458 -1.69566,-7.54808c0,-0.3015 0.02053,-0.59821 0.06026,-0.8888c0.20419,-1.49333 0.9156,-2.82514 1.95489,-3.81612c0.11951,-0.23111 0.25248,-0.45412 0.39788,-0.66801c0.13602,-0.25758 0.29837,-0.49916 0.49771,-0.71829c0.1914,-0.21041 0.46792,-0.44166 0.79431,-0.68636c0.20103,-0.16278 0.41196,-0.31381 0.63176,-0.45204c1.39383,-0.9636 3.18872,-2.05335 3.55226,-2.88629c0.67094,-1.53726 1.37604,-3.65487 3.11594,-4.18825c1.35938,-0.41673 2.81245,-0.45031 4.18736,-0.8125c0.85898,-0.22628 0.87394,-2.26926 1.13014,-2.78166c0.20949,-0.41899 4.29696,-5.34 5.1971,-5.9401c1.20217,-0.80145 2.58777,-1.37538 4.00453,-1.65873c1.29107,-0.25821 3.25879,1.46131 3.93593,0.33215c2.24,-3.73527 6.11545,-4.04951 10.10514,-3.05209c1.18441,0.2961 2.24828,2.12132 3.56487,1.68567c1.54768,-0.51211 3.21854,-2.39817 5.09326,-1.98156c1.07712,0.23936 3.14243,1.58969 4.20521,1.60643c3.03971,0.04789 5.67932,-1.22441 8.78725,-1.56593c2.93752,-0.3228 4.65206,2.11935 6.10363,2.11874c5.88774,-0.00247 6.01388,0.78662 9.02364,4.77459c0.10607,0.14054 6.03433,0.09473 7.33561,1.61823c2.33484,2.73355 1.8311,5.59806 3.99015,8.28395c0.79193,0.98517 2.90973,1.04457 3.84788,2.13908c2.11174,2.4637 7.01042,8.79705 4.65119,12.99442c0.58141,0.7841 0.99049,1.70365 1.17126,2.70266c0.0814,0.25192 0.13134,0.51833 0.14461,0.80162c0.02313,0.49406 -0.02562,0.99173 -0.13661,1.48323c-0.29393,1.69259 -1.24254,3.16059 -2.57546,4.1336c-0.25925,0.22787 -0.53156,0.4407 -0.81439,0.63595c0.15705,0.1671 0.30535,0.34251 0.44418,0.5255c0.19373,0.20011 0.36429,0.42323 0.50595,0.67507c0.19106,0.33966 0.36037,0.77486 0.50938,1.28242c0.06192,0.19519 0.11487,0.39437 0.15837,0.59705c0.82419,3.4322 0.9023,9.27262 0.57558,12.14135c-0.16869,1.48123 -1.01228,3.44929 -2.29122,4.95207c1.21721,4.91723 -1.86003,12.17148 -7.65545,11.02626c-1.48813,-0.29407 -2.72621,-0.69871 -3.689,-1.24327c-0.78913,0.61017 -1.72194,1.09359 -2.88244,1.41871c-0.82187,0.23025 -1.59842,0.34542 -2.32443,0.35942c-2.96109,1.36803 -6.56667,1.43658 -9.49479,2.44718zM335.436,64.77827c2.31414,2.31414 0.01739,4.88617 0.38167,7.26961c0.29037,1.89988 2.64286,3.00092 3.08443,4.87145c0.22103,0.93629 0.74315,5.2847 1.32158,5.43043c1.67725,0.42257 4.19916,1.49443 5.12148,3.10849c1.53977,2.69459 -0.71477,6.92033 1.22911,9.01127c0.62042,0.66735 3.42746,1.68194 4.14208,2.13669c0.8901,0.56642 1.61519,2.76755 2.51837,2.99837c3.19135,0.81559 5.58547,1.54705 8.94047,2.20039c0.28239,0.05499 4.97305,-2.28703 5.91746,-2.3634c4.26622,-0.34502 9.40953,-0.29527 13.51459,-0.86167c0.05003,-0.0069 0.96697,-1.23025 1.33039,-1.34167c2.99229,-0.91731 6.19504,-1.22564 9.22861,-1.98403l1.33754,-0.66877c0.81389,-0.4285 1.72974,-0.68942 2.70167,-0.73686c2.59929,-1.43064 5.86826,-2.47785 7.70609,-1.74848c0.124,-0.54809 0.31445,-1.11666 0.34174,-1.63584c0.20396,-3.88027 -0.80942,-6.81851 -0.439,-10.80351c0,-0.2403 0.01304,-0.47756 0.03845,-0.7111c0.22363,-2.05533 1.40543,-3.82296 3.08937,-4.84684c-0.356,-0.64566 -0.64937,-1.39658 -0.86835,-2.19286c-0.3449,-0.79335 -0.53614,-1.66893 -0.53614,-2.58918c0,-0.3748 0.03172,-0.7422 0.09263,-1.09964c0.00801,-0.20778 0.02227,-0.41255 0.04299,-0.61323c-0.91597,-1.25482 -1.2837,-2.92076 -1.42812,-4.64223c-0.01374,-0.16382 -3.08103,-0.70131 -3.30022,-0.75611c-1.19832,-0.29958 -3.04622,-2.26905 -3.40519,-2.611c-0.8932,-0.85083 -0.28121,-3.52419 -1.69561,-4.28689c-1.64582,-0.88749 -3.79455,-0.00451 -5.5823,-0.55255c-2.8249,-0.86599 -2.3902,-4.24186 -3.99458,-5.65c-0.46373,-0.407 -4.07458,-1.41687 -5.01745,-1.56595c-2.96783,-0.46924 -8.18632,0.09109 -11.11235,0.46151c-0.87423,0.11068 -2.01769,1.02781 -2.91425,1.02781c-1.61001,0 -6.68485,-1.53563 -7.79813,-0.90549c-1.88128,1.06484 -2.46013,1.80499 -4.75568,2.31511c-1.62033,0.36007 -3.56904,-1.17039 -5.23831,-0.13911c-1.30865,0.80848 -3.17643,5.07575 -4.31551,6.38064c-0.67675,0.77527 -4.57027,2.22915 -4.92889,2.84865c-1.42989,2.47008 -3.44236,3.25423 -5.31089,4.70158c0.18382,0.17316 0.37048,0.35462 0.56026,0.5444z" fill="#0b7500" stroke="none" stroke-width="0.5"/></g></g></svg>