<svg version="1.1" xmlns="http://www.w3.org/2000/svg" xmlns:xlink="http://www.w3.org/1999/xlink" width="91.00142" height="78.57283" viewBox="0,0,91.00142,78.57283"><defs><linearGradient x1="256.26077" y1="107.51389" x2="247.99639" y2="134.26003" gradientUnits="userSpaceOnUse" id="color-1"><stop offset="0" stop-color="#c78b15"/><stop offset="1" stop-color="#c78b15" stop-opacity="0"/></linearGradient><linearGradient x1="256.26077" y1="107.51389" x2="247.99639" y2="134.26003" gradientUnits="userSpaceOnUse" id="color-2"><stop offset="0" stop-color="#c78b15"/><stop offset="1" stop-color="#c78b15" stop-opacity="0"/></linearGradient><linearGradient x1="219.97656" y1="52.63247" x2="222.13402" y2="67.18885" gradientUnits="userSpaceOnUse" id="color-3"><stop offset="0" stop-color="#c78b15"/><stop offset="1" stop-color="#c78b15" stop-opacity="0"/></linearGradient><linearGradient x1="220.91363" y1="53.36507" x2="226.47184" y2="66.99038" gradientUnits="userSpaceOnUse" id="color-4"><stop offset="0" stop-color="#c78b15"/><stop offset="1" stop-color="#c78b15" stop-opacity="0"/></linearGradient><linearGradient x1="220.79532" y1="54.74088" x2="231.64874" y2="64.67798" gradientUnits="userSpaceOnUse" id="color-5"><stop offset="0" stop-color="#c78b15"/><stop offset="1" stop-color="#c78b15" stop-opacity="0"/></linearGradient></defs><g transform="translate(-208.11054,-48.97397)"><g data-paper-data="{&quot;isPaintingLayer&quot;:true}" stroke="#000000" stroke-linecap="butt" stroke-linejoin="miter" stroke-miterlimit="10" stroke-dasharray="" stroke-dashoffset="0" style="mix-blend-mode: normal"><path d="" fill="url(#color-1)" fill-rule="nonzero" stroke-width="0"/><path d="" fill="url(#color-2)" fill-rule="nonzero" stroke-width="0"/><path d="M214.09351,50.63334c2.32509,0.27195 5.50676,2.16748 6.28224,4.64296c0.64889,2.21056 0.98428,9.04263 0.06688,12.57036c4.91505,0.41743 6.42794,20.10263 12.71858,29.7012c8.75178,13.2205 21.94486,11.39276 29.87219,17.60799c4.30308,3.39286 0.17426,6.6652 -1.34565,7.22831c-21.69292,9.05725 -35.35134,0.37495 -41.86849,-5.782c-8.58233,-8.09778 -10.56528,-21.78593 -10.4544,-33.30281c0.04169,-2.2965 0.71812,-7.00994 1.67487,-9.09284c1.50432,-3.32016 2.10313,-3.76872 5.08552,-5.35541c0.56433,-0.35074 -4.02885,-18.48386 -2.03173,-18.21775z" fill="#fff63b" fill-rule="evenodd" stroke-width="2.5"/><path d="M216.89685,66.67941l-2.15746,-14.55637l1.38225,0.13446c0.72185,0.81428 2.08886,1.68054 2.49821,2.27708c0.94327,1.37461 1.12789,4.81623 1.23949,6.40751c0.09906,1.4125 -0.3903,4.26281 -0.46954,5.79357c-0.02527,0.05805 -0.04454,0.1186 -0.05746,0.18065z" fill="url(#color-3)" fill-rule="nonzero" stroke-width="0"/><path d="M214.57068,53.11882c2.32303,-0.28895 5.86428,0.79531 7.20637,3.01525c1.15611,1.99274 3.1071,8.54892 3.0552,12.19361c4.87326,-0.76374 11.02545,17.99649 19.41882,25.82311c11.64545,10.75912 24.02504,5.84547 33.20329,9.99653c4.98665,2.27184 1.75478,6.43242 0.41245,7.34092c-18.91567,13.95758 -34.24737,8.77358 -42.04206,4.34367c-10.26227,-5.82376 -15.44445,-18.64728 -18.07639,-29.85994c-0.5058,-2.2405 -0.97002,-6.97954 -0.53621,-9.23024c0.67134,-3.5827 1.14625,-4.16082 3.66559,-6.41143c0.4647,-0.47491 -8.31015,-16.99488 -6.30706,-17.21149z" fill="#fff63b" fill-rule="evenodd" stroke-width="2.5"/><path d="M221.26382,67.74139l-5.5582,-13.6253l1.37456,-0.19821c0.89483,0.61919 2.42866,1.1354 2.96817,1.61744c1.24319,1.11077 2.2412,4.40968 2.72813,5.92873c0.43222,1.34839 0.63494,4.23329 0.92212,5.73896c-0.01074,0.06239 -0.01505,0.12579 -0.01284,0.18913z" fill="url(#color-4)" fill-rule="nonzero" stroke-width="0"/><path d="M214.98056,56.56592c1.97604,-1.25508 5.6407,-1.79022 7.80355,-0.35794c1.89755,1.30649 6.46603,6.39754 7.97852,9.71399c4.07791,-2.77535 17.66519,11.54881 28.60018,15.03174c15.12905,4.74206 24.21599,-4.99579 34.28778,-5.17082c5.47919,-0.08016 4.33819,5.06314 3.51364,6.45861c-11.12508,20.70868 -27.2006,22.58285 -36.14117,21.91388c-11.76725,-0.87304 -21.93774,-10.24634 -29.114,-19.25479c-1.41577,-1.80866 -3.86298,-5.89342 -4.43385,-8.11332c-0.92608,-3.52545 -0.74419,-4.25118 0.56998,-7.36329c0.21682,-0.62807 -14.78244,-11.80526 -13.06463,-12.85807z" fill="#fff63b" fill-rule="evenodd" stroke-width="2.5"/><path d="M227.2628,67.58505l-10.8534,-9.9371l1.15758,-0.76726c1.07371,0.1768 2.68093,-0.01288 3.3748,0.19198c1.5989,0.47206 3.9124,3.02677 5.00245,4.19143c0.96758,1.03381 2.38512,3.55459 3.2889,4.79261c0.01699,0.06099 0.04022,0.12014 0.06931,0.17644z" fill="url(#color-5)" fill-rule="nonzero" stroke-width="0"/></g></g></svg>