<svg version="1.1" xmlns="http://www.w3.org/2000/svg" xmlns:xlink="http://www.w3.org/1999/xlink" width="155.17439" height="202.45" viewBox="0,0,155.17439,202.45"><g transform="translate(-29.7,-105.3)"><g data-paper-data="{&quot;isPaintingLayer&quot;:true}" fill-rule="nonzero" stroke-linecap="butt" stroke-linejoin="miter" stroke-miterlimit="10" stroke-dasharray="" stroke-dashoffset="0" style="mix-blend-mode: normal"><path d="M184.34068,184.24577c2.4538,6.80344 -4.34964,9.25724 -4.34964,9.25724l-1.5888,0.5612c-1.86439,0.77511 -3.46591,2.16472 -4.83502,3.64873c-0.83307,0.90299 -2.34684,1.28485 -2.76111,2.44147c-0.68341,1.90804 -0.58544,4.08806 -1.51729,5.88787c-0.59485,1.14891 -1.86791,1.83546 -2.51671,2.9548c-0.32603,0.56248 -0.09936,1.31089 -0.31191,1.92529c-1.18729,3.43189 -2.90352,6.93467 -4.40208,10.2499c-2.59389,5.7384 -7.2708,12.82913 -12.63642,16.30166c-2.36638,1.53148 -5.14944,2.29434 -7.72743,3.43413c-4.60764,0.7311 -9.11875,2.01784 -13.7323,2.53447c-9.34766,1.04676 -16.83139,1.36043 -25.09132,6.38563c-2.93549,1.7859 -7.31754,3.33682 -7.90884,7.08415c0,0 -1.73218,7.02193 -8.75411,5.28975c-7.02193,-1.73218 -5.28975,-8.75411 -5.28975,-8.75411c3.43164,-12.2812 18.73453,-20.20534 30.6578,-22.94817c4.86678,-1.11955 9.87647,-0.93884 14.80871,-1.43581c3.79724,-0.38261 7.3874,-1.64577 11.23222,-2.03412c0.82838,-0.41134 4.24896,-1.46115 4.88821,-2.37055c1.72322,-2.45147 3.94735,-4.63071 5.36191,-7.263c2.53859,-4.72393 3.5382,-10.37881 6.03309,-14.99752c0.61489,-1.13832 1.83084,-1.85779 2.51671,-2.9548c0.97055,-1.55235 0.43865,-3.70812 1.2542,-5.34722c2.97048,-5.97011 9.14402,-10.78895 15.07663,-13.34625l2.33602,-0.85437c0,0 6.80344,-2.4538 9.25724,4.34964z" fill="#523404" stroke="none" stroke-width="0.5"/><path d="M38.89964,244.10467c0,-35.15034 19.68744,-63.64533 43.97314,-63.64533c24.28569,0 43.97314,28.49499 43.97314,63.64533c0,35.15034 -19.68744,63.64533 -43.97314,63.64533c-24.28569,0 -43.97314,-28.49499 -43.97314,-63.64533z" fill="#523404" stroke="none" stroke-width="NaN"/><path d="M40.63542,161.36575c0,-24.28569 19.68744,-43.97314 43.97314,-43.97314c24.28569,0 43.97314,19.68744 43.97314,43.97314c0,24.28569 -19.68744,43.97314 -43.97314,43.97314c-24.28569,0 -43.97314,-19.68744 -43.97314,-43.97314z" fill="#523404" stroke="none" stroke-width="NaN"/><path d="M29.7,122.5421c0,-9.52254 7.71955,-17.2421 17.2421,-17.2421c9.52254,0 17.2421,7.71955 17.2421,17.2421c0,9.52254 -7.71955,17.2421 -17.2421,17.2421c-9.52254,0 -17.2421,-7.71955 -17.2421,-17.2421z" fill="#523404" stroke="none" stroke-width="0"/><path d="M107.69446,124.16216c0,-9.52254 7.71954,-17.2421 17.2421,-17.2421c9.52256,0 17.2421,7.71955 17.2421,17.2421c0,9.52256 -7.71954,17.2421 -17.2421,17.2421c-9.52254,0 -17.2421,-7.71954 -17.2421,-17.2421z" fill="#523404" stroke="none" stroke-width="0"/><path d="M33.22942,122.02136c0,-7.60526 5.79162,-13.77053 12.93596,-13.77053c7.14433,0 12.93596,6.16528 12.93596,13.77053c0,7.60526 -5.79162,13.77053 -12.93596,13.77053c-7.14433,0 -12.93596,-6.16528 -12.93596,-13.77053z" fill="#a86b08" stroke="none" stroke-width="NaN"/><path d="M111.68675,123.87286c0,-7.60526 5.79163,-13.77053 12.93596,-13.77053c7.14434,0 12.93596,6.16528 12.93596,13.77053c0,7.60526 -5.79162,13.77053 -12.93596,13.77053c-7.14433,0 -12.93596,-6.16528 -12.93596,-13.77053z" fill="#a86b08" stroke="none" stroke-width="NaN"/><path d="M47.57855,242.65819c0,-28.59959 16.06082,-51.78415 35.87282,-51.78415c19.812,0 35.87282,23.18456 35.87282,51.78415c0,28.59959 -16.06082,51.78415 -35.87282,51.78415c-19.812,0 -35.87282,-23.18456 -35.87282,-51.78415z" fill="#a86b08" stroke="none" stroke-width="NaN"/><path d="M48.73574,163.21264c0,-21.0902 16.06082,-38.1872 35.87282,-38.1872c19.812,0 35.87282,17.097 35.87282,38.1872c0,21.0902 -16.06082,38.1872 -35.87282,38.1872c-19.812,0 -35.87282,-17.097 -35.87282,-38.1872z" fill="#a86b08" stroke="#523404" stroke-width="4"/><path d="M71.82163,157.94743c0,6.00751 -1.86512,10.87757 -4.16588,10.87757c-2.30074,0 -4.16588,-4.87006 -4.16588,-10.87757c0,-6.00751 1.86512,-10.87757 4.16588,-10.87757c2.30076,0 4.16588,4.87005 4.16588,10.87757z" fill="#000000" stroke="none" stroke-width="0"/><path d="M70.20157,154.24443c0,1.53383 -0.51808,2.77725 -1.15719,2.77725c-0.6391,0 -1.15719,-1.24342 -1.15719,-2.77725c0,-1.53383 0.51808,-2.77725 1.15719,-2.77725c0.6391,0 1.15719,1.24342 1.15719,2.77725z" fill="#ffffff" stroke="none" stroke-width="0"/><path d="M101.2142,157.48456c0,6.00751 -1.86512,10.87757 -4.16588,10.87757c-2.30074,0 -4.16588,-4.87005 -4.16588,-10.87757c0,-6.00751 1.86512,-10.87757 4.16588,-10.87757c2.30076,0 4.16588,4.87006 4.16588,10.87757z" fill="#000000" stroke="none" stroke-width="0"/><path d="M99.59414,153.78156c0,1.53383 -0.51808,2.77725 -1.15719,2.77725c-0.6391,0 -1.15719,-1.24342 -1.15719,-2.77725c0,-1.53383 0.51808,-2.77725 1.15719,-2.77725c0.6391,0 1.15719,1.24342 1.15719,2.77725z" fill="#ffffff" stroke="none" stroke-width="0"/><path d="M87.22534,183.61496c-4.27913,6.09147 -9.70274,-1.17951 -10.55923,-5.93054c-0.1296,0.08622 -0.26222,0.1697 -0.39803,0.25026c-6.27855,3.72451 -15.37018,1.99978 -18.70074,-4.52835l-0.37265,-0.53883c0,0 -0.80237,-1.20354 0.40119,-2.00592c1.20354,-0.80237 2.00592,0.40119 2.00592,0.40119l0.5531,0.84979c2.51459,5.15958 9.7959,6.08912 14.62626,3.34052c3.12583,-1.77867 4.42893,-5.77024 6.55708,-8.45743c0,0 0.90361,-1.12952 2.03312,-0.22591c0.05273,0.04219 0.10103,0.08487 0.1452,0.1279c0.53165,0.36331 0.61794,1.05363 0.61794,1.05363c0.0933,1.90805 2.03731,3.58749 3.47455,4.89724c5.23413,4.76985 12.04369,2.7879 16.17863,-2.38131l0.80101,-0.81351c0,0 1.02281,-1.02281 2.04563,-0.00001l0.00001,0.00001c1.0228,1.02282 -0.00001,2.04563 -0.00001,2.04563l-0.58762,0.57511c-1.95722,2.44628 -4.31236,4.72098 -7.37177,5.78764c-3.18096,1.10904 -6.8605,0.6252 -10.02518,-0.90163c-0.51693,2.04998 -0.23096,4.75561 -1.42441,6.45452z" fill="#000000" stroke="none" stroke-width="0.5"/></g></g></svg>