<svg version="1.1" xmlns="http://www.w3.org/2000/svg" xmlns:xlink="http://www.w3.org/1999/xlink" width="56.60261" height="64.11468" viewBox="0,0,56.60261,64.11468"><defs><linearGradient x1="243.83259" y1="163.33809" x2="241.88471" y2="169.64205" gradientUnits="userSpaceOnUse" id="color-1"><stop offset="0" stop-color="#c78b15"/><stop offset="1" stop-color="#c78b15" stop-opacity="0"/></linearGradient></defs><g transform="translate(-213.21554,-146.64031)"><g data-paper-data="{&quot;isPaintingLayer&quot;:true}" stroke-linejoin="miter" stroke-miterlimit="10" stroke-dasharray="" stroke-dashoffset="0" style="mix-blend-mode: normal"><g stroke="#000000" stroke-linecap="butt"><path d="M241.84108,160.72365c0.88747,0.56044 1.80675,1.94335 1.6407,3.09457c-0.16591,1.01958 -1.35399,3.84715 -2.40843,5.09585c1.90655,1.12106 -1.29565,9.374 -0.61169,14.47403c0.9774,7.04142 6.66621,8.85848 8.66748,12.90754c1.08262,2.20563 -1.2209,2.72887 -1.94458,2.66209c-10.52647,-0.54059 -14.36716,-6.69761 -15.80951,-10.44989c-1.90139,-4.93718 -0.05116,-10.85626 2.22504,-15.49169c0.4618,-0.92052 1.64853,-2.69538 2.43895,-3.35224c1.25155,-1.05106 1.58059,-1.11642 3.09395,-1.18018c0.29614,-0.03249 1.95211,-8.25463 2.7081,-7.76009z" fill="#fff63b" fill-rule="evenodd" stroke-width="5"/><path d="M239.86574,168.42136l1.94788,-6.30394l0.53287,0.32217c0.13412,0.46911 0.51904,1.08425 0.56898,1.40477c0.11509,0.73859 -0.47706,2.16599 -0.74024,2.83106c-0.23361,0.59035 -0.98373,1.64807 -1.31235,2.25169c-0.02147,0.01857 -0.04099,0.03933 -0.05823,0.06191z" fill="url(#color-1)" fill-rule="nonzero" stroke-width="0"/></g><path d="M213.21554,210.75499v-64.11468h56.60261v64.11468z" fill="none" fill-rule="nonzero" stroke="none" stroke-width="none" stroke-linecap="butt"/><path d="M222.61314,200.94633v-43.59918h37.0593v43.59918z" fill="none" fill-rule="nonzero" stroke="#c5baba" stroke-width="2.5" stroke-linecap="round"/><path d="M231.33297,157.34716v42.76073" fill="none" fill-rule="nonzero" stroke="#c5baba" stroke-width="2.5" stroke-linecap="round"/><path d="M239.38205,199.10175v-41.41922" fill="none" fill-rule="nonzero" stroke="#c5baba" stroke-width="2.5" stroke-linecap="round"/><path d="M247.09575,158.01791v41.41922" fill="none" fill-rule="nonzero" stroke="#c5baba" stroke-width="2.5" stroke-linecap="round"/><path d="M252.12643,157.51485v42.76073" fill="none" fill-rule="nonzero" stroke="#c5baba" stroke-width="2.5" stroke-linecap="round"/></g></g></svg>