<svg version="1.1" xmlns="http://www.w3.org/2000/svg" xmlns:xlink="http://www.w3.org/1999/xlink" width="65.37606" height="58.14568" viewBox="0,0,65.37606,58.14568"><g transform="translate(-207.31197,-150.92716)"><g data-paper-data="{&quot;isPaintingLayer&quot;:true}" fill-rule="nonzero" stroke-linecap="butt" stroke-linejoin="miter" stroke-miterlimit="10" stroke-dasharray="" stroke-dashoffset="0" style="mix-blend-mode: normal"><path d="M213.66798,183.5143c0,-14.11559 11.44294,-25.55854 25.55854,-25.55854c14.11559,0 25.55854,11.44294 25.55854,25.55854c0,14.11559 -11.44294,25.55854 -25.55854,25.55854c-14.11559,0 -25.55854,-11.44294 -25.55854,-25.55854z" fill="#523404" stroke="none" stroke-width="NaN"/><path d="M207.31197,160.9488c0,-5.53479 4.48684,-10.02164 10.02164,-10.02164c5.53479,0 10.02164,4.48684 10.02164,10.02164c0,5.53479 -4.48684,10.02164 -10.02164,10.02164c-5.53479,0 -10.02164,-4.48684 -10.02164,-10.02164z" fill="#523404" stroke="none" stroke-width="0"/><path d="M252.64475,161.89043c0,-5.53479 4.48683,-10.02164 10.02164,-10.02164c5.5348,0 10.02164,4.48684 10.02164,10.02164c0,5.5348 -4.48683,10.02164 -10.02164,10.02164c-5.53479,0 -10.02164,-4.48683 -10.02164,-10.02164z" fill="#523404" stroke="none" stroke-width="0"/><path d="M209.36338,160.64613c0,-4.42041 3.36627,-8.00385 7.51878,-8.00385c4.1525,0 7.51878,3.58345 7.51878,8.00385c0,4.42041 -3.36627,8.00385 -7.51878,8.00385c-4.1525,0 -7.51878,-3.58345 -7.51878,-8.00385z" fill="#a86b08" stroke="none" stroke-width="NaN"/><path d="M254.96519,161.72228c0,-4.42041 3.36627,-8.00385 7.51878,-8.00385c4.15251,0 7.51878,3.58345 7.51878,8.00385c0,4.42041 -3.36627,8.00385 -7.51878,8.00385c-4.1525,0 -7.51878,-3.58345 -7.51878,-8.00385z" fill="#a86b08" stroke="none" stroke-width="NaN"/><path d="M218.37613,184.58777c0,-12.25827 9.33504,-22.19557 20.85038,-22.19557c11.51534,0 20.85038,9.9373 20.85038,22.19557c0,12.25827 -9.33504,22.19557 -20.85038,22.19557c-11.51534,0 -20.85038,-9.9373 -20.85038,-22.19557z" fill="#a86b08" stroke="#523404" stroke-width="4"/><path d="M231.79436,181.52747c0,3.49175 -1.08407,6.32238 -2.42134,6.32238c-1.33726,0 -2.42134,-2.83063 -2.42134,-6.32238c0,-3.49175 1.08407,-6.32238 2.42134,-6.32238c1.33727,0 2.42134,2.83062 2.42134,6.32238z" fill="#000000" stroke="none" stroke-width="0"/><path d="M230.85273,179.37517c0,0.89151 -0.30112,1.61422 -0.67259,1.61422c-0.37146,0 -0.67259,-0.72271 -0.67259,-1.61422c0,-0.89151 0.30112,-1.61422 0.67259,-1.61422c0.37146,0 0.67259,0.72271 0.67259,1.61422z" fill="#ffffff" stroke="none" stroke-width="0"/><path d="M248.87822,181.25843c0,3.49175 -1.08407,6.32238 -2.42134,6.32238c-1.33726,0 -2.42134,-2.83062 -2.42134,-6.32238c0,-3.49175 1.08407,-6.32238 2.42134,-6.32238c1.33727,0 2.42134,2.83063 2.42134,6.32238z" fill="#000000" stroke="none" stroke-width="0"/><path d="M247.93659,179.10613c0,0.89151 -0.30112,1.61422 -0.67259,1.61422c-0.37146,0 -0.67259,-0.72271 -0.67259,-1.61422c0,-0.89151 0.30112,-1.61422 0.67259,-1.61422c0.37146,0 0.67259,0.72271 0.67259,1.61422z" fill="#ffffff" stroke="none" stroke-width="0"/><path d="M252.64412,189.03261c0.60451,0.40301 0.20151,1.00753 0.20151,1.00753l-0.48303,0.72331c-0.68046,0.82767 -1.41279,1.19569 -2.33608,1.72293c-0.47285,0.23336 -0.84498,0.65784 -1.33891,0.84246c-1.96198,0.73339 -4.58847,0.0577 -6.44312,-0.56203c-1.18537,-0.39609 -2.30091,-0.44397 -3.275,-1.30962c-0.52641,-0.4678 -0.85649,-0.98094 -1.12192,-1.52464c-1.41333,2.82095 -4.50286,3.79897 -7.92571,3.80224c-1.93387,0.00185 -3.34168,0.00825 -4.99422,-1.09464c-0.43988,-0.43988 -0.84303,-0.9213 -1.19012,-1.43756l-0.27781,-0.54308c0,0 -0.32492,-0.64983 0.32492,-0.97475c0.64983,-0.32492 0.97475,0.32492 0.97475,0.32492l0.18717,0.38689c0.26407,0.40009 0.56334,0.78088 0.90231,1.11986c1.325,0.88199 2.52062,0.76373 4.07298,0.76529c3.27762,0.00331 6.34443,-0.88276 7.08749,-4.28003c-0.02122,-0.04395 -0.04289,-0.08798 -0.06509,-0.13208c0,0 -0.32492,-0.64983 0.32492,-0.97475c0.18491,-0.09246 0.34351,-0.10599 0.47581,-0.07802c0.05644,-0.00336 0.11775,-0.00089 0.18435,0.00862c0.71924,0.10275 0.61649,0.82198 0.61649,0.82198c-0.01072,0.07151 -0.02216,0.14228 -0.03433,0.21229c0.25624,0.70236 0.45837,1.45498 0.92317,2.01424c0.90831,1.09291 1.99809,1.09156 3.27371,1.51579c2.44642,0.81359 4.36952,0.9597 6.63249,-0.18454c0.70323,-0.40213 1.35462,-0.6543 1.84878,-1.29947l0.44694,-0.67165c0,0 0.40301,-0.60451 1.00753,-0.20151z" fill="#000000" stroke="none" stroke-width="0.5"/></g></g></svg>