<svg version="1.1" xmlns="http://www.w3.org/2000/svg" xmlns:xlink="http://www.w3.org/1999/xlink" width="79.92882" height="78.996" viewBox="0,0,79.92882,78.996"><g transform="translate(-199.66957,-158.97496)"><g stroke="none" stroke-miterlimit="10"><path d="M203.77947,194.22589c-0.4795,-2.09376 -6.55274,-23.96427 3.52619,-27.92285c10.07893,-3.95857 64.20758,-0.61404 68.91488,-0.52893c4.61437,0.08343 3.28273,27.38985 0,28.45178c-10.56465,3.41756 -71.44318,4.35732 -72.44107,0z" fill="#22ff00" stroke-width="NaN"/><path d="M203.66684,232.51835c-4.45898,-11.52855 0,-38.61179 0,-38.61179h72.63954c0,0 5.19902,35.03672 0,38.6118c-9.06862,6.23599 -69.45409,8.23588 -72.63954,0z" fill="#253126" stroke-width="0"/><path d="M208.21922,203.34712c0,-1.38071 1.11929,-2.5 2.5,-2.5c1.38071,0 2.5,1.11929 2.5,2.5c0,1.38071 -1.11929,2.5 -2.5,2.5c-1.38071,0 -2.5,-1.11929 -2.5,-2.5z" fill="#000000" stroke-width="0.5"/><path d="M221.44244,207.22593c0,-1.38071 1.11929,-2.5 2.5,-2.5c1.38071,0 2.5,1.11929 2.5,2.5c0,1.38071 -1.11929,2.5 -2.5,2.5c-1.38071,0 -2.5,-1.11929 -2.5,-2.5z" fill="#000000" stroke-width="0.5"/><path d="M212.62696,220.27283c0,-1.38071 1.11929,-2.5 2.5,-2.5c1.38071,0 2.5,1.11929 2.5,2.5c0,1.38071 -1.11929,2.5 -2.5,2.5c-1.38071,0 -2.5,-1.11929 -2.5,-2.5z" fill="#000000" stroke-width="0.5"/><path d="M227.78958,226.26736c0,-1.38071 1.11929,-2.5 2.5,-2.5c1.38071,0 2.5,1.11929 2.5,2.5c0,1.38071 -1.11929,2.5 -2.5,2.5c-1.38071,0 -2.5,-1.11929 -2.5,-2.5z" fill="#000000" stroke-width="0.5"/><path d="M229.72898,214.102c0,-1.38071 1.11929,-2.5 2.5,-2.5c1.38071,0 2.5,1.11929 2.5,2.5c0,1.38071 -1.11929,2.5 -2.5,2.5c-1.38071,0 -2.5,-1.11929 -2.5,-2.5z" fill="#000000" stroke-width="0.5"/><path d="M247.00732,212.51521c0,-1.38071 1.11929,-2.5 2.5,-2.5c1.38071,0 2.5,1.11929 2.5,2.5c0,1.38071 -1.11929,2.5 -2.5,2.5c-1.38071,0 -2.5,-1.11929 -2.5,-2.5z" fill="#000000" stroke-width="0.5"/><path d="M249.29935,224.15165c0,-1.38071 1.11929,-2.5 2.5,-2.5c1.38071,0 2.5,1.11929 2.5,2.5c0,1.38071 -1.11929,2.5 -2.5,2.5c-1.38071,0 -2.5,-1.11929 -2.5,-2.5z" fill="#000000" stroke-width="0.5"/><path d="M231.8447,203.34712c0,-1.38071 1.11929,-2.5 2.5,-2.5c1.38071,0 2.5,1.11929 2.5,2.5c0,1.38071 -1.11929,2.5 -2.5,2.5c-1.38071,0 -2.5,-1.11929 -2.5,-2.5z" fill="#000000" stroke-width="0.5"/><path d="M256.17542,205.63914c0,-1.38071 1.11929,-2.5 2.5,-2.5c1.38071,0 2.5,1.11929 2.5,2.5c0,1.38071 -1.11929,2.5 -2.5,2.5c-1.38071,0 -2.5,-1.11929 -2.5,-2.5z" fill="#000000" stroke-width="0.5"/><path d="M264.63828,223.44641c0,-1.38071 1.11929,-2.5 2.5,-2.5c1.38071,0 2.5,1.11929 2.5,2.5c0,1.38071 -1.11929,2.5 -2.5,2.5c-1.38071,0 -2.5,-1.11929 -2.5,-2.5z" fill="#000000" stroke-width="0.5"/><path d="M267.28292,206.87331c0,-1.38071 1.11929,-2.5 2.5,-2.5c1.38071,0 2.5,1.11929 2.5,2.5c0,1.38071 -1.11929,2.5 -2.5,2.5c-1.38071,0 -2.5,-1.11929 -2.5,-2.5z" fill="#000000" stroke-width="0.5"/><path d="M262.52256,211.45736c0,-1.38071 1.11929,-2.5 2.5,-2.5c1.38071,0 2.5,1.11929 2.5,2.5c0,1.38071 -1.11929,2.5 -2.5,2.5c-1.38071,0 -2.5,-1.11929 -2.5,-2.5z" fill="#000000" stroke-width="0.5"/><path d="M212.24815,163.32485c0,0.51786 -0.26818,0.76754 -0.52678,0.88792c0.52065,1.5828 -0.7198,2.71959 -1.78793,3.59545c0,0 -0.78087,0.6247 -1.40556,-0.15617c-0.6247,-0.78087 0.15617,-1.40556 0.15617,-1.40556c0.39736,-0.30723 1.32511,-0.83088 1.09154,-1.53277c-0.18073,-0.54309 -0.94179,-1.05322 -0.69557,-1.56993c0.28635,-0.60093 1.21828,-0.53688 1.82742,-0.80533l0.34071,-0.0136c0,0 1,0 1,1z" fill="#22ff00" stroke-width="0.5"/><path d="M218.82946,163.73532c1,0 1,1 1,1l-0.4855,1.56274c-0.5877,0.35262 -1.17539,0.70523 -1.76309,1.05785c0,0 -0.8575,0.5145 -1.37199,-0.343c-0.5145,-0.8575 0.343,-1.37199 0.343,-1.37199c0.5877,-0.35262 1.1754,-0.70524 1.7631,-1.05786l-0.48551,0.15225c0,0 0,-1 1,-1z" fill="#22ff00" stroke-width="0.5"/><path d="M223.82398,162.79592c0,-1 1,-1 1,-1h0.70524c1.51002,0.00451 6.09416,0.63861 4.37234,3.47234c-0.38149,0.62785 -1.34279,0.59946 -2.03297,0.85121c-1.87666,0.68456 -3.85604,1.18344 -5.78421,1.6978c0,0 -0.96623,0.25767 -1.22389,-0.70857c-0.25767,-0.96624 0.70857,-1.2239 0.70857,-1.2239c1.95248,-0.52048 10.0275,-2.11008 3.96017,-2.08889h-0.70524c0,0 -1,0 -1,-1z" fill="#22ff00" stroke-width="0.5"/><path d="M235.57887,158.97497c1,0 1,1 1,1l-0.21913,-0.09577c2.51327,3.31013 0.02829,5.10421 -1.27754,8.08322c0,0 -0.40614,0.91381 -1.31995,0.50767c-0.91381,-0.40614 -0.50768,-1.31995 -0.50768,-1.31995c0.93246,-2.07336 3.44978,-3.82805 1.54342,-6.02155l-0.21913,-1.15362c0,0 0,-1 1,-1z" fill="#22ff00" stroke-width="0.5"/><path d="M241.28871,163.20502c0.03659,-0.26554 0.20594,-0.88017 0.98992,-0.88017c1,0 1,1 1,1l-0.1425,0.6908c-0.81452,1.35122 -1.79256,2.60273 -2.67008,3.91902c0,0 -0.5547,0.83205 -1.38675,0.27735c-0.83205,-0.5547 -0.27735,-1.38675 -0.27735,-1.38675c0.81145,-1.21717 1.72171,-2.37809 2.48677,-3.62025z" fill="#22ff00" stroke-width="0.5"/><path d="M248.80208,159.85651c1,0 1,1 1,1l-0.0136,0.01191c0.33397,2.0409 0.16104,3.9466 -0.17631,5.97071c0,0 -0.1644,0.9864 -1.1508,0.822c-0.98639,-0.1644 -0.82199,-1.15079 -0.82199,-1.15079c0.30027,-1.80164 0.48567,-3.49555 0.17631,-5.31311l-0.01361,-0.34071c0,0 0,-1 1,-1z" fill="#22ff00" stroke-width="0.5"/><path d="M252.93366,163.38351c-0.16562,-0.23094 -0.43389,-0.76282 0.09799,-1.2947c0.70711,-0.70711 1.41421,0 1.41421,0l0.67932,1.75053c-0.35628,0.57656 -1.02917,0.91772 -1.36666,1.50548c-0.38724,0.6744 0.36629,1.73715 -0.13829,2.3289c-0.37527,0.44009 -1.10432,0.34422 -1.65648,0.51633c0,0 -0.98639,0.1644 -1.15079,-0.822c-0.1644,-0.98639 0.82199,-1.15079 0.82199,-1.15079c0.87328,0.31131 -0.16184,-0.70309 0.32095,-1.73882c0.20676,-0.44356 0.61738,-0.7513 0.97776,-1.09493z" fill="#22ff00" stroke-width="0.5"/><path d="M260.20435,162.61961c0,1 -1,1 -1,1l0.15226,-0.4855c-0.89349,1.34008 -0.67579,2.73661 -1.85237,4.1808c0,0 -0.64019,0.76823 -1.40841,0.12804c-0.76822,-0.64019 -0.12803,-1.40841 -0.12803,-1.40841c1.13916,-1.32724 0.84359,-2.45352 1.67382,-3.92943l1.56273,-0.4855c0,0 1,0 1,1z" fill="#22ff00" stroke-width="0.5"/><path d="M264.78839,160.15128c0,1 -1,1 -1,1l-0.35075,-0.29289c1.27049,1.58925 -0.61453,5.66493 -1.7631,6.87607c0,0 -0.70711,0.70711 -1.41421,0c-0.70711,-0.70711 0,-1.41421 0,-1.41421c1.63129,-1.49978 1.40712,-4.74888 1.7631,-6.87608l1.76496,-0.29289c0,0 1,0 1,1z" fill="#22ff00" stroke-width="0.5"/><path d="M269.4303,159.32759c1,0 1,1 1,1v0.88154c-0.00861,2.88091 -1.75383,3.69787 -2.92652,6.08912c0,0 -0.44722,0.89443 -1.34164,0.44721c-0.89443,-0.44721 -0.44721,-1.34164 -0.44721,-1.34164c1.03118,-2.03075 2.72355,-2.85656 2.71538,-5.1947v-0.88154c0,0 0,-1 1,-1z" fill="#22ff00" stroke-width="0.5"/><path d="M279.5984,162.4433c0,1 -1,1 -1,1l-0.54084,-0.01361c-1.5555,0.03895 -0.30629,1.85253 -1.45417,2.94743c-0.82477,0.7867 -3.56312,1.34293 -4.71918,2.03665c0,0 -0.8575,0.5145 -1.37199,-0.343c-0.5145,-0.8575 0.343,-1.37199 0.343,-1.37199c1.31485,-0.78881 3.35198,-1.15338 4.44891,-1.84216c0.45812,-0.28767 -0.14731,-1.11437 0.03853,-1.6224c0.63242,-1.72884 0.86731,-1.42677 2.38611,-1.77731l0.86963,-0.01361c0,0 1,0 1,1z" fill="#22ff00" stroke-width="0.5"/><path d="M199.66957,162.4433c0,-1 1,-1 1,-1l1.55056,0.1298c1.11315,1.54102 2.32722,3.97334 4.23126,4.50557c0,0 0.94869,0.31622 0.63246,1.26491c-0.31623,0.94869 -1.26491,0.63246 -1.26491,0.63246c-1.89543,-0.69409 -3.95533,-2.64778 -4.58421,-4.66254l-0.56516,0.1298c0,0 -1,0 -1,-1z" fill="#22ff00" stroke-width="0.5"/></g></g></svg>