<svg version="1.1" xmlns="http://www.w3.org/2000/svg" xmlns:xlink="http://www.w3.org/1999/xlink" width="38.59871" height="38.23238" viewBox="0,0,38.59871,38.23238"><g transform="translate(-443.13669,-320.97069)"><g stroke="#442400" stroke-width="3.5" stroke-miterlimit="10"><path d="M445.15256,339.78046c0,-5.66048 -1.52298,-12.46032 2.72126,-15.56361c2.82028,-2.06212 10.57714,-1.49616 14.33851,-1.49616c5.33145,0 12.82601,-1.00197 15.95437,2.82865c2.40014,2.93893 1.8187,9.78407 1.8187,13.87447c0,5.34018 1.4652,14.10831 -2.37624,17.23644c-0.09181,0.07477 -1.40669,0.85847 -1.50615,0.92887c-0.10544,0.07463 -2.34854,-0.05635 -2.46209,0.01352c-0.27169,0.16719 3.80267,0.321 -4.94288,-0.14707c-1.89949,-0.21238 -3.13955,-0.1129 -3.89724,-0.15404c-1.76649,-0.09591 -1.36171,-0.05493 -3.8076,-0.05493c-3.4363,0 -10.52816,0.71754 -13.20587,-1.03041c-4.6642,-3.0447 -2.63477,-10.45018 -2.63477,-16.43573z" fill="#824800" stroke-linecap="butt"/><path d="M451.92091,331.64247h19.31065" fill="none" stroke-linecap="round"/><path d="M471.05108,340.12472h-18.9497" fill="none" stroke-linecap="round"/><path d="M451.74044,348.78744h19.85207" fill="none" stroke-linecap="round"/></g></g></svg>