<svg version="1.1" xmlns="http://www.w3.org/2000/svg" xmlns:xlink="http://www.w3.org/1999/xlink" width="596" height="468.10215" viewBox="0,0,596,468.10215"><defs><linearGradient x1="238.23339" y1="196.15308" x2="238.23339" y2="399.60212" gradientUnits="userSpaceOnUse" id="color-1"><stop offset="0" stop-color="#6b5100"/><stop offset="1" stop-color="#523800"/></linearGradient><linearGradient x1="127.5" y1="160.5" x2="127.5" y2="236.5" gradientUnits="userSpaceOnUse" id="color-2"><stop offset="0" stop-color="#059e00"/><stop offset="1" stop-color="#0f5600"/></linearGradient><linearGradient x1="64.5" y1="154.5" x2="64.5" y2="225.5" gradientUnits="userSpaceOnUse" id="color-3"><stop offset="0" stop-color="#059e00"/><stop offset="1" stop-color="#0f5600"/></linearGradient><linearGradient x1="312.5" y1="162.5" x2="312.5" y2="273.5" gradientUnits="userSpaceOnUse" id="color-4"><stop offset="0" stop-color="#059e00"/><stop offset="1" stop-color="#0f5600"/></linearGradient><linearGradient x1="227" y1="56.5" x2="227" y2="263.5" gradientUnits="userSpaceOnUse" id="color-5"><stop offset="0" stop-color="#059e00"/><stop offset="1" stop-color="#0f5600"/></linearGradient><linearGradient x1="295.5" y1="-68.5" x2="295.5" y2="187.5" gradientUnits="userSpaceOnUse" id="color-6"><stop offset="0" stop-color="#059e00"/><stop offset="1" stop-color="#0f5600"/></linearGradient><linearGradient x1="420.5" y1="-28.5" x2="420.5" y2="207.5" gradientUnits="userSpaceOnUse" id="color-7"><stop offset="0" stop-color="#059e00"/><stop offset="1" stop-color="#0f5600"/></linearGradient><linearGradient x1="319.5" y1="137.5" x2="319.5" y2="261.5" gradientUnits="userSpaceOnUse" id="color-8"><stop offset="0" stop-color="#059e00"/><stop offset="1" stop-color="#0f5600"/></linearGradient><linearGradient x1="76" y1="-56.5" x2="76" y2="210.5" gradientUnits="userSpaceOnUse" id="color-9"><stop offset="0" stop-color="#059e00"/><stop offset="1" stop-color="#0f5600"/></linearGradient></defs><g transform="translate(57.5,68.5)"><g data-paper-data="{&quot;isPaintingLayer&quot;:true}" fill-rule="nonzero" stroke-linecap="butt" stroke-linejoin="miter" stroke-miterlimit="10" stroke-dasharray="" stroke-dashoffset="0" style="mix-blend-mode: normal"><path d="M-40.5,389.5v-422h543v422z" fill="#009db3" stroke="none" stroke-width="0"/><path d="M146.5,393.00588c-0.32173,0 -0.64157,-0.00572 -0.95932,-0.01701c-4.30152,2.93052 -9.53897,4.52147 -16.04068,4.24894c-10.57245,-0.44317 -18.75,-5.14474 -18.75,-13.22476c0,-2.63996 1.52429,-5.19877 2.92969,-7.64556c0.37184,-0.64738 1.64684,-0.81484 2.24848,-1.36964c1.32914,-1.22568 1.04092,-3.76921 2.16558,-5.3557c2.40438,-3.39171 5.45332,-6.97064 7.36728,-10.48712c1.93209,-3.5498 1.41118,-6.58451 2.80888,-9.68282c0.73189,-1.62239 1.89821,-3.15598 3.47466,-4.45383c1.65885,-1.36568 -0.28951,-3.64104 0.29841,-5.39092c0.49165,-1.46332 2.30579,-3.75954 2.76031,-5.36266c0.48209,-1.70036 0.55663,-3.58935 1.23969,-5.21715c3.08257,-7.34612 7.5697,-14.61362 7.70703,-22.51871c0.19896,-11.45286 0.00683,-22.90745 0,-34.36118c-0.00128,-2.14238 -2.11683,-4.38361 -2.11683,-6.68252c0,-2.65284 0.30341,-7.04575 -0.88317,-9.74539c-1.09542,-2.49222 -2.84563,-5.23596 -3.70703,-7.90324c-0.72084,-2.23206 -1.14338,-5.14573 -2.23969,-7.33311c-1.76846,-3.52848 -4.04393,-8.41389 -6.93178,-11.46017c-3.09757,-3.26749 -6.82849,-5.78661 -8.56167,-9.68908c-2.08531,-4.69532 -5.08603,-11.4852 0.33444,-15.91202c0.68059,-0.7586 1.4676,-1.46498 2.34622,-2.10872c3.41101,-2.49913 8.2028,-4.05406 13.50951,-4.05406c1.32863,0 2.62498,0.09747 3.87546,0.28282c2.19656,-0.63691 4.6024,-0.98814 7.12454,-0.98814c6.0805,-0.16923 32.06283,-0.93159 47.25357,0.13985c2.53351,0.1787 4.8894,0.96576 7.37246,1.27079c2.59685,0.31902 4.64762,-0.2373 7.30366,0.20664c2.58519,0.4321 4.83983,1.90035 7.49659,1.90932c24.29101,0.08204 48.70306,-1.77614 72.8738,-0.07133c2.41582,0.1704 4.45056,1.40917 6.99457,1.48197c8.52875,0.24409 28.71241,-2.35361 42.23015,0.76686l8.47521,-1.47218c4.02447,0.03665 8.06492,1.02613 11.3952,2.72169c5.26173,2.67893 8.75065,7.12044 7.60264,12.35129c-0.39632,1.80585 -1.28307,3.1542 -2.4367,4.35823c-1.15978,1.53636 -2.73674,2.89227 -4.62428,3.99253c-4.25486,3.69851 -7.16803,8.85743 -9.19333,13.38639c-3.02937,6.77424 -3.87623,13.8943 -4.89239,21.06149c-0.34299,2.41922 -2.34646,4.69305 -3.10114,7.05895c-1.0259,3.21618 -0.08945,7.17164 -1.5199,10.34255c-3.59697,7.97348 -4.24391,17.65184 -4.4801,26.11672c-0.05861,2.10077 -1.9658,4.10571 -2,6.07346c-0.2129,12.24684 -0.51565,24.50092 0,36.74328c0.15883,3.77086 4.14718,7.57364 6.65625,10.52313c2.2837,2.68456 1.9323,5.9739 3.2641,8.87186c0.30624,0.66636 1.37914,1.05421 1.7359,1.70795c1.29923,2.38074 2.2339,5.1828 3.84534,7.51644c1.8436,2.66983 6.02216,4.54426 6.9785,7.57964c2.23242,7.08555 2.03105,12.91048 -8.84484,16.74597c-9.97479,3.51772 -16.17992,0.92307 -21.86206,-3.36794l-0.41074,0.09218l-4.49206,1.32014l-1.68622,-0.24069l-0.93417,0.06589h-21.84821l-2.2221,0.49868l-2.92969,0.20664h-0.52245l-0.52571,0.08239l-0.45999,-0.08239h-5.34006l-2.2221,0.49868l-2.92969,0.20664h-0.52245l-0.52571,0.0824l-0.45999,-0.0824h-64.49185l-2.92969,-0.20664l-2.7391,-0.61471l-1.29479,-0.12453l-1.64735,-0.46476h-7.38908l-1.45083,-0.10233l-0.18345,0.00817l-0.64588,-0.06667l-0.64953,-0.04582l-0.17516,-0.03931l-1.4427,-0.14891l-1.76068,-0.31047h-2.69177l-1.45083,-0.10232l-0.18345,0.00817l-0.64588,-0.06667l-0.64953,-0.04581l-0.17516,-0.03931l-1.4427,-0.14891l-1.76068,-0.31047h-5.18362l-0.45999,0.0824l-0.52571,-0.0824h-0.52245l-2.92969,-0.20664l-4.94138,-1.10895l-0.51418,-0.0806l-0.27138,-0.0957l-0.71837,-0.16122l-0.35918,-0.21879l-1.95351,-0.68892l-0.92323,-0.26047h-6.9539c-2.53555,0.90238 -5.40121,1.41064 -8.43518,1.41064zM225.25,279.13673v3.21081l0.43968,-3.25619z" fill="url(#color-1)" stroke="none" stroke-width="0.5"/><path d="M89.5,198.5c0,-20.98682 17.01318,-38 38,-38c20.98682,0 38,17.01318 38,38c0,20.98682 -17.01318,38 -38,38c-20.98682,0 -38,-17.01318 -38,-38z" fill="url(#color-2)" stroke="none" stroke-width="0"/><path d="M5.5,179.5c0,-13.80712 11.19288,-25 25,-25c8.34101,0 15.72796,4.08481 20.26952,10.36314c0.26597,0.04576 0.53049,0.09573 0.79351,0.14983c3.3036,-1.60977 7.01481,-2.51297 10.93697,-2.51297c10.77139,0 19.95174,6.81208 23.46794,16.36313c3.6844,-2.13861 7.96523,-3.36313 12.53206,-3.36313c13.80712,0 25,11.19288 25,25c0,13.80712 -11.19288,25 -25,25c-10.77139,0 -19.95174,-6.81208 -23.46794,-16.36313c-3.6844,2.13861 -7.96523,3.36313 -12.53206,3.36313c-1.73461,0 -3.42795,-0.17666 -5.06303,-0.51297c-3.3036,1.60977 -7.01481,2.51297 -10.93697,2.51297c-8.34101,0 -15.72796,-4.08481 -20.26952,-10.36313c-11.77316,-2.02588 -20.73048,-12.28532 -20.73048,-24.63686z" fill="url(#color-3)" stroke="none" stroke-width="0.5"/><path d="M433.5,164.5c4.56538,0 8.84495,1.22374 12.52856,3.3611c4.25603,-3.35749 9.62975,-5.3611 15.47144,-5.3611c13.80712,0 25,11.19288 25,25c0,13.80712 -11.19288,25 -25,25c-4.56538,0 -8.84495,-1.22374 -12.52856,-3.3611c-4.25603,3.3575 -9.62975,5.3611 -15.47144,5.3611c-3.33348,0 -6.51458,-0.65242 -9.42257,-1.83655c-3.46138,1.81182 -7.39974,2.83655 -11.57743,2.83655c-7.3161,0 -13.8982,-3.14265 -18.47001,-8.15165c-3.15008,6.53017 -9.0556,11.48154 -16.20775,13.34533c0.44317,1.86329 0.67776,3.80741 0.67776,5.80632c0,13.80712 -11.19288,25 -25,25c-1.06878,0 -2.12188,-0.06706 -3.15535,-0.19722c-1.39315,12.48783 -11.98502,22.19722 -24.84465,22.19722c-4.35899,0 -8.4574,-1.11559 -12.02533,-3.07684c-0.65153,0.05091 -1.31007,0.07684 -1.97467,0.07684c-8.18762,0 -15.45595,-3.93596 -20.0161,-10.019c-0.3264,0.01263 -0.65441,0.019 -0.9839,0.019c-7.48911,0 -14.20909,-3.29303 -18.79095,-8.51011c-4.16073,8.02603 -12.54445,13.51011 -22.20905,13.51011c-2.04763,0 -4.03777,-0.24617 -5.94242,-0.71053c-4.55081,4.7517 -10.95865,7.71053 -18.05758,7.71053c-7.20275,0 -13.69407,-3.04602 -18.25607,-7.92018c-2.14538,0.59959 -4.40722,0.92018 -6.74393,0.92018c-12.20391,0 -22.36545,-8.74448 -24.56071,-20.30955c-3.66341,2.10548 -7.91074,3.30955 -12.43929,3.30955c-13.80712,0 -25,-11.19288 -25,-25c0,-13.80712 11.19288,-25 25,-25c12.20391,0 22.36545,8.74448 24.56071,20.30955c3.66341,-2.10548 7.91074,-3.30955 12.43929,-3.30955c7.20275,0 13.69407,3.04602 18.25607,7.92018c2.14538,-0.59959 4.40722,-0.92018 6.74393,-0.92018c2.04763,0 4.03777,0.24617 5.94242,0.71053c4.55081,-4.7517 10.95865,-7.71053 18.05758,-7.71053c7.48911,0 14.20909,3.29303 18.79095,8.51011c4.16073,-8.02603 12.54445,-13.51011 22.20905,-13.51011c8.18762,0 15.45595,3.93596 20.0161,10.019c0.3264,-0.01263 0.65441,-0.019 0.9839,-0.019c4.35899,0 8.4574,1.11559 12.02533,3.07684c0.65153,-0.05091 1.31007,-0.07684 1.97467,-0.07684c1.06878,0 2.12188,0.06706 3.15535,0.19722c1.15652,-10.36682 8.65242,-18.81887 18.5224,-21.3909c-0.44317,-1.86329 -0.67776,-3.80741 -0.67776,-5.80632c0,-13.80712 11.19288,-25 25,-25c7.3161,0 13.8982,3.14265 18.47001,8.15165c4.03948,-8.37391 12.61001,-14.15165 22.52999,-14.15165c3.33348,0 6.51458,0.65242 9.42257,1.83655c3.46138,-1.81182 7.39974,-2.83655 11.57743,-2.83655z" fill="url(#color-4)" stroke="none" stroke-width="0.5"/><path d="M123.5,160c0,-57.16147 46.33853,-103.5 103.5,-103.5c57.16147,0 103.5,46.33853 103.5,103.5c0,57.16147 -46.33853,103.5 -103.5,103.5c-57.16147,0 -103.5,-46.33853 -103.5,-103.5z" fill="url(#color-5)" stroke="none" stroke-width="0"/><path d="M167.5,59.5c0,-70.69245 57.30755,-128 128,-128c70.69245,0 128,57.30755 128,128c0,70.69245 -57.30755,128 -128,128c-70.69245,0 -128,-57.30755 -128,-128z" fill="url(#color-6)" stroke="none" stroke-width="0"/><path d="M302.5,89.5c0,-65.1696 52.8304,-118 118,-118c65.1696,0 118,52.8304 118,118c0,65.1696 -52.8304,118 -118,118c-65.1696,0 -118,-52.8304 -118,-118z" fill="url(#color-7)" stroke="none" stroke-width="0"/><path d="M257.5,199.5c0,-34.24166 27.75835,-62 62,-62c34.24165,0 62,27.75834 62,62c0,34.24166 -27.75835,62 -62,62c-34.24165,0 -62,-27.75834 -62,-62z" fill="url(#color-8)" stroke="none" stroke-width="0"/><path d="M156.5,287c2.5,0 2.5,2.5 2.5,2.5l-0.12829,0.20943c0.36533,1.13004 0.89612,2.21943 1.09601,3.39011c0.15857,0.92865 -0.29353,1.92026 -0.0346,2.82608c0.71363,2.49646 2.59671,4.61467 3.0346,7.17392c0.34264,2.00257 -0.2811,4.08481 0.01355,6.095c1.11938,7.63681 2.32213,16.57446 -0.10956,24.09603c0,0 -0.79057,2.37171 -3.16228,1.58114c-2.37171,-0.79057 -1.58114,-3.16228 -1.58114,-3.16228c2.31802,-6.69229 0.83936,-15.09915 -0.10956,-21.90397c-0.27185,-1.94948 0.32557,-3.96155 0.01355,-5.905c-0.39817,-2.48 -2.29865,-4.49147 -2.9654,-6.82608c-0.53636,-1.87807 -0.29934,-3.93822 -0.93859,-5.78381l-0.12829,-1.79057c0,0 0,-2.5 2.5,-2.5z" fill="#403000" stroke="none" stroke-width="0.5"/><path d="M306.10634,333.92536c-2.42536,0.60634 -3.0317,-1.81902 -3.0317,-1.81902l-1.05591,-4.30088c-0.01765,-3.11494 0.46326,-6.83813 0.01355,-9.905c-0.44049,-3.00405 -1.58072,-5.99419 -2,-9c-1.09101,-7.82148 -0.03228,-16.48722 -0.03228,-24.40046c0,0 0,-2.5 2.5,-2.5c2.5,0 2.5,2.5 2.5,2.5c0,5.66667 0,11.33333 0,17c0,2.19988 -0.35145,4.42294 -0.03228,6.59954c0.44049,3.00405 1.58072,5.99419 2,9c0.44217,3.16994 0.03598,6.86787 0.01355,10.095l0.94409,3.69912c0,0 0.60634,2.42536 -1.81902,3.0317z" fill="#403000" stroke="none" stroke-width="0.5"/><path d="M191.38197,273.26393c2.23607,-1.11804 3.35411,1.11803 3.35411,1.11803l0.84405,1.73129c3.16523,4.84272 3.41987,8.78533 3.41987,14.38675c0,0 0,2.5 -2.5,2.5c-2.5,0 -2.5,-2.5 -2.5,-2.5c0,-4.60334 0.10925,-7.67831 -2.58013,-11.61325l-1.15595,-2.26871c0,0 -1.11803,-2.23607 1.11804,-3.35411z" fill="#403000" stroke="none" stroke-width="0.5"/><path d="M263.61804,279.26393c2.23607,1.11804 1.11803,3.35411 1.11803,3.35411l-0.73607,0.88196c-0.02178,2.29445 -0.42244,4.60728 -1.12829,6.79057c0,0 -0.79057,2.37171 -3.16228,1.58114c-2.37171,-0.79057 -1.58114,-3.16228 -1.58114,-3.16228c0.57624,-1.66365 0.89357,-3.44894 0.87171,-5.20943l1.26393,-3.11804c0,0 1.11804,-2.23607 3.35411,-1.11803z" fill="#403000" stroke="none" stroke-width="0.5"/><path d="M225.5,298c2.5,0 2.5,2.5 2.5,2.5c0,6.66667 0,15.33333 0,22c0,5.09699 0.44669,9.91893 -1.12829,14.79057c0,0 -0.79057,2.37171 -3.16228,1.58114c-2.37171,-0.79057 -1.58114,-3.16228 -1.58114,-3.16228c1.46376,-4.22599 0.87171,-8.75463 0.87171,-13.20943c0,-6.66667 0,-13.33333 0,-20v-2c0,0 0,-2.5 2.5,-2.5z" fill="#403000" stroke="none" stroke-width="0.5"/><path d="M320.38196,317.26393c2.23607,-1.11804 3.35411,1.11803 3.35411,1.11803l1.26393,3.11804c-0.02352,1.89403 0.66612,3.72952 0.96772,5.59954c0.47242,2.92917 0.03228,6.42654 0.03228,9.40046c0,0 0,2.5 -2.5,2.5c-2.5,0 -2.5,-2.5 -2.5,-2.5c0,-2.68095 0.4882,-5.96146 0.03228,-8.59954c-0.36802,-2.12949 -1.01177,-4.2395 -1.03228,-6.40046l-0.73607,-0.88196c0,0 -1.11804,-2.23607 1.11803,-3.35411z" fill="#403000" stroke="none" stroke-width="0.5"/><path d="M279.38196,312.26393c2.23607,-1.11804 3.35411,1.11803 3.35411,1.11803l1.13564,2.32747c1.01984,3.15453 0.9309,5.91343 2,9c0,0 0.79057,2.37171 -1.58114,3.16228c-2.37171,0.79057 -3.16228,-1.58114 -3.16228,-1.58114c-1.01984,-3.15453 -0.9309,-5.91343 -2,-9l-0.86436,-1.67253c0,0 -1.11804,-2.23607 1.11803,-3.35411z" fill="#403000" stroke="none" stroke-width="0.5"/><path d="M203.5,322c2.5,0 2.5,2.5 2.5,2.5c0,3.33333 0,8.66667 0,12c0,0 0,2.5 -2.5,2.5c-2.5,0 -2.5,-2.5 -2.5,-2.5c0,-3.33333 0,-6.66667 0,-10v-2c0,0 0,-2.5 2.5,-2.5z" fill="#403000" stroke="none" stroke-width="0.5"/><path d="M147.5,333c2.5,0 2.5,2.5 2.5,2.5l-0.12829,2.79057c-0.57624,1.66365 -0.89357,3.44894 -0.87171,5.20943c0,0 0,2.5 -2.5,2.5c-2.5,0 -2.5,-2.5 -2.5,-2.5c0.02178,-2.29445 0.42244,-4.60728 1.12829,-6.79057l-0.12829,-1.20943c0,0 0,-2.5 2.5,-2.5z" fill="#403000" stroke="none" stroke-width="0.5"/><path d="M171.89366,299.07464c2.42535,-0.60634 3.03169,1.81902 3.03169,1.81902l0.86093,3.59495c0.70215,1.09564 1.71464,2.04598 2.10645,3.28692c0.37394,1.18437 0.07152,2.48298 0.10727,3.72446c0,0 0,2.5 -2.5,2.5c-2.5,0 -2.5,-2.5 -2.5,-2.5c0.08317,-1.7643 -0.77541,-3.54023 -1.78628,-4.98861l-1.13907,-4.40505c0,0 -0.60634,-2.42536 1.81902,-3.0317z" fill="#403000" stroke="none" stroke-width="0.5"/><path d="M165,277.54413c-0.53143,-0.34804 -1,-0.96179 -1,-2.04413c0,-2.5 2.5,-2.5 2.5,-2.5l3.5,2.5c0,2 0,4 0,6c0,0 0,2.5 -2.5,2.5c-2.5,0 -2.5,-2.5 -2.5,-2.5c0,-1.31862 0,-2.63725 0,-3.95587z" fill="#403000" stroke="none" stroke-width="0.5"/><path d="M213.5,283c2.5,0 2.5,2.5 2.5,2.5c0,2 0,6 0,8c0,0 0,2.5 -2.5,2.5c-2.5,0 -2.5,-2.5 -2.5,-2.5c0,-2 0,-4 0,-6v-2c0,0 0,-2.5 2.5,-2.5z" fill="#403000" stroke="none" stroke-width="0.5"/><path d="M241.5,308c2.5,0 2.5,2.5 2.5,2.5v1c-0.02178,2.29445 -0.42244,4.60728 -1.12829,6.79057c0,0 -0.79057,2.37171 -3.16228,1.58114c-2.37171,-0.79057 -1.58114,-3.16228 -1.58114,-3.16228c0.57624,-1.66365 0.89357,-3.44894 0.87171,-5.20943v-1c0,0 0,-2.5 2.5,-2.5z" fill="#403000" stroke="none" stroke-width="0.5"/><path d="M258.38196,331.26393c2.23607,-1.11804 3.35411,1.11803 3.35411,1.11803l1.26393,3.11804c0,3.62844 -0.00135,6.30476 -1.12829,9.79057c0,0 -0.79057,2.37171 -3.16228,1.58114c-2.37171,-0.79057 -1.58114,-3.16228 -1.58114,-3.16228c1.01635,-2.93428 0.87171,-5.11442 0.87171,-8.20943l-0.73607,-0.88196c0,0 -1.11804,-2.23607 1.11803,-3.35411z" fill="#403000" stroke="none" stroke-width="0.5"/><path d="M293.70943,337.12829c2.37171,-0.79057 3.16228,1.58114 3.16228,1.58114l1,3c0.3761,1.26353 1.12829,2.47226 1.12829,3.79057c0,1.31831 -0.75219,2.52704 -1.12829,3.79057c0,0 -0.79057,2.37171 -3.16228,1.58114c-2.37171,-0.79057 -1.58114,-3.16228 -1.58114,-3.16228c0.54059,-1.37017 0.54059,-3.04869 0,-4.41886l-1,-3c0,0 -0.79057,-2.37171 1.58114,-3.16228z" fill="#403000" stroke="none" stroke-width="0.5"/><path d="M285.73224,285.73224c1.76776,-1.76776 3.53553,0 3.53553,0l1.60395,1.97719c1.48281,4.58654 1.12829,8.99504 1.12829,13.79057c0,0 0,2.5 -2.5,2.5c-2.5,0 -2.5,-2.5 -2.5,-2.5c0,-4.17215 0.49829,-8.25415 -0.87171,-12.20943l-0.39605,-0.02281c0,0 -1.76776,-1.76776 0,-3.53553z" fill="#403000" stroke="none" stroke-width="0.5"/><path d="M280.73224,272.73224c1.76776,-1.76776 3.53553,0 3.53553,0l1.73224,2.76776c0,1 0,2 0,3c0,0 0,2.5 -2.5,2.5c-2.5,0 -2.5,-2.5 -2.5,-2.5c0,-1 0,-2 0,-3l-0.26776,0.76776c0,0 -1.76776,-1.76776 0,-3.53553z" fill="#403000" stroke="none" stroke-width="0.5"/><path d="M261.5,298c2.5,0 2.5,2.5 2.5,2.5c0,1 0,4 0,5c0,0 0,2.5 -2.5,2.5c-2.5,0 -2.5,-2.5 -2.5,-2.5c0,-1 0,-2 0,-3v-2c0,0 0,-2.5 2.5,-2.5z" fill="#403000" stroke="none" stroke-width="0.5"/><path d="M242.5,277c2.5,0 2.5,2.5 2.5,2.5v2c0,3.49288 0.05007,5.96411 0.92535,9.39366c0,0 0.60634,2.42536 -1.81902,3.0317c-2.42535,0.60634 -3.03169,-1.81902 -3.03169,-1.81902c-0.93687,-3.81599 -1.07465,-6.73235 -1.07465,-10.60634v-2c0,0 0,-2.5 2.5,-2.5z" fill="#403000" stroke="none" stroke-width="0.5"/><path d="M200.29057,310.12829c2.37171,0.79057 1.58114,3.16228 1.58114,3.16228l-1.24509,3.52376c-0.78628,0.81781 -1.57258,1.63562 -2.35886,2.45344c0,0 -1.76776,1.76776 -3.53553,0c-1.76776,-1.76776 0,-3.53553 0,-3.53553c0.54704,-0.51552 1.0941,-1.03105 1.64114,-1.54656l0.75491,-2.47624c0,0 0.79057,-2.37171 3.16228,-1.58114z" fill="#403000" stroke="none" stroke-width="0.5"/><path d="M183.5,332c2.5,0 2.5,2.5 2.5,2.5l-0.12829,2.79057c-0.57624,1.66365 -0.89357,3.44894 -0.87171,5.20943c0,0 0,2.5 -2.5,2.5c-2.5,0 -2.5,-2.5 -2.5,-2.5c0.02178,-2.29445 0.42244,-4.60728 1.12829,-6.79057l-0.12829,-1.20943c0,0 0,-2.5 2.5,-2.5z" fill="#403000" stroke="none" stroke-width="0.5"/><path d="M168.5,336c2.5,0 2.5,2.5 2.5,2.5c0,1 0,5 0,6c0,0 0,2.5 -2.5,2.5c-2.5,0 -2.5,-2.5 -2.5,-2.5c0,-1 0,-2 0,-3v-3c0,0 0,-2.5 2.5,-2.5z" fill="#403000" stroke="none" stroke-width="0.5"/><path d="M228.26777,273.73223c1.76777,1.76777 0,3.53553 0,3.53553l-0.26777,-0.76777c0,3 0,6 0,9c0,0 0,2.5 -2.5,2.5c-2.5,0 -2.5,-2.5 -2.5,-2.5c0,-3 0,-6 0,-9l1.73223,-2.76777c0,0 1.76777,-1.76777 3.53553,0z" fill="#403000" stroke="none" stroke-width="0.5"/><path d="M-57.5,77c0,-73.73001 59.76999,-133.5 133.5,-133.5c73.73001,0 133.5,59.76999 133.5,133.5c0,73.73001 -59.76999,133.5 -133.5,133.5c-73.73001,0 -133.5,-59.76999 -133.5,-133.5z" fill="url(#color-9)" stroke="#000000" stroke-width="0"/></g></g></svg>