<svg version="1.1" xmlns="http://www.w3.org/2000/svg" xmlns:xlink="http://www.w3.org/1999/xlink" width="88.84233" height="88.99791" viewBox="0,0,88.84233,88.99791"><defs><linearGradient x1="256.26077" y1="107.51389" x2="247.99639" y2="134.26003" gradientUnits="userSpaceOnUse" id="color-1"><stop offset="0" stop-color="#c78b15"/><stop offset="1" stop-color="#c78b15" stop-opacity="0"/></linearGradient><linearGradient x1="256.26077" y1="107.51389" x2="247.99639" y2="134.26003" gradientUnits="userSpaceOnUse" id="color-2"><stop offset="0" stop-color="#c78b15"/><stop offset="1" stop-color="#c78b15" stop-opacity="0"/></linearGradient><linearGradient x1="276.71014" y1="101.07131" x2="276.71014" y2="186.42398" gradientUnits="userSpaceOnUse" id="color-3"><stop offset="0" stop-color="#ffcc00"/><stop offset="1" stop-color="#ff8400"/></linearGradient></defs><g transform="translate(-195.57411,-135.75104)"><g data-paper-data="{&quot;isPaintingLayer&quot;:true}" fill-rule="nonzero" stroke-linejoin="miter" stroke-miterlimit="10" stroke-dasharray="" stroke-dashoffset="0" style="mix-blend-mode: normal"><path d="" fill="url(#color-1)" stroke="#000000" stroke-width="0" stroke-linecap="butt"/><path d="" fill="url(#color-2)" stroke="#000000" stroke-width="0" stroke-linecap="butt"/><path d="" fill="url(#color-3)" stroke="#000000" stroke-width="2.5" stroke-linecap="butt"/><path d="" fill="#a06900" stroke="#000000" stroke-width="2.5" stroke-linecap="butt"/><path d="M212.12769,191.56371c-2.4952,-0.72381 -2.24188,-3.51026 -2.24188,-3.51026c0.30821,-1.70968 -0.07345,-3.70713 0.92462,-5.12906c0.96667,-1.3772 3.00844,-1.52638 4.4053,-2.4644c3.41862,-2.29567 5.70355,-5.90535 10.07017,-6.81444c2.38097,-0.4957 4.86725,0.47246 7.291,0.27199c1.43078,-0.11834 2.83977,-0.80094 4.26312,-0.61331c1.08315,0.14278 1.80751,1.3742 2.88486,1.55558c3.60139,0.60636 2.94916,-6.3138 3.35532,-6.51286c2.35891,-1.15616 5.45763,-0.1731 7.82049,0.97498c1.24029,0.60264 1.02885,2.58682 1.8259,3.71207c1.0119,1.42854 4.31518,-0.1817 4.83139,-0.02582c2.00818,0.6064 4.00606,1.70533 5.34732,3.31825c0.88569,1.06508 0.53513,2.71826 0.8027,4.0774c1.903,1.62097 5.98863,1.06203 6.64635,3.47375c2.63575,9.66494 -5.45777,7.42328 -10.16349,8.95709c-3.33763,1.0879 -6.55272,2.92842 -9.93194,3.83472c-5.42376,1.45465 -10.28968,0.52876 -15.60915,-0.22202c-4.74255,-0.66937 -10.01725,1.00854 -14.70894,-0.02128c-2.40293,-0.52744 -6.47929,-1.98637 -7.81312,-4.86238zM226.12582,189.91228c0.46124,-0.01479 0.92291,-0.03308 1.38326,-0.05211c-0.03216,-0.08554 -0.06096,-0.17274 -0.0862,-0.26142c-0.34386,0.08166 -0.78881,0.19215 -1.29706,0.31353z" fill="#828282" stroke="#000000" stroke-width="1.5" stroke-linecap="butt"/><path d="M201.34093,178.66146c0,-20.44322 17.26831,-37.01574 38.56984,-37.01574c21.30153,0 38.56984,16.57252 38.56984,37.01574c0,20.44322 -17.26831,37.01574 -38.56984,37.01574c-21.30153,0 -38.56984,-16.57252 -38.56984,-37.01574z" fill="none" stroke="#000000" stroke-width="3" stroke-linecap="butt"/><path d="M198.90915,180c0,-22.69384 18.39699,-41.09085 41.09085,-41.09085c22.69384,0 41.09085,18.39699 41.09085,41.09085c0,22.69384 -18.39699,41.09085 -41.09085,41.09085c-22.69384,0 -41.09085,-18.39699 -41.09085,-41.09085z" fill="none" stroke="#503400" stroke-width="3" stroke-linecap="butt"/><path d="M196.67445,178.33087c0,-22.96391 19.39751,-41.57983 43.32554,-41.57983c23.92804,0 43.32555,18.61592 43.32555,41.57983c0,22.96391 -19.39751,41.57983 -43.32555,41.57983c-23.92804,0 -43.32554,-18.61593 -43.32554,-41.57983z" fill="none" stroke="#000000" stroke-width="2" stroke-linecap="butt"/><path d="M233.67242,177.78503c2.02034,2.69379 -0.67345,4.71413 -0.67345,4.71413l-1.87637,1.31386c-1.37269,0.63355 -2.74539,1.2671 -4.11808,1.90066c0,0 -3.05732,1.41107 -4.46838,-1.64624c-1.41107,-3.05732 1.64624,-4.46838 1.64624,-4.46838c1.37269,-0.63355 2.74539,-1.2671 4.11808,-1.90066l0.65782,-0.5868c0,0 2.69379,-2.02034 4.71413,0.67345z" fill="#404040" stroke="#000000" stroke-width="1" stroke-linecap="butt"/><path d="M243.45015,174.10343c0,-1.85967 1.50757,-3.36724 3.36724,-3.36724c1.85967,0 3.36724,1.50757 3.36724,3.36724c0,0.92167 -0.3703,1.75685 -0.97024,2.36489c1.19255,-0.21673 2.27663,0.32532 2.27663,0.32532l3.09561,1.62091c0.95033,0.73914 1.90066,1.47828 2.85097,2.21742c0,0 2.65794,2.06728 0.59065,4.72522c-2.06728,2.65794 -4.72522,0.59065 -4.72522,0.59065c-0.95033,-0.73914 -1.90066,-1.47828 -2.85097,-2.21742l-1.9728,-0.91329c0,0 -3.01175,-1.50587 -1.50587,-4.51762c0.18528,-0.37054 0.39335,-0.67271 0.61579,-0.91771c-0.24784,0.05812 -0.50623,0.08887 -0.7718,0.08887c-1.85967,0 -3.36724,-1.50757 -3.36724,-3.36724z" fill="#404040" stroke="#000000" stroke-width="1" stroke-linecap="butt"/><path d="M253.58694,181.70603c0,-1.85967 1.50757,-3.36724 3.36724,-3.36724c1.85967,0 3.36724,1.50757 3.36724,3.36724c0,1.85967 -1.50757,3.36724 -3.36724,3.36724c-1.85967,0 -3.36724,-1.50757 -3.36724,-3.36724z" fill="#292929" stroke="#000000" stroke-width="1" stroke-linecap="butt"/><path d="M224.76042,181.07248c0,-1.85967 1.50757,-3.36724 3.36724,-3.36724c1.85967,0 3.36724,1.50757 3.36724,3.36724c0,1.85967 -1.50757,3.36724 -3.36724,3.36724c-1.85967,0 -3.36724,-1.50757 -3.36724,-3.36724z" fill="#292929" stroke="#000000" stroke-width="1" stroke-linecap="butt"/><path d="M237.74819,181.38925c0,-1.85967 1.50757,-3.36724 3.36724,-3.36724c1.85967,0 3.36724,1.50757 3.36724,3.36724c0,1.85967 -1.50757,3.36724 -3.36724,3.36724c-1.85967,0 -3.36724,-1.50757 -3.36724,-3.36724z" fill="#292929" stroke="#000000" stroke-width="1" stroke-linecap="butt"/><path d="M239.99919,223.24895c-20.72027,0 -38.0692,-14.43435 -42.53994,-33.79619c28.35663,-0.04454 56.71339,-0.00478 85.07016,0.042c-4.48612,19.34071 -21.82495,33.75419 -42.53022,33.75419z" fill="#503400" stroke="#000000" stroke-width="3" stroke-linecap="butt"/><path d="M278.17812,196.91123h-77.29313" fill="none" stroke="#000000" stroke-width="1" stroke-linecap="round"/><path d="M206.90371,206.73126h65.57245" fill="none" stroke="#000000" stroke-width="1" stroke-linecap="round"/><path d="M218.94117,216.23452h42.44787" fill="none" stroke="#000000" stroke-width="1" stroke-linecap="round"/></g></g></svg>