<svg version="1.1" xmlns="http://www.w3.org/2000/svg" xmlns:xlink="http://www.w3.org/1999/xlink" width="48.2778" height="52.72255" viewBox="0,0,48.2778,52.72255"><g transform="translate(-215.8611,-153.63873)"><g data-paper-data="{&quot;isPaintingLayer&quot;:true}" fill-rule="nonzero" stroke-linecap="butt" stroke-linejoin="miter" stroke-miterlimit="10" stroke-dasharray="" stroke-dashoffset="0" style="mix-blend-mode: normal"><path d="M218.3611,203.86127v-47.72255h43.2778v47.72255z" fill="#9966ff" stroke="#000000" stroke-width="5"/><path d="M226.09379,166.89305c0,-1.38071 1.11929,-2.5 2.5,-2.5c1.38071,0 2.5,1.11929 2.5,2.5c0,1.38071 -1.11929,2.5 -2.5,2.5c-1.38071,0 -2.5,-1.11929 -2.5,-2.5z" fill="#000000" stroke="none" stroke-width="0.5"/><path d="M243.39977,166.89305c0,-1.38071 1.11929,-2.5 2.5,-2.5c1.38071,0 2.5,1.11929 2.5,2.5c0,1.38071 -1.11929,2.5 -2.5,2.5c-1.38071,0 -2.5,-1.11929 -2.5,-2.5z" fill="#000000" stroke="none" stroke-width="0.5"/><path d="M256.36334,183.72766c0.20613,-0.73765 0.78108,-1.76641 2.3848,-1.76641c2.5,0 2.5,2.5 2.5,2.5l-0.5,1.76221c-2.69218,3.51083 -5.64719,5.09133 -9.66819,6.82873c0,0 -0.30465,0.13056 -0.73963,0.18568c-0.42909,0.31281 -0.83785,0.43544 -0.83785,0.43544l-3.16712,0.88605c-6.42393,-0.88808 -16.90401,-1.138 -20.69191,-7.53472c-0.5911,-0.9982 -0.54144,-2.25611 -0.81217,-3.38417c0,0 -0.49029,-2.45145 1.96116,-2.94174c2.45145,-0.49029 2.94174,1.96116 2.94174,1.96116c0.08917,0.70075 0.30838,1.32069 0.63384,1.87039c0.51159,-0.38164 1.02318,-0.76328 1.53477,-1.14492l1.74074,-1.74074l0.10381,0.10381c0.36338,-0.46022 0.95686,-0.83604 1.92617,-0.83604c2.5,0 2.5,2.5 2.5,2.5c0,0.87404 0,1.74808 0,2.62212l-1.12461,1.47377c-0.05126,0.22857 -0.13666,0.4655 -0.27326,0.69085c1.05604,0.24985 2.15218,0.43958 3.2293,0.59545c-0.06853,-1.1489 -0.24126,-2.35452 0.55272,-3.03399c5.2159,-4.46369 6.02256,-0.64075 7.88885,2.40511l0.04422,0.63886c0.01898,-0.00218 0.03845,-0.00424 0.05839,-0.00618c0.30482,-0.23203 0.56124,-0.34193 0.56124,-0.34193c3.01226,-1.27901 5.27256,-2.2571 7.25299,-4.72881z" fill="#000000" stroke="none" stroke-width="0.5"/></g></g></svg>