<svg version="1.1" xmlns="http://www.w3.org/2000/svg" xmlns:xlink="http://www.w3.org/1999/xlink" width="97.85863" height="83.48865" viewBox="0,0,97.85863,83.48865"><defs><linearGradient x1="256.26077" y1="107.5139" x2="247.99639" y2="134.26003" gradientUnits="userSpaceOnUse" id="color-1"><stop offset="0" stop-color="#c78b15"/><stop offset="1" stop-color="#c78b15" stop-opacity="0"/></linearGradient><linearGradient x1="256.26077" y1="107.5139" x2="247.99639" y2="134.26003" gradientUnits="userSpaceOnUse" id="color-2"><stop offset="0" stop-color="#c78b15"/><stop offset="1" stop-color="#c78b15" stop-opacity="0"/></linearGradient><linearGradient x1="276.71014" y1="101.07132" x2="276.71014" y2="186.42399" gradientUnits="userSpaceOnUse" id="color-3"><stop offset="0" stop-color="#ffcc00"/><stop offset="1" stop-color="#ff8400"/></linearGradient></defs><g transform="translate(-191.96927,-141.00705)"><g stroke-miterlimit="10"><path d="" fill="url(#color-1)" stroke="#000000" stroke-width="0" stroke-linecap="butt"/><path d="" fill="url(#color-2)" stroke="#000000" stroke-width="0" stroke-linecap="butt"/><path d="" fill="url(#color-3)" stroke="#000000" stroke-width="2.5" stroke-linecap="butt"/><path d="M257.73392,216.00651l-27.61531,-30.58696" fill="none" stroke="#924700" stroke-width="15" stroke-linecap="round"/><path d="M225.69805,216.99571l24.95858,-32.7908" fill="none" stroke="#924700" stroke-width="15" stroke-linecap="round"/><path d="M220.73293,151.32244c0,0 18.39968,14.12664 12.50287,20.8274c-7.58792,8.62243 -8.79939,14.90273 -16.21661,15.30121c-15.59402,0.83776 -17.54992,-10.77267 -17.54992,-10.77267" fill="none" stroke="#919191" stroke-width="15" stroke-linecap="round"/><path d="M205.5531,157.89456l18.44916,20.43445" fill="none" stroke="#919191" stroke-width="5" stroke-linecap="round"/><path d="M204.08963,158.93641l-2.84568,-5.77179l5.58245,3.42539z" fill="#919191" stroke="#919191" stroke-width="0.5" stroke-linecap="round"/><path d="M215.87448,148.77608l-2.84568,-5.77179l5.58245,3.42539z" fill="#919191" stroke="#919191" stroke-width="1.5" stroke-linecap="round"/><path d="M196.29728,172.40851l-2.84568,-5.77178l5.58245,3.42539z" fill="#919191" stroke="#919191" stroke-width="0.5" stroke-linecap="round"/><path d="M282.3279,171.36677c0,0 -8.52655,18.86727 -17.29318,16.16419c-5.32148,-1.64081 -9.31365,-6.70157 -18.27052,-15.55795c-8.46281,-8.36786 12.50287,-20.57066 12.50287,-20.57066" fill="none" stroke="#919191" stroke-width="15" stroke-linecap="round"/><path d="M274.4469,157.97447l-18.44917,20.43445" fill="none" stroke="#919191" stroke-width="5" stroke-linecap="round"/><path d="M273.17359,156.66993l5.58246,-3.42539l-2.84569,5.77178z" fill="#919191" stroke="#919191" stroke-width="0.5" stroke-linecap="round"/><path d="M262.06509,146.5096l5.58245,-3.4254l-2.84568,5.77179z" fill="#919191" stroke="#919191" stroke-width="1.5" stroke-linecap="round"/><path d="M280.96594,170.14202l5.58246,-3.4254l-2.84569,5.77179z" fill="#919191" stroke="#919191" stroke-width="0.5" stroke-linecap="round"/></g></g></svg>