<svg version="1.1" xmlns="http://www.w3.org/2000/svg" xmlns:xlink="http://www.w3.org/1999/xlink" width="83.65762" height="85.82698" viewBox="0,0,83.65762,85.82698"><defs><linearGradient x1="256.26078" y1="106.89305" x2="247.9964" y2="133.63919" gradientUnits="userSpaceOnUse" id="color-1"><stop offset="0" stop-color="#c78b15"/><stop offset="1" stop-color="#c78b15" stop-opacity="0"/></linearGradient><linearGradient x1="256.26078" y1="106.89305" x2="247.9964" y2="133.63919" gradientUnits="userSpaceOnUse" id="color-2"><stop offset="0" stop-color="#c78b15"/><stop offset="1" stop-color="#c78b15" stop-opacity="0"/></linearGradient><linearGradient x1="241.16259" y1="163.29089" x2="233.803" y2="168.14766" gradientUnits="userSpaceOnUse" id="color-3"><stop offset="0" stop-color="#c78b15"/><stop offset="1" stop-color="#c78b15" stop-opacity="0"/></linearGradient><linearGradient x1="241.00193" y1="163.98529" x2="235.00893" y2="170.45334" gradientUnits="userSpaceOnUse" id="color-4"><stop offset="0" stop-color="#c78b15"/><stop offset="1" stop-color="#c78b15" stop-opacity="0"/></linearGradient><linearGradient x1="240.22476" y1="164.26933" x2="237.57539" y2="172.67959" gradientUnits="userSpaceOnUse" id="color-5"><stop offset="0" stop-color="#c78b15"/><stop offset="1" stop-color="#c78b15" stop-opacity="0"/></linearGradient><linearGradient x1="235.66202" y1="165.08854" x2="243.02161" y2="169.9453" gradientUnits="userSpaceOnUse" id="color-6"><stop offset="0" stop-color="#c78b15"/><stop offset="1" stop-color="#c78b15" stop-opacity="0"/></linearGradient><linearGradient x1="235.82268" y1="165.78293" x2="241.81568" y2="172.25099" gradientUnits="userSpaceOnUse" id="color-7"><stop offset="0" stop-color="#c78b15"/><stop offset="1" stop-color="#c78b15" stop-opacity="0"/></linearGradient><linearGradient x1="236.59985" y1="166.06697" x2="239.24922" y2="174.47723" gradientUnits="userSpaceOnUse" id="color-8"><stop offset="0" stop-color="#c78b15"/><stop offset="1" stop-color="#c78b15" stop-opacity="0"/></linearGradient><linearGradient x1="240.51633" y1="155.78785" x2="248.67675" y2="159.1284" gradientUnits="userSpaceOnUse" id="color-9"><stop offset="0" stop-color="#c78b15"/><stop offset="1" stop-color="#c78b15" stop-opacity="0"/></linearGradient><linearGradient x1="240.80835" y1="156.43802" x2="247.93987" y2="161.62388" gradientUnits="userSpaceOnUse" id="color-10"><stop offset="0" stop-color="#c78b15"/><stop offset="1" stop-color="#c78b15" stop-opacity="0"/></linearGradient><linearGradient x1="241.6258" y1="156.56628" x2="245.85281" y2="164.30475" gradientUnits="userSpaceOnUse" id="color-11"><stop offset="0" stop-color="#c78b15"/><stop offset="1" stop-color="#c78b15" stop-opacity="0"/></linearGradient><linearGradient x1="239.48369" y1="156.38707" x2="231.32327" y2="159.72761" gradientUnits="userSpaceOnUse" id="color-12"><stop offset="0" stop-color="#c78b15"/><stop offset="1" stop-color="#c78b15" stop-opacity="0"/></linearGradient><linearGradient x1="239.19167" y1="157.03724" x2="232.06015" y2="162.2231" gradientUnits="userSpaceOnUse" id="color-13"><stop offset="0" stop-color="#c78b15"/><stop offset="1" stop-color="#c78b15" stop-opacity="0"/></linearGradient></defs><g transform="translate(-198.17121,-129.92887)"><g data-paper-data="{&quot;isPaintingLayer&quot;:true}" stroke="#000000" stroke-linejoin="miter" stroke-miterlimit="10" stroke-dasharray="" stroke-dashoffset="0" style="mix-blend-mode: normal"><path d="" fill="url(#color-1)" fill-rule="nonzero" stroke-width="0" stroke-linecap="butt"/><path d="" fill="url(#color-2)" fill-rule="nonzero" stroke-width="0" stroke-linecap="butt"/><path d="M240.75902,159.58964c0.44091,1.33163 0.21688,3.5395 -0.93127,4.58735c-1.03631,0.91203 -4.662,2.82376 -6.8102,3.21857c1.01756,2.7751 -9.29074,8.58018 -12.91134,14.42663c-4.96467,8.10004 -0.63211,14.80267 -2.00084,20.68153c-0.75336,3.19598 -3.57584,1.78197 -4.26645,1.09904c-10.41078,-9.48882 -9.15301,-19.10485 -7.45893,-24.20307c2.22535,-6.71117 9.15757,-11.25336 15.44061,-14.10869c1.25781,-0.55873 3.98899,-1.38458 5.36244,-1.39225c2.18405,-0.0235 2.57926,0.18817 4.19602,1.40626c0.33335,0.2177 9.0189,-6.8674 9.37996,-5.71537z" fill="#fff63b" fill-rule="evenodd" stroke-width="2.5" stroke-linecap="butt"/><path d="M232.75387,165.17431l7.35958,-4.85676l0.2769,0.78476c-0.25951,0.59819 -0.38392,1.55992 -0.60428,1.93326c-0.50778,0.86029 -2.33023,1.83182 -3.16622,2.29528c-0.74207,0.41138 -2.41399,0.86717 -3.26543,1.21166c-0.03792,0.00097 -0.07569,0.00583 -0.11266,0.01453z" fill="url(#color-3)" fill-rule="nonzero" stroke-width="0" stroke-linecap="butt"/><path d="M239.52992,160.47801c0.74502,1.18852 1.05263,3.3863 0.18671,4.6772c-0.78961,1.13237 -3.85645,3.85171 -5.84907,4.74619c1.64849,2.45339 -6.98298,10.54397 -9.1089,17.08386c-2.89532,9.04852 2.90731,14.52812 2.97633,20.56381c0.02853,3.28344 -3.0493,2.58144 -3.88254,2.0824c-12.36914,-6.73992 -13.43494,-16.37912 -13.00226,-21.73397c0.56502,-7.04789 6.21774,-13.10873 11.6412,-17.37671c1.0888,-0.8419 3.54511,-2.29374 4.87732,-2.6279c2.11576,-0.54236 2.54997,-0.43079 4.41009,0.36774c0.37557,0.13216 7.12639,-8.81569 7.75112,-7.78262z" fill="#fff63b" fill-rule="evenodd" stroke-width="2.5" stroke-linecap="butt"/><path d="M233.28261,167.81492l5.99299,-6.46804l0.45563,0.69636c-0.10976,0.64274 -0.00182,1.60647 -0.12705,2.02151c-0.28855,0.95639 -1.82758,2.33356 -2.52933,2.98257c-0.62291,0.5761 -2.13842,1.41652 -2.88346,1.95366c-0.0366,0.00996 -0.07213,0.02367 -0.10597,0.04091z" fill="url(#color-4)" fill-rule="nonzero" stroke-width="0" stroke-linecap="butt"/><path d="M237.76152,161.57327c1.18189,0.75548 2.40026,2.61033 2.16991,4.1476c-0.2292,1.36133 -1.83768,5.13135 -3.25599,6.79238c2.53967,1.51217 -1.80028,12.51783 -0.92366,19.33849c1.25452,9.41726 8.84368,11.88731 11.48846,17.31312c1.43062,2.95553 -1.65162,3.63789 -2.61826,3.54333c-14.06352,-0.79967 -19.15101,-9.05604 -21.05103,-14.08114c-2.50478,-6.61196 0.01127,-14.50858 3.08718,-20.68664c0.6239,-1.22679 2.22286,-3.58998 3.284,-4.46201c1.68028,-1.39545 2.12048,-1.48039 4.14339,-1.55449c0.396,-0.04124 2.66934,-11.0171 3.67601,-10.35065z" fill="#fff63b" fill-rule="evenodd" stroke-width="2.5" stroke-linecap="butt"/><path d="M234.8862,171.03346l2.64938,-8.41025l0.70976,0.43446c0.17579,0.6279 0.68569,1.45279 0.75008,1.8815c0.14839,0.98789 -0.65344,2.89112 -1.01003,3.77798c-0.31653,0.78722 -1.32674,2.19525 -1.77033,2.99952c-0.02882,0.02467 -0.05507,0.05226 -0.07828,0.08231z" fill="url(#color-5)" fill-rule="nonzero" stroke-width="0" stroke-linecap="butt"/><path d="M236.06559,161.3873c0.36105,-1.15203 9.0466,5.93308 9.37996,5.71537c1.61676,-1.2181 2.01197,-1.42976 4.19602,-1.40626c1.37346,0.00767 4.10463,0.83353 5.36244,1.39225c6.28304,2.85533 13.21526,7.39752 15.44061,14.10869c1.69407,5.09821 2.95184,14.71425 -7.45894,24.20307c-0.6906,0.68293 -3.51309,2.09694 -4.26645,-1.09904c-1.36873,-5.87885 2.96383,-12.58149 -2.00084,-20.68153c-3.6206,-5.84645 -13.9289,-11.65153 -12.91134,-14.42663c-2.1482,-0.39481 -5.77388,-2.30654 -6.8102,-3.21857c-1.14815,-1.04785 -1.37218,-3.25572 -0.93127,-4.58735z" data-paper-data="{&quot;index&quot;:null}" fill="#fff63b" fill-rule="evenodd" stroke-width="2.5" stroke-linecap="butt"/><path d="M243.58285,168.35468c-0.03697,-0.00869 -0.07474,-0.01355 -0.11266,-0.01452c-0.85143,-0.34448 -2.52336,-0.80027 -3.26543,-1.21166c-0.83599,-0.46345 -2.65844,-1.43499 -3.16622,-2.29528c-0.22036,-0.37334 -0.34477,-1.33508 -0.60428,-1.93326l0.27689,-0.78476l7.35958,4.85676z" data-paper-data="{&quot;index&quot;:null}" fill="url(#color-6)" fill-rule="nonzero" stroke-width="0" stroke-linecap="butt"/><path d="M236.69547,162.87487c0.62474,-1.03307 7.37555,7.91478 7.75112,7.78262c1.86012,-0.79853 2.29433,-0.91011 4.41009,-0.36774c1.33221,0.33417 3.78852,1.786 4.87732,2.6279c5.42345,4.26798 11.07618,10.32883 11.6412,17.37672c0.43268,5.35485 -0.63312,14.99405 -13.00226,21.73397c-0.83324,0.49904 -3.91106,1.20105 -3.88254,-2.0824c0.06902,-6.03569 5.87165,-11.51529 2.97633,-20.56381c-2.12592,-6.53989 -10.75739,-14.63048 -9.1089,-17.08386c-1.99262,-0.89448 -5.05946,-3.61382 -5.84907,-4.74619c-0.86592,-1.2909 -0.55831,-3.48868 0.18671,-4.6772z" data-paper-data="{&quot;index&quot;:null}" fill="#fff63b" fill-rule="evenodd" stroke-width="2.5" stroke-linecap="butt"/><path d="M242.73919,170.83954c-0.03384,-0.01724 -0.06937,-0.03094 -0.10597,-0.04091c-0.74505,-0.53714 -2.26056,-1.37757 -2.88346,-1.95366c-0.70175,-0.64901 -2.24078,-2.02618 -2.52933,-2.98257c-0.12522,-0.41505 -0.01729,-1.37877 -0.12705,-2.02151l0.45563,-0.69637l5.99299,6.46804z" data-paper-data="{&quot;index&quot;:null}" fill="url(#color-7)" fill-rule="nonzero" stroke-width="0" stroke-linecap="butt"/><path d="M239.06308,163.37092c1.00667,-0.66644 3.28001,10.30941 3.67601,10.35065c2.02292,0.0741 2.46312,0.15904 4.14339,1.55449c1.06114,0.87203 2.6601,3.23521 3.284,4.46201c3.0759,6.17805 5.59195,14.07468 3.08718,20.68664c-1.90002,5.02509 -6.9875,13.28146 -21.05103,14.08114c-0.96664,0.09455 -4.04888,-0.58781 -2.61826,-3.54333c2.64478,-5.42581 10.23394,-7.89586 11.48846,-17.31312c0.87662,-6.82066 -3.46333,-17.82632 -0.92366,-19.33849c-1.41831,-1.66103 -3.0268,-5.43106 -3.25599,-6.79238c-0.23035,-1.53726 0.98801,-3.39211 2.16991,-4.1476z" data-paper-data="{&quot;index&quot;:null}" fill="#fff63b" fill-rule="evenodd" stroke-width="2.5" stroke-linecap="butt"/><path d="M240.68784,173.59662c-0.02321,-0.03005 -0.04946,-0.05764 -0.07828,-0.08231c-0.44359,-0.80427 -1.4538,-2.2123 -1.77033,-2.99952c-0.35659,-0.88686 -1.15841,-2.79009 -1.01003,-3.77798c0.06439,-0.42871 0.57429,-1.25359 0.75008,-1.8815l0.70976,-0.43446l2.64938,8.41025z" data-paper-data="{&quot;index&quot;:null}" fill="url(#color-8)" fill-rule="nonzero" stroke-width="0" stroke-linecap="butt"/><path d="M240.19593,152.07849c0.13126,-1.20012 10.02385,4.07 10.30877,3.79189c1.35044,-1.50798 1.69721,-1.79213 3.84451,-2.19178c1.34897,-0.25829 4.18834,0.02335 5.53051,0.32807c6.71687,1.58531 14.39711,4.69994 17.87928,10.85352c2.64876,4.67394 5.74385,13.86472 -2.6336,25.18905c-0.54537,0.80368 -3.04082,2.73722 -4.39849,-0.25253c-2.48065,-5.50279 0.47275,-12.91722 -5.96575,-19.90324c-4.68368,-5.03517 -15.92059,-8.7354 -15.45937,-11.65497c-2.18399,0.02842 -6.11112,-1.14544 -7.30436,-1.83966c-1.32924,-0.80583 -1.97636,-2.92859 -1.80151,-4.32038z" data-paper-data="{&quot;index&quot;:null}" fill="#fff63b" fill-rule="evenodd" stroke-width="2.5" stroke-linecap="butt"/><path d="M248.91953,157.45922c-0.03795,-0.00137 -0.07595,0.00117 -0.11334,0.00755c-0.90201,-0.17318 -2.63054,-0.29677 -3.43819,-0.55675c-0.90988,-0.29289 -2.88591,-0.89333 -3.55058,-1.63908c-0.28845,-0.32363 -0.59665,-1.24311 -0.96702,-1.77976l0.11978,-0.82351l8.16041,3.34054z" data-paper-data="{&quot;index&quot;:null}" fill="url(#color-9)" fill-rule="nonzero" stroke-width="0" stroke-linecap="butt"/><path d="M241.57371,152.71217c0.41298,-1.13445 8.76794,6.33765 9.11083,6.1353c1.6704,-1.14344 2.0748,-1.33695 4.25553,-1.21433c1.37169,0.07001 4.06255,1.01899 5.29371,1.63425c6.14694,3.13762 12.86581,7.98983 14.78421,14.7951c1.46088,5.16986 2.28083,14.83308 -8.54998,23.8395c-0.7209,0.65087 -3.60466,1.93529 -4.21216,-1.29159c-1.10044,-5.93492 3.53194,-12.43397 -1.0599,-20.75104c-3.35146,-6.00478 -13.38559,-12.27184 -12.24311,-14.99789c-2.12806,-0.49192 -5.66323,-2.56627 -6.65706,-3.52441c-1.09939,-1.0989 -1.22296,-3.31466 -0.72206,-4.6249z" data-paper-data="{&quot;index&quot;:null}" fill="#fff63b" fill-rule="evenodd" stroke-width="2.5" stroke-linecap="butt"/><path d="M248.57274,160.06038c-0.03654,-0.01036 -0.07404,-0.01693 -0.11188,-0.01962c-0.83492,-0.38279 -2.48443,-0.91401 -3.20706,-1.35865c-0.81409,-0.50092 -2.59056,-1.55419 -3.05876,-2.43664c-0.20319,-0.38296 -0.28381,-1.34935 -0.51589,-1.9587l0.31224,-0.77138l7.13151,5.18585z" data-paper-data="{&quot;index&quot;:null}" fill="url(#color-10)" fill-rule="nonzero" stroke-width="0" stroke-linecap="butt"/><path d="M243.52066,153.44446c0.85865,-0.84867 5.21329,9.47966 5.60979,9.44348c1.99901,-0.31882 2.44733,-0.32068 4.36591,0.72318c1.20985,0.65016 3.23595,2.6592 4.08549,3.74205c4.21345,5.46592 8.21026,12.72628 7.03253,19.698c-0.89153,5.29781 -4.28486,14.38271 -17.92771,17.88914c-0.93006,0.27985 -4.08609,0.20694 -3.25454,-2.96959c1.54466,-5.8351 8.51226,-9.72726 7.92042,-19.20927c-0.46004,-6.86136 -6.84799,-16.81896 -4.649,-18.79407c-1.71297,-1.35512 -4.0207,-4.74255 -4.50904,-6.03378c-0.52352,-1.46361 0.31282,-3.5192 1.32615,-4.48914z" data-paper-data="{&quot;index&quot;:null}" fill="#fff63b" fill-rule="evenodd" stroke-width="2.5" stroke-linecap="butt"/><path d="M247.09379,163.16236c-0.02859,-0.02499 -0.05968,-0.04698 -0.09273,-0.0656c-0.59086,-0.70321 -1.85449,-1.8891 -2.31739,-2.60017c-0.52149,-0.80108 -1.67651,-2.51313 -1.72213,-3.51106c-0.0198,-0.43307 0.32081,-1.34104 0.37175,-1.99109l0.61225,-0.56361l4.22702,7.73846z" data-paper-data="{&quot;index&quot;:null}" fill="url(#color-11)" fill-rule="nonzero" stroke-width="0" stroke-linecap="butt"/><path d="M239.8041,152.67769c0.17485,1.39179 -0.47227,3.51455 -1.80151,4.32038c-1.19324,0.69422 -5.12036,1.86808 -7.30436,1.83966c0.46122,2.91957 -10.77569,6.6198 -15.45937,11.65497c-6.4385,6.98601 -3.48509,14.40045 -5.96574,19.90324c-1.35767,2.98974 -3.85312,1.0562 -4.39849,0.25252c-8.37745,-11.32433 -5.28235,-20.51511 -2.6336,-25.18905c3.48217,-6.15357 11.16242,-9.26821 17.87928,-10.85352c1.34217,-0.30472 4.18154,-0.58636 5.53051,-0.32807c2.1473,0.39965 2.49407,0.6838 3.84451,2.19178c0.28492,0.2781 10.1775,-4.99201 10.30877,-3.79189z" data-paper-data="{&quot;index&quot;:null}" fill="#fff63b" fill-rule="evenodd" stroke-width="2.5" stroke-linecap="butt"/><path d="M230.86944,156.60744l8.16041,-3.34055l0.11978,0.82351c-0.37037,0.53665 -0.67857,1.45612 -0.96702,1.77976c-0.66468,0.74575 -2.6407,1.34619 -3.55058,1.63908c-0.80766,0.25998 -2.53619,0.38357 -3.43819,0.55675c-0.03739,-0.00639 -0.07539,-0.00893 -0.11334,-0.00756z" data-paper-data="{&quot;index&quot;:null}" fill="url(#color-12)" fill-rule="nonzero" stroke-width="0" stroke-linecap="butt"/><path d="M238.4263,153.31138c0.50091,1.31024 0.37733,3.526 -0.72206,4.6249c-0.99384,0.95814 -4.529,3.03249 -6.65706,3.52441c1.14249,2.72605 -8.89165,8.9931 -12.24311,14.99789c-4.59184,8.31707 0.04054,14.81611 -1.0599,20.75104c-0.60749,3.22688 -3.49126,1.94246 -4.21216,1.29159c-10.83081,-9.00643 -10.01086,-18.66964 -8.54998,-23.8395c1.91839,-6.80527 8.63727,-11.65748 14.78421,-14.7951c1.23115,-0.61525 3.92202,-1.56424 5.29371,-1.63425c2.18073,-0.12262 2.58514,0.07089 4.25553,1.21433c0.34289,0.20235 8.69784,-7.26975 9.11083,-6.1353z" data-paper-data="{&quot;index&quot;:null}" fill="#fff63b" fill-rule="evenodd" stroke-width="2.5" stroke-linecap="butt"/><path d="M230.87712,159.30045l7.13151,-5.18585l0.31224,0.77138c-0.23208,0.60935 -0.31271,1.57574 -0.51589,1.9587c-0.4682,0.88246 -2.24467,1.93572 -3.05876,2.43664c-0.72263,0.44464 -2.37214,0.97586 -3.20706,1.35865c-0.03784,0.00269 -0.07535,0.00926 -0.11188,0.01962z" data-paper-data="{&quot;index&quot;:null}" fill="url(#color-13)" fill-rule="nonzero" stroke-width="0" stroke-linecap="butt"/><path d="M236.47936,154.04368c1.01333,0.96995 1.84967,3.02553 1.32615,4.48914c-0.48834,1.29123 -2.79607,4.67866 -4.50904,6.03378c2.19899,1.97511 -4.18897,11.93271 -4.649,18.79407c-0.59184,9.482 6.37577,13.37417 7.92042,19.20926c0.83155,3.17653 -2.32448,3.24944 -3.25454,2.96959c-13.64284,-3.50643 -17.03618,-12.59133 -17.92771,-17.88914c-1.17773,-6.97172 2.81908,-14.23208 7.03253,-19.698c0.84954,-1.08285 2.87564,-3.09188 4.08549,-3.74205c1.91858,-1.04386 2.3669,-1.042 4.36591,-0.72318c0.3965,0.03618 4.75114,-10.29215 5.60979,-9.44348z" data-paper-data="{&quot;index&quot;:null}" fill="#fff63b" fill-rule="evenodd" stroke-width="2.5" stroke-linecap="butt"/><path d="M238.43437,152.45747l-0.29028,-20.0286" fill="none" fill-rule="nonzero" stroke-width="5" stroke-linecap="round"/></g></g></svg>