<svg version="1.1" xmlns="http://www.w3.org/2000/svg" xmlns:xlink="http://www.w3.org/1999/xlink" width="103.6448" height="108.74731" viewBox="0,0,103.6448,108.74731"><defs><linearGradient x1="256.86457" y1="107.46839" x2="248.60019" y2="134.21454" gradientUnits="userSpaceOnUse" id="color-1"><stop offset="0" stop-color="#c78b15"/><stop offset="1" stop-color="#c78b15" stop-opacity="0"/></linearGradient><linearGradient x1="256.86457" y1="107.46839" x2="248.60019" y2="134.21454" gradientUnits="userSpaceOnUse" id="color-2"><stop offset="0" stop-color="#c78b15"/><stop offset="1" stop-color="#c78b15" stop-opacity="0"/></linearGradient><linearGradient x1="222.92798" y1="179.83045" x2="256.91173" y2="179.83045" gradientUnits="userSpaceOnUse" id="color-3"><stop offset="0" stop-color="#004cff"/><stop offset="1" stop-color="#e800ff"/></linearGradient></defs><g transform="translate(-186.06669,-125.00538)"><g data-paper-data="{&quot;isPaintingLayer&quot;:true}" stroke-linecap="butt" stroke-linejoin="miter" stroke-miterlimit="10" stroke-dasharray="" stroke-dashoffset="0" style="mix-blend-mode: normal"><path d="" fill="url(#color-1)" fill-rule="nonzero" stroke="#000000" stroke-width="0"/><path d="" fill="url(#color-2)" fill-rule="nonzero" stroke="#000000" stroke-width="0"/><path d="" fill="#c2ff00" fill-rule="nonzero" stroke="#000000" stroke-width="5"/><path d="" fill="#c2ff00" fill-rule="nonzero" stroke="#000000" stroke-width="5"/><path d="M243.24301,145.3385c1.60189,1.0116 3.26119,3.50776 2.96147,5.58572c-0.29947,1.84034 -2.44395,6.94411 -4.34723,9.19804c3.44133,2.02353 -2.33866,16.92012 -1.10412,26.1257c1.7642,12.70979 12.03254,15.98961 15.64485,23.29817c1.95414,3.98117 -2.20374,4.92563 -3.50999,4.80509c-19.00033,-0.97577 -25.93278,-12.08923 -28.53624,-18.8621c-3.43202,-8.91164 -0.09235,-19.59559 4.0162,-27.96257c0.83355,-1.66155 2.9756,-4.86516 4.40233,-6.0508c2.25906,-1.89718 2.85297,-2.01515 5.5846,-2.13024c0.53454,-0.05863 3.52357,-14.89964 4.88813,-14.007z" fill="url(#color-3)" fill-rule="evenodd" stroke="#000000" stroke-width="5"/><path d="" fill="#004cff" fill-rule="nonzero" stroke="#000000" stroke-width="5"/><path d="M186.06669,233.75269v-108.74731h103.6448v108.74731z" fill="none" fill-rule="nonzero" stroke="none" stroke-width="0"/></g></g></svg>