<svg version="1.1" xmlns="http://www.w3.org/2000/svg" xmlns:xlink="http://www.w3.org/1999/xlink" width="48.03224" height="51.83655" viewBox="0,0,48.03224,51.83655"><g transform="translate(-215.98388,-154.08173)"><g data-paper-data="{&quot;isPaintingLayer&quot;:true}" fill-rule="nonzero" stroke="#000000" stroke-width="2" stroke-linejoin="miter" stroke-miterlimit="10" stroke-dasharray="" stroke-dashoffset="0" style="mix-blend-mode: normal"><path d="M216.98388,204.91829v-49.83655h46.03224v49.83655z" fill="#ffa2a2" stroke-linecap="butt"/><path d="M223.43501,166.66306c0,-1.54823 1.25508,-2.8033 2.80331,-2.8033c1.54823,0 2.80331,1.25508 2.80331,2.8033c0,1.54823 -1.25508,2.80331 -2.80331,2.80331c-1.54823,0 -2.80331,-1.25509 -2.80331,-2.80331z" fill="#000000" stroke-linecap="butt"/><path d="M245.35177,168.27709c0,-2.25196 1.82558,-4.07753 4.07754,-4.07753c2.25196,0 4.07754,1.82557 4.07754,4.07753c0,2.25196 -1.82558,4.07754 -4.07754,4.07754c-2.25196,0 -4.07754,-1.82558 -4.07754,-4.07754z" fill="#000000" stroke-linecap="butt"/><path d="M246.03136,195.12087l-22.08665,-9.85404l5.26682,-4.07754v6.4561" fill="none" stroke-linecap="round"/><path d="M230.65479,187.93712l4.9736,-4.9736v6.66463" fill="none" stroke-linecap="round"/><path d="M236.72258,190.82181l5.76938,-4.77466v7.16199" fill="none" stroke-linecap="round"/></g></g></svg>