<svg version="1.1" xmlns="http://www.w3.org/2000/svg" xmlns:xlink="http://www.w3.org/1999/xlink" width="67.16651" height="61.2391" viewBox="0,0,67.16651,61.2391"><g transform="translate(-207.46011,-150.30632)"><g data-paper-data="{&quot;isPaintingLayer&quot;:true}" fill-rule="nonzero" stroke-linejoin="miter" stroke-miterlimit="10" stroke-dasharray="" stroke-dashoffset="0" style="mix-blend-mode: normal"><path d="M271.32647,180.56679c0,6.6602 2.65419,19.93981 -1.70556,24.71047c-5.62743,6.15782 -19.42907,2.91475 -28.97741,2.91475c-7.74774,0 -19.04236,1.63214 -24.4424,-2.63277c-6.41085,-5.06323 -6.24056,-16.71109 -6.24056,-24.99245c0,-7.1069 -2.50214,-18.43722 2.39515,-23.33239c5.61613,-5.6137 19.23563,-4.29282 28.28782,-4.29282c10.85433,0 24.39897,-3.1498 29.85354,4.50797c3.06108,4.29751 0.82943,17.63289 0.82943,23.11724z" fill="#bdfff9" stroke="#000000" stroke-width="5" stroke-linecap="butt"/><path d="M227.02123,166.14404c0,3.49425 -2.39379,6.32689 -5.34667,6.32689c-2.95288,0 -5.34667,-2.83265 -5.34667,-6.32689c0,-3.49425 2.39379,-6.32689 5.34667,-6.32689c2.95288,0 5.34667,2.83265 5.34667,6.32689z" fill="#ff0000" stroke="none" stroke-width="0" stroke-linecap="butt"/><path d="M259.63592,167.21338c0,3.6911 -2.63316,6.68334 -5.88134,6.68334c-3.24817,0 -5.88134,-2.99223 -5.88134,-6.68334c0,-3.6911 2.63316,-6.68334 5.88134,-6.68334c3.24817,0 5.88134,2.99223 5.88134,6.68334z" fill="#ff0000" stroke="none" stroke-width="0" stroke-linecap="butt"/><path d="M221.1399,193.50117l36.89202,3.74267" fill="none" stroke="#000000" stroke-width="0.5" stroke-linecap="round"/></g></g></svg>