<svg version="1.1" xmlns="http://www.w3.org/2000/svg" xmlns:xlink="http://www.w3.org/1999/xlink" width="96.56452" height="93.48669" viewBox="0,0,96.56452,93.48669"><defs><linearGradient x1="283.818" y1="115.85497" x2="283.818" y2="134.89189" gradientUnits="userSpaceOnUse" id="color-1"><stop offset="0" stop-color="#fff700"/><stop offset="1" stop-color="#ff8800"/></linearGradient></defs><g transform="translate(-207.54041,-114.60495)"><g data-paper-data="{&quot;isPaintingLayer&quot;:true}" fill-rule="nonzero" stroke-linecap="butt" stroke-linejoin="miter" stroke-miterlimit="10" stroke-dasharray="" stroke-dashoffset="0" style="mix-blend-mode: normal"><path d="M264.78108,134.89189v-19.03693h38.07385v19.03693c0,0 -39.02751,12.69128 -44.18153,12.69128c-1.44544,0 6.10768,-12.69128 6.10768,-12.69128z" fill="url(#color-1)" stroke="#000000" stroke-width="2.5"/><text transform="translate(266.10505,128.09459) scale(0.20302,0.20302)" font-size="40" xml:space="preserve" fill="#000000" fill-rule="nonzero" stroke="none" stroke-width="1" stroke-linecap="butt" stroke-linejoin="miter" stroke-miterlimit="10" stroke-dasharray="" stroke-dashoffset="0" font-family="Pixel" font-weight="normal" text-anchor="start" style="mix-blend-mode: normal"><tspan x="0" dy="0">blah blah</tspan></text><path d="M247.48979,179.2728c0,0.89151 -0.30584,1.61422 -0.68312,1.61422c-0.37727,0 -0.68311,-0.72271 -0.68311,-1.61422c0,-0.89151 0.30583,-1.61422 0.68311,-1.61422c0.37727,0 0.68312,0.72271 0.68312,1.61422z" fill="#ffffff" stroke="none" stroke-width="0"/><path d="M213.85199,183.10266c0,-13.80103 11.36298,-24.98898 25.37993,-24.98898c14.01694,0 25.37993,11.18795 25.37993,24.98898c0,13.80103 -11.36298,24.98898 -25.37993,24.98898c-14.01694,0 -25.37993,-11.18794 -25.37993,-24.98898z" fill="#523404" stroke="none" stroke-width="NaN"/><path d="M207.54041,161.04002c0,-5.41145 4.45548,-9.79831 9.9516,-9.79831c5.49612,0 9.9516,4.38685 9.9516,9.79831c0,5.41145 -4.45548,9.79831 -9.9516,9.79831c-5.49612,0 -9.9516,-4.38685 -9.9516,-9.79831z" fill="#523404" stroke="none" stroke-width="0"/><path d="M252.55638,161.96066c0,-5.41145 4.45548,-9.79831 9.9516,-9.79831c5.49613,0 9.9516,4.38685 9.9516,9.79831c0,5.41146 -4.45548,9.79831 -9.9516,9.79831c-5.49612,0 -9.9516,-4.38684 -9.9516,-9.79831z" fill="#523404" stroke="none" stroke-width="0"/><path d="M209.57748,160.74409c0,-4.3219 3.34274,-7.82549 7.46623,-7.82549c4.12348,0 7.46624,3.50359 7.46624,7.82549c0,4.3219 -3.34275,7.8255 -7.46624,7.8255c-4.12348,0 -7.46623,-3.5036 -7.46623,-7.8255z" fill="#a86b08" stroke="none" stroke-width="NaN"/><path d="M254.86061,161.79626c0,-4.3219 3.34275,-7.82549 7.46623,-7.82549c4.12349,0 7.46624,3.50359 7.46624,7.82549c0,4.3219 -3.34275,7.8255 -7.46624,7.8255c-4.12348,0 -7.46623,-3.5036 -7.46623,-7.8255z" fill="#a86b08" stroke="none" stroke-width="NaN"/><path d="M218.52724,184.1522c0,-11.98511 9.2698,-21.70096 20.70468,-21.70096c11.43487,0 20.70468,9.71585 20.70468,21.70096c0,11.98511 -9.2698,21.70096 -20.70468,21.70096c-11.43487,0 -20.70468,-9.71585 -20.70468,-21.70096z" fill="#a86b08" stroke="#523404" stroke-width="4"/><path d="M231.8517,181.1601c0,3.41394 -1.07649,6.18149 -2.40442,6.18149c-1.32792,0 -2.40442,-2.76755 -2.40442,-6.18149c0,-3.41394 1.07649,-6.18149 2.40442,-6.18149c1.32793,0 2.40442,2.76754 2.40442,6.18149z" fill="#000000" stroke="none" stroke-width="0"/><path d="M230.91665,179.05576c0,0.87164 -0.29902,1.57825 -0.66789,1.57825c-0.36887,0 -0.66789,-0.70661 -0.66789,-1.57825c0,-0.87164 0.29902,-1.57825 0.66789,-1.57825c0.36887,0 0.66789,0.70661 0.66789,1.57825z" fill="#ffffff" stroke="none" stroke-width="0"/><path d="M248.81618,180.89706c0,3.41394 -1.07649,6.18149 -2.40442,6.18149c-1.32792,0 -2.40442,-2.76754 -2.40442,-6.18149c0,-3.41394 1.07649,-6.18149 2.40442,-6.18149c1.32793,0 2.40442,2.76755 2.40442,6.18149z" fill="#000000" stroke="none" stroke-width="0"/><path d="M247.88113,178.79273c0,0.87164 -0.29902,1.57825 -0.66789,1.57825c-0.36887,0 -0.66789,-0.70661 -0.66789,-1.57825c0,-0.87164 0.29902,-1.57826 0.66789,-1.57826c0.36887,0 0.66789,0.70661 0.66789,1.57826z" fill="#ffffff" stroke="none" stroke-width="0"/><path d="M240.74224,195.7464c-2.46978,3.46165 -5.60012,-0.6703 -6.09446,-3.3702c-0.0748,0.04899 -0.15134,0.09644 -0.22973,0.14222c-3.62378,2.11656 -8.87119,1.13643 -10.79349,-2.57337l-0.21508,-0.3062c0,0 -0.46311,-0.68395 0.23155,-1.13992c0.69464,-0.45597 1.15775,0.22799 1.15775,0.22799l0.31923,0.48292c1.45134,2.93207 5.65389,3.46032 8.44183,1.89835c1.80413,-1.01078 2.55624,-3.2791 3.78454,-4.80617c0,0 0.52154,-0.64188 1.17346,-0.12838c0.03043,0.02398 0.05831,0.04823 0.08381,0.07268c0.30685,0.20646 0.35665,0.59876 0.35665,0.59876c0.05385,1.08431 1.17588,2.03869 2.0054,2.783c3.02098,2.7106 6.95124,1.5843 9.3378,-1.35325l0.46232,-0.4623c0,0 0.59033,-0.58124 1.18067,0h0.00001c0.59033,0.58124 -0.00001,1.16249 -0.00001,1.16249l-0.33915,0.32682c-1.12965,1.39017 -2.48896,2.68283 -4.25476,3.28899c-1.83595,0.63025 -3.95967,0.35529 -5.78622,-0.51237c-0.29835,1.16496 -0.1333,2.70251 -0.82212,3.66797z" fill="#000000" stroke="none" stroke-width="0.5"/></g></g></svg>