<svg version="1.1" xmlns="http://www.w3.org/2000/svg" xmlns:xlink="http://www.w3.org/1999/xlink" width="221.8741" height="53.0451" viewBox="0,0,221.8741,53.0451"><defs><linearGradient x1="131.40552" y1="179.75789" x2="349.43184" y2="179.75789" gradientUnits="userSpaceOnUse" id="color-1"><stop offset="0" stop-color="#31bb57"/><stop offset="1" stop-color="#d8ff88"/></linearGradient></defs><g transform="translate(-129.06295,-153.47745)"><g data-paper-data="{&quot;isPaintingLayer&quot;:true}" fill-rule="nonzero" stroke="none" stroke-linecap="butt" stroke-linejoin="miter" stroke-miterlimit="10" stroke-dasharray="" stroke-dashoffset="0" style="mix-blend-mode: normal"><path d="M349.43184,179.75789c0,6.94516 7.48176,18.88546 -10.91559,23.56961c-19.87864,5.06129 -66.82942,2.59355 -98.09757,2.59355c-36.98146,0 -80.23473,-1.28685 -99.94492,-8.04528c-12.37826,-4.24438 -10.24299,-11.76074 -10.24299,-18.11788c0,-6.58416 -6.31271,-17.29929 10.41587,-21.89794c19.98375,-5.4935 66.99974,-4.26522 99.77205,-4.26522c30.41513,0 72.45795,0.17582 92.23179,4.99719c19.36819,4.72246 16.78137,14.01608 16.78137,21.16597z" fill="url(#color-1)" stroke-width="0"/><text transform="translate(144.28629,179.34921) scale(0.39641,0.39641)" font-size="40" xml:space="preserve" fill="#000000" fill-rule="nonzero" stroke="none" stroke-width="1" stroke-linecap="butt" stroke-linejoin="miter" stroke-miterlimit="10" stroke-dasharray="" stroke-dashoffset="0" font-family="Pixel" font-weight="normal" text-anchor="start" style="mix-blend-mode: normal"><tspan x="0" dy="0">How much do you have?</tspan><tspan x="0" dy="46.150000000000006px">                Click me</tspan></text></g></g></svg>