<svg version="1.1" xmlns="http://www.w3.org/2000/svg" xmlns:xlink="http://www.w3.org/1999/xlink" width="136.5" height="113" viewBox="0,0,136.5,113"><g transform="translate(-146.25,-103.75)"><g data-paper-data="{&quot;isPaintingLayer&quot;:true}" fill-rule="nonzero" stroke-linejoin="miter" stroke-miterlimit="10" stroke-dasharray="" stroke-dashoffset="0" style="mix-blend-mode: normal"><path d="M190.25,189.25v-80.5h87.5v79" fill="none" stroke="#000000" stroke-width="10" stroke-linecap="round"/><path d="M146.25,191.75c0,-13.80712 11.19288,-25 25,-25c13.80712,0 25,11.19288 25,25c0,13.80712 -11.19288,25 -25,25c-13.80712,0 -25,-11.19288 -25,-25z" fill="#000000" stroke="none" stroke-width="0.5" stroke-linecap="butt"/><path d="M232.75,188.25c0,-13.80712 11.19288,-25 25,-25c13.80712,0 25,11.19288 25,25c0,13.80712 -11.19288,25 -25,25c-13.80712,0 -25,-11.19288 -25,-25z" fill="#000000" stroke="none" stroke-width="0.5" stroke-linecap="butt"/><path d="M151.25,191.25c0,-8.83656 7.16344,-16 16,-16c8.83656,0 16,7.16344 16,16c0,8.83656 -7.16344,16 -16,16c-8.83656,0 -16,-7.16344 -16,-16z" fill="#ffffff" stroke="none" stroke-width="0.5" stroke-linecap="butt"/><path d="M168.75,181.25c0,-5.52285 4.47715,-10 10,-10c5.52285,0 10,4.47715 10,10c0,5.52285 -4.47715,10 -10,10c-5.52285,0 -10,-4.47715 -10,-10z" fill="#000000" stroke="none" stroke-width="0.5" stroke-linecap="butt"/><path d="M238.75,190.25c0,-8.83656 7.16344,-16 16,-16c8.83655,0 16,7.16344 16,16c0,8.83655 -7.16345,16 -16,16c-8.83656,0 -16,-7.16345 -16,-16z" fill="#ffffff" stroke="none" stroke-width="0.5" stroke-linecap="butt"/><path d="M254.25,178.75c0,-5.52284 4.47716,-10 10,-10c5.52284,0 10,4.47716 10,10c0,5.52284 -4.47716,10 -10,10c-5.52284,0 -10,-4.47716 -10,-10z" fill="#000000" stroke="none" stroke-width="0.5" stroke-linecap="butt"/></g></g></svg>