<svg version="1.1" xmlns="http://www.w3.org/2000/svg" xmlns:xlink="http://www.w3.org/1999/xlink" width="155.17439" height="202.45" viewBox="0,0,155.17439,202.45"><g transform="translate(-29.7,-105.3)"><g data-paper-data="{&quot;isPaintingLayer&quot;:true}" fill-rule="nonzero" stroke-linecap="butt" stroke-linejoin="miter" stroke-miterlimit="10" stroke-dasharray="" stroke-dashoffset="0" style="mix-blend-mode: normal"><path d="M184.34068,184.24577c2.4538,6.80344 -4.34964,9.25724 -4.34964,9.25724l-1.5888,0.5612c-1.86439,0.77511 -3.46591,2.16472 -4.83502,3.64873c-0.83307,0.90299 -2.34684,1.28485 -2.76111,2.44147c-0.68341,1.90804 -0.58544,4.08806 -1.51729,5.88787c-0.59485,1.14891 -1.86791,1.83546 -2.51671,2.9548c-0.32603,0.56248 -0.09936,1.31089 -0.31191,1.92529c-1.18729,3.43189 -2.90352,6.93467 -4.40208,10.2499c-2.59389,5.7384 -7.2708,12.82913 -12.63642,16.30166c-2.36638,1.53148 -5.14944,2.29434 -7.72743,3.43413c-4.60764,0.7311 -9.11875,2.01784 -13.7323,2.53447c-9.34766,1.04676 -16.83139,1.36043 -25.09132,6.38563c-2.93549,1.7859 -7.31754,3.33682 -7.90884,7.08415c0,0 -1.73218,7.02193 -8.75411,5.28975c-7.02193,-1.73218 -5.28975,-8.75411 -5.28975,-8.75411c3.43164,-12.2812 18.73453,-20.20534 30.6578,-22.94817c4.86678,-1.11955 9.87647,-0.93884 14.80871,-1.43581c3.79724,-0.38261 7.3874,-1.64577 11.23222,-2.03412c0.82838,-0.41134 4.24896,-1.46115 4.88821,-2.37055c1.72322,-2.45147 3.94735,-4.63071 5.36191,-7.263c2.53859,-4.72393 3.5382,-10.37881 6.03309,-14.99752c0.61489,-1.13832 1.83084,-1.85779 2.51671,-2.9548c0.97055,-1.55235 0.43865,-3.70812 1.2542,-5.34722c2.97048,-5.97011 9.14402,-10.78895 15.07663,-13.34625l2.33602,-0.85437c0,0 6.80344,-2.4538 9.25724,4.34964z" fill="#523404" stroke="none" stroke-width="0.5"/><path d="M38.89964,244.10467c0,-35.15034 19.68744,-63.64533 43.97314,-63.64533c24.28569,0 43.97314,28.49499 43.97314,63.64533c0,35.15034 -19.68744,63.64533 -43.97314,63.64533c-24.28569,0 -43.97314,-28.49499 -43.97314,-63.64533z" fill="#523404" stroke="none" stroke-width="NaN"/><path d="M40.63542,161.36575c0,-24.28569 19.68744,-43.97314 43.97314,-43.97314c24.28569,0 43.97314,19.68744 43.97314,43.97314c0,24.28569 -19.68744,43.97314 -43.97314,43.97314c-24.28569,0 -43.97314,-19.68744 -43.97314,-43.97314z" fill="#523404" stroke="none" stroke-width="NaN"/><path d="M29.7,122.5421c0,-9.52254 7.71955,-17.2421 17.2421,-17.2421c9.52254,0 17.2421,7.71955 17.2421,17.2421c0,9.52254 -7.71955,17.2421 -17.2421,17.2421c-9.52254,0 -17.2421,-7.71955 -17.2421,-17.2421z" fill="#523404" stroke="none" stroke-width="0"/><path d="M107.69446,124.16216c0,-9.52254 7.71954,-17.2421 17.2421,-17.2421c9.52256,0 17.2421,7.71955 17.2421,17.2421c0,9.52256 -7.71954,17.2421 -17.2421,17.2421c-9.52254,0 -17.2421,-7.71954 -17.2421,-17.2421z" fill="#523404" stroke="none" stroke-width="0"/><path d="M33.22942,122.02136c0,-7.60526 5.79162,-13.77053 12.93596,-13.77053c7.14433,0 12.93596,6.16528 12.93596,13.77053c0,7.60526 -5.79162,13.77053 -12.93596,13.77053c-7.14433,0 -12.93596,-6.16528 -12.93596,-13.77053z" fill="#a86b08" stroke="none" stroke-width="NaN"/><path d="M111.68675,123.87286c0,-7.60526 5.79163,-13.77053 12.93596,-13.77053c7.14434,0 12.93596,6.16528 12.93596,13.77053c0,7.60526 -5.79162,13.77053 -12.93596,13.77053c-7.14433,0 -12.93596,-6.16528 -12.93596,-13.77053z" fill="#a86b08" stroke="none" stroke-width="NaN"/><path d="M47.57855,242.65819c0,-28.59959 16.06082,-51.78415 35.87282,-51.78415c19.812,0 35.87282,23.18456 35.87282,51.78415c0,28.59959 -16.06082,51.78415 -35.87282,51.78415c-19.812,0 -35.87282,-23.18456 -35.87282,-51.78415z" fill="#a86b08" stroke="none" stroke-width="NaN"/><path d="M48.73574,163.21264c0,-21.0902 16.06082,-38.1872 35.87282,-38.1872c19.812,0 35.87282,17.097 35.87282,38.1872c0,21.0902 -16.06082,38.1872 -35.87282,38.1872c-19.812,0 -35.87282,-17.097 -35.87282,-38.1872z" fill="#a86b08" stroke="#523404" stroke-width="4"/><path d="M71.82163,157.94743c0,6.00751 -1.86512,10.87757 -4.16588,10.87757c-2.30074,0 -4.16588,-4.87006 -4.16588,-10.87757c0,-6.00751 1.86512,-10.87757 4.16588,-10.87757c2.30076,0 4.16588,4.87005 4.16588,10.87757z" fill="#000000" stroke="none" stroke-width="0"/><path d="M70.20157,154.24443c0,1.53383 -0.51808,2.77725 -1.15719,2.77725c-0.6391,0 -1.15719,-1.24342 -1.15719,-2.77725c0,-1.53383 0.51808,-2.77725 1.15719,-2.77725c0.6391,0 1.15719,1.24342 1.15719,2.77725z" fill="#ffffff" stroke="none" stroke-width="0"/><path d="M101.2142,157.48456c0,6.00751 -1.86512,10.87757 -4.16588,10.87757c-2.30074,0 -4.16588,-4.87005 -4.16588,-10.87757c0,-6.00751 1.86512,-10.87757 4.16588,-10.87757c2.30076,0 4.16588,4.87006 4.16588,10.87757z" fill="#000000" stroke="none" stroke-width="0"/><path d="M99.59414,153.78156c0,1.53383 -0.51808,2.77725 -1.15719,2.77725c-0.6391,0 -1.15719,-1.24342 -1.15719,-2.77725c0,-1.53383 0.51808,-2.77725 1.15719,-2.77725c0.6391,0 1.15719,1.24342 1.15719,2.77725z" fill="#ffffff" stroke="none" stroke-width="0"/><path d="M107.69338,170.85994c1.04006,0.69338 0.34669,1.73344 0.34669,1.73344l-0.83104,1.24444c-1.17073,1.424 -2.43068,2.05717 -4.0192,2.96428c-0.81354,0.40149 -1.45378,1.1318 -2.30357,1.44945c-3.37557,1.26178 -7.89441,0.09927 -11.08531,-0.96696c-2.03941,-0.68146 -3.95868,-0.76385 -5.63459,-2.25318c-0.90568,-0.80485 -1.47358,-1.68769 -1.93025,-2.62312c-2.43162,4.8534 -7.74712,6.53608 -13.63609,6.54171c-3.3272,0.00318 -5.74931,0.0142 -8.59249,-1.88332c-0.75681,-0.75681 -1.45043,-1.58508 -2.04758,-2.4733l-0.47797,-0.93436c0,0 -0.55902,-1.11803 0.55902,-1.67705c1.11803,-0.55902 1.67705,0.55902 1.67705,0.55902l0.32203,0.66564c0.45433,0.68835 0.96922,1.3435 1.55242,1.9267c2.27964,1.51745 4.33669,1.31398 7.00751,1.31668c5.6391,0.0057 10.91551,-1.51877 12.19394,-7.36374c-0.03651,-0.07562 -0.0738,-0.15137 -0.11198,-0.22724c0,0 -0.55902,-1.11803 0.55902,-1.67705c0.31814,-0.15907 0.59101,-0.18235 0.81862,-0.13424c0.0971,-0.00578 0.20259,-0.00153 0.31718,0.01483c1.23744,0.17678 1.06066,1.41421 1.06066,1.41421c-0.01844,0.12304 -0.03813,0.24479 -0.05907,0.36525c0.44086,1.20841 0.78862,2.50328 1.58831,3.46548c1.56274,1.88033 3.43768,1.87802 5.63238,2.6079c4.20904,1.39977 7.51771,1.65115 11.41112,-0.3175c1.2099,-0.69186 2.33061,-1.12572 3.1808,-2.23572l0.76896,-1.15556c0,0 0.69338,-1.04006 1.73344,-0.34669z" fill="#000000" stroke="none" stroke-width="0.5"/></g></g></svg>