<svg version="1.1" xmlns="http://www.w3.org/2000/svg" xmlns:xlink="http://www.w3.org/1999/xlink" width="43.85563" height="87.78454" viewBox="0,0,43.85563,87.78454"><defs><linearGradient x1="256.26077" y1="107.51388" x2="247.99639" y2="134.26003" gradientUnits="userSpaceOnUse" id="color-1"><stop offset="0" stop-color="#c78b15"/><stop offset="1" stop-color="#c78b15" stop-opacity="0"/></linearGradient><linearGradient x1="256.26077" y1="107.51388" x2="247.99639" y2="134.26003" gradientUnits="userSpaceOnUse" id="color-2"><stop offset="0" stop-color="#c78b15"/><stop offset="1" stop-color="#c78b15" stop-opacity="0"/></linearGradient><linearGradient x1="248.54771" y1="141.72662" x2="244.20342" y2="155.78613" gradientUnits="userSpaceOnUse" id="color-3"><stop offset="0" stop-color="#c78b15"/><stop offset="1" stop-color="#c78b15" stop-opacity="0"/></linearGradient></defs><g transform="translate(-217.75479,-136.13164)"><g data-paper-data="{&quot;isPaintingLayer&quot;:true}" stroke="#000000" stroke-linecap="butt" stroke-linejoin="miter" stroke-miterlimit="10" stroke-dasharray="" stroke-dashoffset="0" style="mix-blend-mode: normal"><path d="" fill="url(#color-1)" fill-rule="nonzero" stroke-width="0"/><path d="" fill="url(#color-2)" fill-rule="nonzero" stroke-width="0"/><path d="M244.10609,137.38164c1.9793,1.24994 4.02953,4.3342 3.6592,6.90173c-0.37002,2.27392 -3.01975,8.58016 -5.37145,11.36512c4.25212,2.50028 -2.88966,20.90655 -1.36425,32.28099c2.17985,15.70425 14.86744,19.7568 19.33082,28.78729c2.41453,4.91915 -2.72294,6.08612 -4.33695,5.93718c-23.47686,-1.20567 -32.04262,-14.93748 -35.25946,-23.30607c-4.24061,-11.01125 -0.11411,-24.21237 4.96243,-34.55063c1.02994,-2.05302 3.67667,-6.01141 5.43953,-7.47639c2.7913,-2.34416 3.52514,-2.48993 6.90035,-2.63213c0.66048,-0.07245 4.35373,-18.41004 6.03979,-17.30709z" fill="#fff63b" fill-rule="evenodd" stroke-width="2.5"/><path d="M239.70056,153.06368l4.34429,-14.0595l1.18844,0.71854c0.29912,1.04625 1.1576,2.41816 1.26899,3.13302c0.25668,1.64725 -1.06398,4.83075 -1.65094,6.31403c-0.52102,1.31663 -2.19398,3.67564 -2.92689,5.02188c-0.04787,0.04143 -0.09142,0.08771 -0.12988,0.13808z" fill="url(#color-3)" fill-rule="nonzero" stroke-width="0"/></g></g></svg>