<svg version="1.1" xmlns="http://www.w3.org/2000/svg" xmlns:xlink="http://www.w3.org/1999/xlink" width="858.37369" height="788.38491" viewBox="0,0,858.37369,788.38491"><defs><linearGradient x1="-143.70758" y1="-109.98131" x2="-4.00364" y2="126.73921" gradientUnits="userSpaceOnUse" id="color-1"><stop offset="0" stop-color="#059d00"/><stop offset="1" stop-color="#0e5600"/></linearGradient><linearGradient x1="157.9102" y1="-261.49391" x2="157.9102" y2="44.61188" gradientUnits="userSpaceOnUse" id="color-2"><stop offset="0" stop-color="#059d00"/><stop offset="1" stop-color="#0e5600"/></linearGradient><linearGradient x1="-187.55203" y1="237.02122" x2="54.83376" y2="237.02122" gradientUnits="userSpaceOnUse" id="color-3"><stop offset="0" stop-color="#059d00"/><stop offset="1" stop-color="#0e5600"/></linearGradient><linearGradient x1="-129.13347" y1="443.00516" x2="51.38929" y2="340.8913" gradientUnits="userSpaceOnUse" id="color-4"><stop offset="0" stop-color="#059d00"/><stop offset="1" stop-color="#0e5600"/></linearGradient><linearGradient x1="57.58884" y1="456.423" x2="215.75157" y2="336.21934" gradientUnits="userSpaceOnUse" id="color-5"><stop offset="0" stop-color="#059d00"/><stop offset="1" stop-color="#0e5600"/></linearGradient><linearGradient x1="522.90505" y1="526.49966" x2="502.58098" y2="258.6462" gradientUnits="userSpaceOnUse" id="color-6"><stop offset="0" stop-color="#059d00"/><stop offset="1" stop-color="#0e5600"/></linearGradient><linearGradient x1="204.00155" y1="463.42961" x2="330.46584" y2="335.45978" gradientUnits="userSpaceOnUse" id="color-7"><stop offset="0" stop-color="#059d00"/><stop offset="1" stop-color="#0e5600"/></linearGradient><linearGradient x1="333.13732" y1="450.76737" x2="403.7347" y2="373.11026" gradientUnits="userSpaceOnUse" id="color-8"><stop offset="0" stop-color="#059d00"/><stop offset="1" stop-color="#0e5600"/></linearGradient><linearGradient x1="602.05636" y1="-51.47069" x2="398.44145" y2="-55.46315" gradientUnits="userSpaceOnUse" id="color-9"><stop offset="0" stop-color="#059d00"/><stop offset="1" stop-color="#0e5600"/></linearGradient><linearGradient x1="304.67163" y1="-173.52929" x2="384.72277" y2="-9.61864" gradientUnits="userSpaceOnUse" id="color-10"><stop offset="0" stop-color="#059d00"/><stop offset="1" stop-color="#0e5600"/></linearGradient><linearGradient x1="600.09194" y1="176.33931" x2="454.13055" y2="62.81379" gradientUnits="userSpaceOnUse" id="color-11"><stop offset="0" stop-color="#059d00"/><stop offset="1" stop-color="#0e5600"/></linearGradient><linearGradient x1="550.644" y1="278.56337" x2="463.59732" y2="185.48377" gradientUnits="userSpaceOnUse" id="color-12"><stop offset="0" stop-color="#059d00"/><stop offset="1" stop-color="#0e5600"/></linearGradient></defs><g transform="translate(211.31256,261.49389)"><g data-paper-data="{&quot;isPaintingLayer&quot;:true}" fill-rule="nonzero" stroke-linecap="butt" stroke-linejoin="miter" stroke-miterlimit="10" stroke-dasharray="" stroke-dashoffset="0" style="mix-blend-mode: normal"><path d="M-31.5,369.50001v-122h540v122z" fill="#905e00" stroke="#3d2700" stroke-width="5"/><path d="M-39.5,262.50001v-44h558v44z" fill="#905e00" stroke="#3d2700" stroke-width="5"/><text transform="translate(75.5,260.50001) scale(1.10672,1.19005)" font-size="40" xml:space="preserve" fill="#3d2700" fill-rule="nonzero" stroke="none" stroke-width="1" stroke-linecap="butt" stroke-linejoin="miter" stroke-miterlimit="10" stroke-dasharray="" stroke-dashoffset="0" font-family="Pixel" font-weight="normal" text-anchor="start" style="mix-blend-mode: normal"><tspan x="0" dy="0">MONKEY SHOP</tspan></text><path d="M253.6381,-44.09634c0,-18.54913 15.03705,-33.58618 33.58617,-33.58618c18.54913,0 33.58617,15.03705 33.58617,33.58618c0,18.54913 -15.03704,33.58617 -33.58617,33.58617c-18.54913,0 -33.58617,-15.03704 -33.58617,-33.58617z" fill="#0e5900" stroke="none" stroke-width="0.5"/><path d="M388.57452,-30.35281c0,-18.54913 15.03704,-33.58617 33.58617,-33.58617c18.54913,0 33.58618,15.03704 33.58618,33.58617c0,18.54913 -15.03705,33.58617 -33.58618,33.58617c-18.54913,0 -33.58617,-15.03704 -33.58617,-33.58617z" fill="#0e5900" stroke="none" stroke-width="0.5"/><path d="M446.04745,27.12012c0,-18.54913 15.03705,-33.58617 33.58618,-33.58617c18.54913,0 33.58617,15.03704 33.58617,33.58617c0,18.54913 -15.03704,33.58617 -33.58617,33.58617c-18.54913,0 -33.58618,-15.03704 -33.58618,-33.58617z" fill="#0e5900" stroke="none" stroke-width="0.5"/><path d="M449.79568,188.29418c0,-18.54913 15.03704,-33.58617 33.58617,-33.58617c18.54913,0 33.58617,15.03705 33.58617,33.58617c0,18.54913 -15.03704,33.58617 -33.58617,33.58617c-18.54913,0 -33.58617,-15.03704 -33.58617,-33.58617z" fill="#0e5900" stroke="none" stroke-width="0.5"/><path d="M436.05215,267.00709c0,-18.54913 15.03705,-33.58617 33.58618,-33.58617c18.54913,0 33.58617,15.03704 33.58617,33.58617c0,18.54913 -15.03704,33.58617 -33.58617,33.58617c-18.54913,0 -33.58618,-15.03704 -33.58618,-33.58617z" fill="#0e5900" stroke="none" stroke-width="0.5"/><path d="M307.36277,366.96c0,-18.54913 15.03704,-33.58617 33.58617,-33.58617c12.62566,0 23.62419,6.96665 29.36117,17.26556c5.73699,-10.2989 16.7355,-17.26556 29.36116,-17.26556c18.54913,0 33.58617,15.03704 33.58617,33.58617c0,18.54913 -15.03704,33.58617 -33.58617,33.58617c-12.62566,0 -23.62419,-6.96665 -29.36116,-17.26556c-5.73699,10.2989 -16.73551,17.26556 -29.36117,17.26556c-18.54913,0 -33.58617,-15.03704 -33.58617,-33.58617z" fill="#0e5900" stroke="none" stroke-width="0.5"/><path d="M171.17695,350.71766c0,-18.54913 15.03705,-33.58617 33.58617,-33.58617c18.54913,0 33.58617,15.03704 33.58617,33.58617c0,18.54913 -15.03704,33.58617 -33.58617,33.58617c-18.54913,0 -33.58617,-15.03704 -33.58617,-33.58617z" fill="#0e5900" stroke="none" stroke-width="0.5"/><path d="M10.00288,351.96706c0,-18.54913 15.03704,-33.58617 33.58617,-33.58617c18.54913,0 33.58617,15.03704 33.58617,33.58617c0,18.54913 -15.03704,33.58617 -33.58617,33.58617c-18.54913,0 -33.58617,-15.03704 -33.58617,-33.58617z" fill="#0e5900" stroke="none" stroke-width="0.5"/><path d="M-42.4724,129.57183c0,-18.54913 15.03705,-33.58617 33.58617,-33.58617c18.54913,0 33.58617,15.03704 33.58617,33.58617c0,18.54913 -15.03704,33.58617 -33.58617,33.58617c-18.54913,0 -33.58617,-15.03704 -33.58617,-33.58617z" fill="#0e5900" stroke="none" stroke-width="0.5"/><path d="M19.99818,12.12718c0,-18.54913 15.03704,-33.58617 33.58617,-33.58617c18.54913,0 33.58617,15.03705 33.58617,33.58617c0,18.54913 -15.03704,33.58617 -33.58617,33.58617c-18.54913,0 -33.58617,-15.03704 -33.58617,-33.58617z" fill="#0e5900" stroke="none" stroke-width="0.5"/><path d="M-192.21586,78.23091c-38.57818,-65.36856 -16.86025,-149.63404 48.50831,-188.21222c65.36857,-38.57817 149.63405,-16.86025 188.21222,48.50831c38.57818,65.36857 16.86026,149.63405 -48.5083,188.21222c-65.36856,38.57817 -149.63404,16.86026 -188.21222,-48.5083z" fill="url(#color-1)" stroke="none" stroke-width="0"/><path d="M4.8573,-108.44101c0,-84.52878 68.52413,-153.05288 153.0529,-153.05288c84.52878,0 153.0529,68.52411 153.0529,153.0529c0,84.52878 -68.52412,153.0529 -153.05289,153.0529c-84.52877,0 -153.05288,-68.52412 -153.05288,-153.05288z" fill="url(#color-2)" stroke="none" stroke-width="0"/><path d="M-187.55203,237.02122c0,-66.93298 54.25991,-121.1929 121.19291,-121.1929c66.93298,0 121.19291,54.25991 121.19291,121.19291c0,66.933 -54.25991,121.19291 -121.1929,121.19291c-66.93298,0 -121.19289,-54.25991 -121.19289,-121.19291z" fill="url(#color-3)" stroke="none" stroke-width="0"/><path d="M-129.13347,443.00516c-28.19797,-49.84998 -10.64554,-113.12034 39.20444,-141.31831c49.84998,-28.19797 113.12035,-10.64554 141.31832,39.20444c28.19797,49.84998 10.64554,113.12035 -39.20444,141.31831c-49.84998,28.19797 -113.12033,10.64554 -141.31831,-39.20444z" fill="url(#color-4)" stroke="none" stroke-width="0"/><path d="M57.58884,456.423c-33.19332,-43.67543 -24.69589,-105.98987 18.97954,-139.18319c43.67543,-33.19332 105.98987,-24.69591 139.18319,18.97952c33.19332,43.67543 24.69591,105.98987 -18.97953,139.18319c-43.67543,33.19332 -105.98987,24.69591 -139.18319,-18.97952z" fill="url(#color-5)" stroke="none" stroke-width="0"/><path d="M522.90505,526.49966c-73.9657,5.61235 -138.47643,-49.79899 -144.08877,-123.7647c-5.61235,-73.9657 49.799,-138.47643 123.76471,-144.08876c73.9657,-5.61233 138.47644,49.799 144.08878,123.76471c5.61233,73.9657 -49.79901,138.47643 -123.76471,144.08876z" fill="url(#color-6)" stroke="none" stroke-width="0"/><path d="M204.00155,463.42961c-35.33789,-34.92215 -35.67493,-91.87917 -0.75278,-127.21706c34.92215,-35.33789 91.87917,-35.67491 127.21706,-0.75276c35.33789,34.92215 35.67491,91.87915 0.75276,127.21704c-34.92215,35.33789 -91.87917,35.67493 -127.21706,0.75278z" fill="url(#color-7)" stroke="none" stroke-width="0"/><path d="M333.13732,450.76737c-21.44442,-19.49492 -23.0248,-52.68282 -3.52987,-74.12726c19.49492,-21.44442 52.68283,-23.02479 74.12725,-3.52986c21.44442,19.49492 23.0248,52.68283 3.52988,74.12725c-19.49492,21.44442 -52.68283,23.02479 -74.12726,3.52988z" fill="url(#color-8)" stroke="none" stroke-width="0"/><path d="M602.05636,-51.47069c-1.10249,56.22671 -47.57698,100.91371 -103.80368,99.81123c-56.2267,-1.10249 -100.91372,-47.57697 -99.81124,-103.80368c1.10249,-56.2267 47.57698,-100.91371 103.80368,-99.81122c56.2267,1.10249 100.91372,47.57698 99.81124,103.80368z" fill="url(#color-9)" stroke="none" stroke-width="0"/><path d="M304.67163,-173.52929c45.26268,-22.1055 99.87539,-3.33292 121.98091,41.92976c22.1055,45.26269 3.33292,99.87539 -41.92976,121.98091c-45.26268,22.10551 -99.87538,3.33292 -121.98089,-41.92975c-22.1055,-45.26267 -3.33293,-99.87539 41.92976,-121.98089z" fill="url(#color-10)" stroke="none" stroke-width="0"/><path d="M600.09194,176.33931c-31.34921,40.30612 -89.43733,47.56714 -129.74346,16.21793c-40.30612,-31.34921 -47.56714,-89.43733 -16.21793,-129.74347c31.34921,-40.30612 89.43732,-47.56713 129.74346,-16.21792c40.30612,31.34921 47.56714,89.43733 16.21793,129.74346z" fill="url(#color-11)" stroke="none" stroke-width="0"/><path d="M550.644,278.56337c-25.70323,24.03728 -66.02587,22.68676 -90.06316,-3.01647c-24.03728,-25.70323 -22.68676,-66.02588 3.01647,-90.06316c25.70323,-24.03727 66.02588,-22.68676 90.06316,3.01647c24.03728,25.70323 22.68676,66.02587 -3.01647,90.06316z" fill="url(#color-12)" stroke="none" stroke-width="0"/></g></g></svg>