<svg version="1.1" xmlns="http://www.w3.org/2000/svg" xmlns:xlink="http://www.w3.org/1999/xlink" width="83.67305" height="167.24138" viewBox="0,0,83.67305,167.24138"><defs><linearGradient x1="256.26077" y1="107.51387" x2="247.99639" y2="134.26002" gradientUnits="userSpaceOnUse" id="color-1"><stop offset="0" stop-color="#c78b15"/><stop offset="1" stop-color="#c78b15" stop-opacity="0"/></linearGradient><linearGradient x1="256.26077" y1="107.51387" x2="247.99639" y2="134.26002" gradientUnits="userSpaceOnUse" id="color-2"><stop offset="0" stop-color="#c78b15"/><stop offset="1" stop-color="#c78b15" stop-opacity="0"/></linearGradient><linearGradient x1="256.26077" y1="107.19049" x2="247.99639" y2="133.93664" gradientUnits="userSpaceOnUse" id="color-3"><stop offset="0" stop-color="#c78b15"/><stop offset="1" stop-color="#c78b15" stop-opacity="0"/></linearGradient></defs><g transform="translate(-197.55968,-96.4248)"><g data-paper-data="{&quot;isPaintingLayer&quot;:true}" stroke="#000000" stroke-linecap="butt" stroke-linejoin="miter" stroke-miterlimit="10" stroke-dasharray="" stroke-dashoffset="0" style="mix-blend-mode: normal"><path d="M247.81125,98.9248c3.76532,2.37783 7.6656,8.24518 6.9611,13.12954c-0.70391,4.32581 -5.74464,16.32251 -10.2184,21.62048c8.08903,4.75641 -5.49715,39.77165 -2.59529,61.40986c4.14685,29.87504 28.28313,37.58443 36.77407,54.76361c4.5933,9.35796 -5.18,11.57796 -8.25041,11.29462c-44.66129,-2.29361 -60.9564,-28.41638 -67.07598,-44.33639c-8.06714,-20.9473 -0.21707,-46.06049 9.4403,-65.72753c1.95931,-3.90557 6.99432,-11.43583 10.34791,-14.22274c5.31005,-4.45942 6.70606,-4.73673 13.1269,-5.00724c1.25647,-0.13782 8.28234,-35.02241 11.48981,-32.92421z" fill="#fff63b" fill-rule="evenodd" stroke-width="5"/><path d="" fill="url(#color-1)" fill-rule="nonzero" stroke-width="0"/><path d="" fill="url(#color-2)" fill-rule="nonzero" stroke-width="0"/><path d="M239.43037,128.75758l8.26438,-26.74615l2.26083,1.36691c0.56903,1.99033 2.20216,4.60019 2.41406,5.96011c0.48829,3.13366 -2.02406,9.18979 -3.14068,12.01152c-0.99116,2.50469 -4.17373,6.99237 -5.56798,9.55339c-0.09106,0.07881 -0.17391,0.16686 -0.24708,0.26268z" fill="url(#color-3)" fill-rule="nonzero" stroke-width="0"/></g></g></svg>