<svg version="1.1" xmlns="http://www.w3.org/2000/svg" xmlns:xlink="http://www.w3.org/1999/xlink" width="51.69662" height="51.0933" viewBox="0,0,51.69662,51.0933"><g transform="translate(-214.14925,-154.45151)"><g stroke="none" stroke-miterlimit="10"><path d="M216.80746,177.25123c-0.31013,-1.35421 -4.2382,-15.49968 2.28068,-18.06003c6.51888,-2.56034 41.52838,-0.39715 44.57299,-0.34211c2.98449,0.05396 2.12321,17.71529 0,18.40213c-6.83304,2.21042 -46.20825,2.81824 -46.85367,0z" fill="#22ff00" stroke-width="NaN"/><path d="M216.73461,202.01814c-2.88399,-7.45647 0,-24.97346 0,-24.97346h46.98204c0,0 3.36264,22.66116 0,24.97347c-5.86543,4.03333 -44.92174,5.32683 -46.98204,0z" fill="#253126" stroke-width="0"/><path d="M219.67902,183.15069c0,-0.89302 0.72394,-1.61696 1.61696,-1.61696c0.89302,0 1.61696,0.72394 1.61696,1.61696c0,0.89302 -0.72394,1.61696 -1.61696,1.61696c-0.89302,0 -1.61696,-0.72394 -1.61696,-1.61696z" fill="#000000" stroke-width="0.5"/><path d="M228.23157,185.65944c0,-0.89302 0.72394,-1.61696 1.61696,-1.61696c0.89302,0 1.61696,0.72394 1.61696,1.61696c0,0.89302 -0.72394,1.61696 -1.61696,1.61696c-0.89302,0 -1.61696,-0.72394 -1.61696,-1.61696z" fill="#000000" stroke-width="0.5"/><path d="M222.52987,194.09795c0,-0.89302 0.72394,-1.61696 1.61696,-1.61696c0.89302,0 1.61696,0.72394 1.61696,1.61696c0,0.89302 -0.72394,1.61696 -1.61696,1.61696c-0.89302,0 -1.61696,-0.72394 -1.61696,-1.61696z" fill="#000000" stroke-width="0.5"/><path d="M232.3368,197.97511c0,-0.89302 0.72394,-1.61696 1.61696,-1.61696c0.89302,0 1.61696,0.72394 1.61696,1.61696c0,0.89302 -0.72394,1.61696 -1.61696,1.61696c-0.89302,0 -1.61696,-0.72394 -1.61696,-1.61696z" fill="#000000" stroke-width="0.5"/><path d="M233.59117,190.10676c0,-0.89302 0.72394,-1.61696 1.61696,-1.61696c0.89302,0 1.61696,0.72394 1.61696,1.61696c0,0.89302 -0.72394,1.61696 -1.61696,1.61696c-0.89302,0 -1.61696,-0.72394 -1.61696,-1.61696z" fill="#000000" stroke-width="0.5"/><path d="M244.76651,189.08045c0,-0.89302 0.72394,-1.61696 1.61696,-1.61696c0.89302,0 1.61696,0.72394 1.61696,1.61696c0,0.89302 -0.72394,1.61696 -1.61696,1.61696c-0.89302,0 -1.61696,-0.72394 -1.61696,-1.61696z" fill="#000000" stroke-width="0.5"/><path d="M246.24896,196.60671c0,-0.89302 0.72394,-1.61696 1.61696,-1.61696c0.89302,0 1.61696,0.72394 1.61696,1.61696c0,0.89302 -0.72394,1.61696 -1.61696,1.61696c-0.89302,0 -1.61696,-0.72394 -1.61696,-1.61696z" fill="#000000" stroke-width="0.5"/><path d="M234.95958,183.15069c0,-0.89302 0.72394,-1.61696 1.61696,-1.61696c0.89302,0 1.61696,0.72394 1.61696,1.61696c0,0.89302 -0.72394,1.61696 -1.61696,1.61696c-0.89302,0 -1.61696,-0.72394 -1.61696,-1.61696z" fill="#000000" stroke-width="0.5"/><path d="M250.69628,184.63313c0,-0.89302 0.72394,-1.61696 1.61696,-1.61696c0.89302,0 1.61696,0.72394 1.61696,1.61696c0,0.89302 -0.72394,1.61696 -1.61696,1.61696c-0.89302,0 -1.61696,-0.72394 -1.61696,-1.61696z" fill="#000000" stroke-width="0.5"/><path d="M256.16992,196.15057c0,-0.89302 0.72394,-1.61696 1.61696,-1.61696c0.89302,0 1.61696,0.72394 1.61696,1.61696c0,0.89302 -0.72394,1.61696 -1.61696,1.61696c-0.89302,0 -1.61696,-0.72394 -1.61696,-1.61696z" fill="#000000" stroke-width="0.5"/><path d="M257.88042,185.43136c0,-0.89302 0.72394,-1.61696 1.61696,-1.61696c0.89302,0 1.61696,0.72394 1.61696,1.61696c0,0.89302 -0.72394,1.61696 -1.61696,1.61696c-0.89302,0 -1.61696,-0.72394 -1.61696,-1.61696z" fill="#000000" stroke-width="0.5"/><path d="M254.80151,188.39626c0,-0.89302 0.72394,-1.61696 1.61696,-1.61696c0.89302,0 1.61696,0.72394 1.61696,1.61696c0,0.89302 -0.72394,1.61696 -1.61696,1.61696c-0.89302,0 -1.61696,-0.72394 -1.61696,-1.61696z" fill="#000000" stroke-width="0.5"/><path d="M222.28486,157.26495c0,0.33494 -0.17345,0.49643 -0.34071,0.57429c0.33675,1.02372 -0.46555,1.75898 -1.1564,2.32548c0,0 -0.50506,0.40405 -0.9091,-0.10101c-0.40405,-0.50506 0.10101,-0.9091 0.10101,-0.9091c0.257,-0.19871 0.85706,-0.5374 0.70599,-0.99137c-0.11689,-0.35126 -0.60914,-0.68121 -0.44988,-1.01541c0.1852,-0.38868 0.78796,-0.34724 1.18194,-0.52087l0.22037,-0.0088c0,0 0.64678,0 0.64678,0.64678z" fill="#22ff00" stroke-width="0.5"/><path d="M226.54155,157.53044c0.64678,0 0.64678,0.64678 0.64678,0.64678l-0.31401,1.01075c-0.38012,0.22807 -0.76023,0.45613 -1.14033,0.6842c0,0 -0.55462,0.33277 -0.88738,-0.22185c-0.33277,-0.55462 0.22185,-0.88738 0.22185,-0.88738c0.38012,-0.22807 0.76023,-0.45614 1.14034,-0.6842l-0.31402,0.09848c0,0 0,-0.64678 0.64678,-0.64678z" fill="#22ff00" stroke-width="0.5"/><path d="M229.77192,156.92285c0,-0.64678 0.64678,-0.64678 0.64678,-0.64678h0.45614c0.97665,0.00292 3.9416,0.41304 2.82796,2.24585c-0.24674,0.40608 -0.8685,0.38772 -1.31489,0.55055c-1.21379,0.44277 -2.49402,0.76543 -3.74113,1.0981c0,0 -0.62494,0.16666 -0.7916,-0.45829c-0.16666,-0.62495 0.45829,-0.7916 0.45829,-0.7916c1.26283,-0.33664 6.48562,-1.36477 2.56138,-1.35105h-0.45614c0,0 -0.64678,0 -0.64678,-0.64678z" fill="#22ff00" stroke-width="0.5"/><path d="M237.37478,154.45152c0.64678,0 0.64678,0.64678 0.64678,0.64678l-0.14173,-0.06194c1.62554,2.14094 0.0183,3.30132 -0.8263,5.22809c0,0 -0.26268,0.59104 -0.85372,0.32835c-0.59104,-0.26268 -0.32836,-0.85372 -0.32836,-0.85372c0.6031,-1.34101 2.23126,-2.47592 0.99826,-3.89464l-0.14173,-0.74615c0,0 0,-0.64678 0.64678,-0.64678z" fill="#22ff00" stroke-width="0.5"/><path d="M241.06781,157.18745c0.02367,-0.17175 0.1332,-0.56928 0.64027,-0.56928c0.64678,0 0.64678,0.64678 0.64678,0.64678l-0.09217,0.4468c-0.52681,0.87395 -1.1594,1.6834 -1.72696,2.53476c0,0 -0.35877,0.53816 -0.89692,0.17939c-0.53816,-0.35877 -0.17939,-0.89692 -0.17939,-0.89692c0.52483,-0.78725 1.11357,-1.53811 1.6084,-2.34152z" fill="#22ff00" stroke-width="0.5"/><path d="M245.92733,155.02169c0.64678,0 0.64678,0.64678 0.64678,0.64678l-0.0088,0.0077c0.216,1.32002 0.10415,2.5526 -0.11403,3.86175c0,0 -0.10633,0.63798 -0.74432,0.53166c-0.63798,-0.10633 -0.53165,-0.74431 -0.53165,-0.74431c0.19421,-1.16527 0.31412,-2.26087 0.11403,-3.43643l-0.00881,-0.22037c0,0 0,-0.64678 0.64678,-0.64678z" fill="#22ff00" stroke-width="0.5"/><path d="M248.59957,157.3029c-0.10712,-0.14937 -0.28063,-0.49338 0.06338,-0.83739c0.45735,-0.45735 0.91469,0 0.91469,0l0.43937,1.13222c-0.23043,0.37291 -0.66565,0.59356 -0.88394,0.97372c-0.25046,0.43619 0.23691,1.12356 -0.08944,1.50629c-0.24272,0.28464 -0.71425,0.22263 -1.07138,0.33395c0,0 -0.63798,0.10633 -0.74431,-0.53166c-0.10633,-0.63798 0.53165,-0.74431 0.53165,-0.74431c0.56482,0.20135 -0.10468,-0.45475 0.20758,-1.12464c0.13373,-0.28689 0.39931,-0.48593 0.6324,-0.70818z" fill="#22ff00" stroke-width="0.5"/><path d="M253.30213,156.80882c0,0.64678 -0.64678,0.64678 -0.64678,0.64678l0.09848,-0.31401c-0.5779,0.86674 -0.43709,1.76999 -1.19808,2.70407c0,0 -0.41407,0.49687 -0.91094,0.08282c-0.49687,-0.41407 -0.08281,-0.91094 -0.08281,-0.91094c0.73679,-0.85844 0.54562,-1.5869 1.0826,-2.54149l1.01075,-0.31401c0,0 0.64678,0 0.64678,0.64678z" fill="#22ff00" stroke-width="0.5"/><path d="M256.26701,155.21234c0,0.64678 -0.64678,0.64678 -0.64678,0.64678l-0.22686,-0.18944c0.82173,1.0279 -0.39747,3.66398 -1.14034,4.44732c0,0 -0.45735,0.45735 -0.91469,0c-0.45735,-0.45735 0,-0.91469 0,-0.91469c1.05509,-0.97003 0.9101,-3.07149 1.14034,-4.44733l1.14155,-0.18944c0,0 0.64678,0 0.64678,0.64678z" fill="#22ff00" stroke-width="0.5"/><path d="M259.26932,154.67959c0.64678,0 0.64678,0.64678 0.64678,0.64678v0.57016c-0.00557,1.86332 -1.13434,2.39172 -1.89283,3.93834c0,0 -0.28925,0.5785 -0.86775,0.28925c-0.5785,-0.28925 -0.28925,-0.86775 -0.28925,-0.86775c0.66695,-1.31346 1.76154,-1.84757 1.75626,-3.35984v-0.57016c0,0 0,-0.64678 0.64678,-0.64678z" fill="#22ff00" stroke-width="0.5"/><path d="M265.84587,156.69478c0,0.64678 -0.64678,0.64678 -0.64678,0.64678l-0.3498,-0.00881c-1.00607,0.02519 -0.19811,1.19819 -0.94053,1.90635c-0.53345,0.50883 -2.30456,0.86858 -3.05229,1.31727c0,0 -0.55462,0.33277 -0.88738,-0.22185c-0.33277,-0.55462 0.22185,-0.88738 0.22185,-0.88738c0.85042,-0.51019 2.168,-0.74599 2.87748,-1.19148c0.29631,-0.18606 -0.09527,-0.72076 0.02492,-1.04934c0.40904,-1.11818 0.56096,-0.92281 1.54329,-1.14953l0.56246,-0.00881c0,0 0.64678,0 0.64678,0.64678z" fill="#22ff00" stroke-width="0.5"/><path d="M214.14925,156.69478c0,-0.64678 0.64678,-0.64678 0.64678,-0.64678l1.00288,0.08396c0.71997,0.9967 1.50521,2.56989 2.73671,2.91413c0,0 0.61359,0.20453 0.40907,0.81812c-0.20453,0.61359 -0.81812,0.40907 -0.81812,0.40907c-1.22593,-0.44893 -2.55824,-1.71254 -2.96499,-3.01565l-0.36553,0.08396c0,0 -0.64678,0 -0.64678,-0.64678z" fill="#22ff00" stroke-width="0.5"/></g></g></svg>