<svg version="1.1" xmlns="http://www.w3.org/2000/svg" xmlns:xlink="http://www.w3.org/1999/xlink" width="53.75001" height="64.48172" viewBox="0,0,53.75001,64.48172"><g transform="translate(-4.93731,-147.75914)"><g data-paper-data="{&quot;isPaintingLayer&quot;:true}" fill-rule="nonzero" stroke-linejoin="miter" stroke-miterlimit="10" stroke-dasharray="" stroke-dashoffset="0" style="mix-blend-mode: normal"><path d="M19.24487,166.17806l36.94245,0l0,27.00839l-36.94245,0z" fill="#875600" stroke="#382000" stroke-width="5" stroke-linecap="butt"/><g><path d="M25.29061,162.26701c-0.00461,9.31541 0.02469,18.63089 0,27.94624c-0.00117,0.43994 -0.13944,0.94912 -0.20041,1.37601c-0.38857,2.72072 0.93411,7.86566 -1.17993,9.50733c-0.91398,0.70976 -2.58421,0.33978 -3.18527,-1.02187c-0.8877,-2.01103 -0.87772,-4.27633 -2.19002,-6.05971c-2.3148,-3.14576 -5.78829,-5.29723 -7.48733,-9.36052c-0.81096,-1.93943 -2.33785,-1.23891 -2.71518,-3.91581c-0.06781,-0.48104 -0.25948,-1.32452 -0.09157,-1.87218c0.39226,-1.27938 1.87555,-2.80322 2.52224,-3.87522c1.45288,-2.40841 3.0151,-4.5782 4.56037,-6.80235c0.6379,-0.91815 1.70801,-1.36824 2.25646,-2.38966c0.46699,-0.86972 0.6093,-1.93747 1.21585,-2.76177c0.4841,-0.65789 1.80829,-0.98463 1.99071,-1.3565c0.07844,-1.57034 1.04063,-2.8111 2.21606,-2.8111c0.9131,0 1.69751,0.74873 2.03893,1.81907c0.16125,0.42338 0.24941,0.93898 0.24909,1.57804z" fill="#875600" stroke="none" stroke-width="0.5" stroke-linecap="butt"/><g fill="none" stroke="#382000" stroke-width="5" stroke-linecap="round"><path d="M24.85638,178.57014l0,26.05516l-17.41906,-23.67206"/><path d="M7.43731,179.04676l17.41906,-23.67206l0,26.05516" data-paper-data="{&quot;index&quot;:null}"/></g></g><path d="M49.19745,181.08333c-1,0 -1,-1 -1,-1l0.01361,-0.49773c0.06054,-0.33051 0.08457,-0.67097 0.07207,-1.00938c-0.46699,0.0136 -0.9328,0.04413 -1.39681,0.10597c-0.00854,0.0501 -0.01708,0.10019 -0.02561,0.15029l0.00341,0.91752c0,0 0,1 -1,1c-1,0 -1,-1 -1,-1l0.00341,-1.08248c0.05569,-0.3407 0.11139,-0.68139 0.16708,-1.02209c0.02488,-0.33167 0.168,-0.54049 0.33836,-0.67196c0.17301,-0.16065 0.43247,-0.27366 0.8179,-0.21058l0.00885,0.00071c1.25675,-0.20545 2.51099,-0.19624 3.77679,-0.18541c0.10015,-0.18848 0.28436,-0.36252 0.61289,-0.45639c0.96152,-0.27472 1.23625,0.6868 1.23625,0.6868c0.31537,1.10463 0.66604,2.14364 0.8582,3.27699l0.01361,0.33107c0,0 0,1 -1,1c-1,0 -1,-1 -1,-1l0.01361,-0.00227c-0.10225,-0.62611 -0.26374,-1.22157 -0.43965,-1.8172c0.00876,0.44122 -0.02043,0.88359 -0.08756,1.3172l0.01361,0.16893c0,0 0,1 -1,1z" fill="#382000" stroke="none" stroke-width="0.5" stroke-linecap="butt"/><path d="M43.03078,181.75c-1,0 -1,-1 -1,-1l0.05132,-0.01711c-0.11226,-0.33678 -0.22814,-0.65245 -0.34933,-0.95299c-0.03871,0.03768 -0.0778,0.07589 -0.11728,0.11467l-1.1375,0.58319c0,0 -0.89443,0.44721 -1.34164,-0.44721c-0.44721,-0.89443 0.44721,-1.34164 0.44721,-1.34164l0.8625,-0.41681c0.12656,-0.12928 0.24854,-0.24918 0.36646,-0.36327c-0.36256,-0.61973 -0.77588,-1.2305 -1.26215,-1.91091c0,0 -0.58124,-0.81373 0.2325,-1.39497c0.81373,-0.58124 1.39497,0.2325 1.39497,0.2325c0.38087,0.53351 0.72539,1.03853 1.03971,1.54071c0.09444,-0.13946 0.18702,-0.29002 0.27831,-0.45561c0,0 0.49614,-0.86824 1.36438,-0.3721c0.86824,0.49614 0.3721,1.36438 0.3721,1.36438c-0.31772,0.54137 -0.63814,0.96605 -0.98015,1.35208c0.2656,0.5689 0.50554,1.17041 0.72726,1.83555l0.05132,0.64956c0,0 0,1 -1,1z" fill="#382000" stroke="none" stroke-width="0.5" stroke-linecap="butt"/><path d="M33.24877,176.76711c0.31623,-0.94868 1.26491,-0.63246 1.26491,-0.63246l0.34817,0.12896c0.33333,0.05556 0.66667,0.11111 1,0.16667c0,0 0.98639,0.1644 0.82199,1.15079c-0.1644,0.98639 -1.15079,0.82199 -1.15079,0.82199c-0.33333,-0.05556 -0.66667,-0.11111 -1,-0.16667l-0.65183,-0.20438c0,0 -0.94868,-0.31623 -0.63246,-1.26491z" fill="#382000" stroke="none" stroke-width="0.5" stroke-linecap="butt"/><path d="M38.53078,176.58333c0.55228,0 1,0.44772 1,1c0,0.55228 -0.44772,1 -1,1c-0.55228,0 -1,-0.44772 -1,-1c0,-0.55228 0.44772,-1 1,-1z" fill="#382000" stroke="none" stroke-width="0.5" stroke-linecap="butt"/><path d="M31.53078,180.08333c-0.38696,0 -0.62419,-0.14974 -0.76961,-0.33333c-0.0768,0 -0.15359,0 -0.23039,0h-0.83333c0,0 -1,0 -1,-1c0,-1 1,-1 1,-1c0.21159,0 0.50713,0 0.83333,0c0,-0.21359 0,-0.39676 0,-0.5c0,0 0,-1 1,-1c1,0 1,1 1,1c0,0.16667 0,0.33333 0,0.5c0,0 1,0 1,1c0,1 -1,1 -1,1c-0.0768,0 -0.15359,0 -0.23039,0c-0.14543,0.18359 -0.38265,0.33333 -0.76961,0.33333z" fill="#382000" stroke="none" stroke-width="0.5" stroke-linecap="butt"/></g></g></svg>