<svg version="1.1" xmlns="http://www.w3.org/2000/svg" xmlns:xlink="http://www.w3.org/1999/xlink" width="74.52818" height="76.80198" viewBox="0,0,74.52818,76.80198"><g transform="translate(-203.89487,-139.10711)"><g data-paper-data="{&quot;isPaintingLayer&quot;:true}" fill-rule="nonzero" stroke-linecap="butt" stroke-linejoin="miter" stroke-miterlimit="10" stroke-dasharray="" stroke-dashoffset="0" style="mix-blend-mode: normal"><path d="M213.66798,183.5143c0,-14.11559 11.44294,-25.55854 25.55854,-25.55854c14.11559,0 25.55854,11.44294 25.55854,25.55854c0,14.11559 -11.44294,25.55854 -25.55854,25.55854c-14.11559,0 -25.55854,-11.44294 -25.55854,-25.55854z" fill="#1c1201" stroke="none" stroke-width="NaN"/><path d="M207.31197,160.9488c0,-5.53479 4.48684,-10.02164 10.02164,-10.02164c5.53479,0 10.02164,4.48684 10.02164,10.02164c0,5.53479 -4.48684,10.02164 -10.02164,10.02164c-5.53479,0 -10.02164,-4.48684 -10.02164,-10.02164z" fill="#3f2803" stroke="none" stroke-width="0"/><path d="M252.64475,161.89043c0,-5.53479 4.48683,-10.02164 10.02164,-10.02164c5.5348,0 10.02164,4.48684 10.02164,10.02164c0,5.5348 -4.48683,10.02164 -10.02164,10.02164c-5.53479,0 -10.02164,-4.48683 -10.02164,-10.02164z" fill="#2f1e02" stroke="none" stroke-width="0"/><path d="M209.36338,160.64613c0,-4.42041 3.36627,-8.00385 7.51878,-8.00385c4.1525,0 7.51878,3.58345 7.51878,8.00385c0,4.42041 -3.36627,8.00385 -7.51878,8.00385c-4.1525,0 -7.51878,-3.58345 -7.51878,-8.00385z" fill="#563704" stroke="none" stroke-width="NaN"/><path d="M254.96519,161.72228c0,-4.42041 3.36627,-8.00385 7.51878,-8.00385c4.15251,0 7.51878,3.58345 7.51878,8.00385c0,4.42041 -3.36627,8.00385 -7.51878,8.00385c-4.1525,0 -7.51878,-3.58345 -7.51878,-8.00385z" fill="#503304" stroke="none" stroke-width="NaN"/><path d="M218.37613,184.58777c0,-12.25827 9.33504,-22.19557 20.85038,-22.19557c11.51534,0 20.85038,9.9373 20.85038,22.19557c0,12.25827 -9.33504,22.19557 -20.85038,22.19557c-11.51534,0 -20.85038,-9.9373 -20.85038,-22.19557z" fill="#6d4505" stroke="#523404" stroke-width="4"/><path d="M231.79436,181.52747c0,3.49175 -1.08407,6.32238 -2.42134,6.32238c-1.33726,0 -2.42134,-2.83063 -2.42134,-6.32238c0,-3.49175 1.08407,-6.32238 2.42134,-6.32238c1.33727,0 2.42134,2.83062 2.42134,6.32238z" fill="#000000" stroke="none" stroke-width="0"/><path d="M230.85273,179.37517c0,0.89151 -0.30112,1.61422 -0.67259,1.61422c-0.37146,0 -0.67259,-0.72271 -0.67259,-1.61422c0,-0.89151 0.30112,-1.61422 0.67259,-1.61422c0.37146,0 0.67259,0.72271 0.67259,1.61422z" fill="#ffffff" stroke="none" stroke-width="0"/><path d="M248.87822,181.25843c0,3.49175 -1.08407,6.32238 -2.42134,6.32238c-1.33726,0 -2.42134,-2.83062 -2.42134,-6.32238c0,-3.49175 1.08407,-6.32238 2.42134,-6.32238c1.33727,0 2.42134,2.83063 2.42134,6.32238z" fill="#000000" stroke="none" stroke-width="0"/><path d="M247.93659,179.10613c0,0.89151 -0.30112,1.61422 -0.67259,1.61422c-0.37146,0 -0.67259,-0.72271 -0.67259,-1.61422c0,-0.89151 0.30112,-1.61422 0.67259,-1.61422c0.37146,0 0.67259,0.72271 0.67259,1.61422z" fill="#ffffff" stroke="none" stroke-width="0"/><path d="M252.84308,188.75696c0.64678,0.56287 0.31061,1.50165 0.31061,1.50165l-0.40308,1.12331c-0.58864,1.29459 -1.27902,1.90121 -2.14254,2.76121c-0.44623,0.38527 -0.77121,1.05088 -1.24376,1.36433c-1.87707,1.24513 -4.57024,0.41772 -6.48749,-0.38112c-1.22538,-0.51057 -2.34322,-0.50217 -3.40896,-1.7346c-0.57594,-0.66601 -0.96099,-1.4144 -1.28489,-2.21345c-1.10271,4.34703 -4.07779,6.0416 -7.49137,6.29335c-1.92864,0.14225 -3.33208,0.2534 -5.10032,-1.28711c-0.48659,-0.63023 -0.94108,-1.32562 -1.34343,-2.07749l-0.33618,-0.79721c0,0 -0.39478,-0.95446 0.21802,-1.49028c0.61279,-0.53582 1.00756,0.41866 1.00756,0.41866l0.22878,0.56871c0.30692,0.58303 0.64684,1.13448 1.02181,1.62015c1.41752,1.23171 2.59716,0.96752 4.14565,0.85792c3.26944,-0.23138 6.23186,-1.78594 6.60334,-6.95191c-0.02595,-0.06461 -0.05235,-0.12931 -0.07929,-0.19407c0,0 -0.39478,-0.95446 0.21802,-1.49028c0.17437,-0.15248 0.33109,-0.18427 0.46608,-0.15172c0.05593,-0.00913 0.11735,-0.00984 0.18481,-0.00033c0.72854,0.10276 0.70432,1.1925 0.70432,1.1925c-0.00291,0.10838 -0.00662,0.2157 -0.01114,0.32193c0.332,1.03847 0.61549,2.15648 1.13993,2.96455c1.02486,1.57916 2.11166,1.49854 3.43012,2.04495c2.52857,1.0479 4.46256,1.1291 6.59514,-0.756c0.65765,-0.65586 1.2799,-1.08231 1.70258,-2.08883l0.3727,-1.04297c0,0 0.33619,-0.93876 0.98298,-0.3759z" fill="#000000" stroke="none" stroke-width="0.5"/><path d="M203.89487,215.9091v-76.80198h74.52818v76.80198z" fill="none" stroke="none" stroke-width="0"/></g></g></svg>