<svg version="1.1" xmlns="http://www.w3.org/2000/svg" xmlns:xlink="http://www.w3.org/1999/xlink" width="52.7156" height="52.54499" viewBox="0,0,52.7156,52.54499"><defs><radialGradient cx="240.28007" cy="179.78413" r="24.66953" gradientUnits="userSpaceOnUse" id="color-1"><stop offset="0" stop-color="#cc1f1f"/><stop offset="1" stop-color="#82d716"/></radialGradient><radialGradient cx="226.43674" cy="167.27189" r="4.70318" gradientUnits="userSpaceOnUse" id="color-2"><stop offset="0" stop-color="#a00000"/><stop offset="1" stop-color="#ff4e4e"/></radialGradient><radialGradient cx="250.92496" cy="165.84823" r="4.70319" gradientUnits="userSpaceOnUse" id="color-3"><stop offset="0" stop-color="#a00000"/><stop offset="1" stop-color="#ff4e4e"/></radialGradient></defs><g transform="translate(-213.6422,-153.7275)"><g stroke-miterlimit="10"><path d="M215.61054,179.78413c0,-6.83477 -2.54489,-16.92488 1.9454,-21.39264c4.46077,-4.43838 15.9343,-3.2769 22.72413,-3.2769c7.2812,0 17.37523,-0.92758 21.89087,4.08925c3.93404,4.37067 2.77866,14.23689 2.77866,20.58028c0,7.52499 1.24524,18.52255 -4.06694,23.04749c-4.30596,3.66783 -14.50298,1.62204 -20.60259,1.62204c-7.10275,0 -16.69904,2.14517 -21.20027,-2.65889c-4.13309,-4.41115 -3.46926,-15.48879 -3.46926,-22.01064z" fill="url(#color-1)" stroke="#000000" stroke-width="2.5" stroke-linecap="butt"/><path d="M230.78496,167.27189c0,2.5975 -1.94677,4.70318 -4.34822,4.70318c-2.40146,0 -4.34823,-2.10569 -4.34823,-4.70318c0,-2.5975 1.94677,-4.70319 4.34823,-4.70319c2.40146,0 4.34822,2.10569 4.34822,4.70319z" fill="url(#color-2)" stroke="#000000" stroke-width="1.5" stroke-linecap="butt"/><path d="M255.27319,165.84823c0,2.5975 -1.94677,4.70319 -4.34823,4.70319c-2.40146,0 -4.34822,-2.10569 -4.34822,-4.70319c0,-2.5975 1.94677,-4.70319 4.34822,-4.70319c2.40146,0 4.34823,2.10569 4.34823,4.70319z" fill="url(#color-3)" stroke="#000000" stroke-width="1.5" stroke-linecap="butt"/><path d="M253.23602,185.01976c0,0 2.44972,5.12315 -4.52571,11.09241c-6.2464,5.34539 -22.53979,-11.89107 -22.53979,-11.89107" fill="none" stroke="#000000" stroke-width="1.5" stroke-linecap="round"/><path d="M229.27477,186.91341l5.20817,-4.71338l-1.81414,7.39161z" fill="#000000" stroke="none" stroke-width="0" stroke-linecap="butt"/><path d="M233.19364,191.03895l4.38971,-5.48375l-0.61195,7.58634z" fill="#000000" stroke="none" stroke-width="0" stroke-linecap="butt"/><path d="M237.70725,194.53558l3.44834,-6.11964l0.61894,7.58577z" fill="#000000" stroke="none" stroke-width="0" stroke-linecap="butt"/><path d="M243.04187,196.73804l1.06495,-6.94311l3.25802,6.8784z" fill="#000000" stroke="none" stroke-width="0" stroke-linecap="butt"/><path d="M249.01602,195.31454l-3.44946,-6.11901l6.80993,3.3988z" fill="#000000" stroke="none" stroke-width="0" stroke-linecap="butt"/><path d="M252.72305,190.79588l-6.4132,-2.86564l7.49562,-1.32013z" fill="#000000" stroke="#000000" stroke-width="0.5" stroke-linecap="butt"/></g></g></svg>